<svg width="27" height="17" viewBox="0 0 27 17" fill="none" xmlns="http://www.w3.org/2000/svg">
<path d="M26.9995 8.40319C26.9995 8.7991 26.6765 9.12022 26.2788 9.12022L2.36308 9.12022L8.55035 15.276C8.69088 15.4158 8.76126 15.5994 8.76126 15.783C8.76126 15.9665 8.69087 16.1501 8.55035 16.2899C8.26881 16.57 7.81254 16.57 7.53073 16.2899L0.21116 9.00696C-0.0703867 8.72734 -0.0703867 8.27264 0.21116 7.99304L7.53138 0.710085C7.81292 0.429972 8.26919 0.429972 8.55099 0.710085C8.83254 0.9897 8.83254 1.4444 8.55099 1.724L2.55858 7.68617L26.2793 7.68617C26.6772 7.68617 27 8.00729 27 8.40319H26.9995Z" fill="black"/>
</svg>
