<svg width="414" height="415" viewBox="0 0 414 415" fill="none" xmlns="http://www.w3.org/2000/svg">
<g clip-path="url(#clip0_108_2)">
<path opacity="0.18" d="M403.681 199.622C396.96 230.515 390.235 261.386 383.506 292.235C380.878 304.294 378.228 316.428 373.499 327.797C370.068 336.042 365.551 343.79 360.067 350.837C343.469 372.261 318.511 387.283 291.615 390.947C274.467 393.285 256.942 391.313 239.826 393.867C218.219 397.1 198.27 407.359 176.932 412.026C146.47 418.696 114.22 413.567 85.3744 401.67C62.6575 392.305 23.7834 375.472 8.62799 350.859C5.62775 346.141 3.60916 340.867 2.69293 335.351C-4.84707 286.75 4.49176 227.113 20.5735 181.119C51.8107 91.675 133.232 21.693 226.308 4.1705C261.606 -2.46778 298.94 -1.8643 332.46 11.0351C365.981 23.9345 395.204 50.078 407.171 83.9591C420.215 120.825 412.007 161.409 403.681 199.622Z" fill="#CFBDB1"/>
<path d="M360.067 350.859C343.469 372.282 318.511 387.305 291.615 390.969C274.467 393.307 256.942 391.335 239.826 393.889C218.218 397.122 198.27 407.381 176.932 412.047C146.47 418.718 114.22 413.588 85.3744 401.691C62.6574 392.305 23.7833 375.472 8.62793 350.859H360.067Z" fill="#CFBDB1"/>
<path d="M204.722 357.098C170.038 349.059 133.867 352.357 98.4294 355.687C95.1979 355.988 91.848 356.333 89.0905 358.036C86.333 359.739 84.405 363.262 85.5791 366.291C86.6562 368.952 89.5214 370.31 92.2358 371.215C109.47 377.045 128.169 375.655 146.341 374.826C205.217 372.153 264.826 376.119 322.551 363.952C328.432 362.713 334.722 361.042 338.503 356.409C327.678 350.902 314.623 352.411 302.957 355.751C291.292 359.092 280.003 364.168 267.939 365.504C261.164 366.247 258.891 359.135 253.279 356.559C248.971 354.577 246.16 355.072 241.743 356.409C228.053 360.525 218.886 360.385 204.722 357.098Z" fill="url(#paint0_linear_108_2)"/>
<path d="M162.325 350.977C160.673 350.968 159.053 350.51 157.64 349.653C156.226 348.795 155.071 347.571 154.298 346.11C153.524 344.648 153.161 343.004 153.247 341.353C153.333 339.701 153.865 338.104 154.785 336.731C155.667 335.417 156.873 334.354 158.287 333.646C159.702 332.938 161.275 332.609 162.855 332.691C164.434 332.774 165.965 333.264 167.298 334.115C168.632 334.966 169.721 336.149 170.461 337.547C171.202 338.945 171.566 340.512 171.521 342.093C171.475 343.675 171.02 345.217 170.2 346.57C169.381 347.923 168.224 349.041 166.844 349.813C165.464 350.586 163.907 350.987 162.325 350.977ZM159.213 339.737C158.799 340.355 158.577 341.081 158.576 341.825C158.574 342.568 158.793 343.295 159.204 343.914C159.616 344.533 160.202 345.017 160.887 345.303C161.573 345.589 162.328 345.666 163.057 345.523C163.787 345.38 164.457 345.024 164.984 344.5C165.512 343.976 165.872 343.308 166.019 342.579C166.167 341.85 166.095 341.094 165.814 340.406C165.532 339.718 165.053 339.129 164.437 338.714C163.608 338.158 162.592 337.954 161.613 338.145C160.634 338.337 159.771 338.91 159.213 339.737Z" fill="#2E2E3F"/>
<path d="M95.3164 350.977C93.662 350.971 92.0404 350.516 90.6246 349.659C89.2089 348.803 88.0522 347.578 87.278 346.115C86.5038 344.653 86.1413 343.007 86.2291 341.354C86.3168 339.701 86.8517 338.103 87.7764 336.731C88.6575 335.417 89.8641 334.354 91.2784 333.646C92.6927 332.938 94.2664 332.609 95.8457 332.691C97.4251 332.774 98.9561 333.264 100.289 334.115C101.623 334.966 102.712 336.149 103.452 337.547C104.192 338.945 104.557 340.512 104.512 342.093C104.466 343.675 104.011 345.217 103.191 346.57C102.372 347.923 101.215 349.041 99.8349 349.813C98.4547 350.586 96.8979 350.987 95.3164 350.977ZM92.2142 339.737C91.7991 340.355 91.5763 341.081 91.574 341.826C91.5718 342.57 91.7902 343.298 92.2016 343.917C92.613 344.537 93.199 345.021 93.8853 345.308C94.5716 345.594 95.3275 345.671 96.0573 345.527C96.7871 345.384 97.458 345.028 97.9851 344.503C98.5123 343.978 98.8719 343.308 99.0186 342.579C99.1653 341.849 99.0925 341.093 98.8092 340.405C98.526 339.717 98.0452 339.128 97.4276 338.714C96.6004 338.158 95.5867 337.954 94.6092 338.146C93.6317 338.338 92.7703 338.911 92.2142 339.737Z" fill="#2E2E3F"/>
<path d="M237.079 161.032C236.755 162.097 236.28 163.109 235.668 164.039C234.461 165.475 232.933 166.608 231.209 167.347C224.38 170.849 213.974 174.621 208.179 179.686C207.476 180.245 206.893 180.942 206.467 181.734C205.637 183.533 206.467 185.613 207.232 187.424C207.575 188.448 208.185 189.363 208.998 190.075C210.474 191.152 212.52 190.689 214.276 190.172C221.01 188.163 227.633 185.8 234.117 183.091C237.745 181.628 241.268 179.917 244.662 177.973C246.023 177.272 247.206 176.27 248.12 175.041C248.762 173.935 249.189 172.718 249.38 171.453C250.606 164.922 251.43 158.321 251.847 151.689L253.139 136.128C253.398 133.132 262.511 122.646 259.764 120.588C254.378 116.558 246.547 127.528 245.319 129.78C241.851 136.128 238.426 157.196 237.079 161.032Z" fill="#CFBDB1"/>
<path d="M237.079 161.032C236.755 162.097 236.28 163.109 235.668 164.039C234.461 165.475 232.933 166.608 231.209 167.347C224.38 170.849 213.974 174.621 208.179 179.686C207.476 180.245 206.893 180.942 206.467 181.734C205.637 183.533 206.467 185.613 207.232 187.424C207.575 188.448 208.185 189.363 208.998 190.075C210.474 191.152 212.52 190.689 214.276 190.172C221.01 188.163 227.633 185.8 234.117 183.091C237.745 181.628 241.268 179.917 244.662 177.973C246.023 177.272 247.206 176.27 248.12 175.041C248.762 173.935 249.189 172.718 249.38 171.453C250.606 164.922 251.43 158.321 251.847 151.689L253.139 136.128C253.398 133.132 262.511 122.646 259.764 120.588C254.378 116.558 246.547 127.528 245.319 129.78C241.851 136.128 238.426 157.196 237.079 161.032Z" fill="url(#paint1_linear_108_2)"/>
<path d="M320.73 329.575C321.601 330.966 322.053 332.579 322.034 334.22C321.932 334.836 321.701 335.424 321.356 335.945C321.01 336.465 320.559 336.906 320.03 337.239C319.502 337.572 318.909 337.79 318.291 337.877C317.672 337.963 317.043 337.918 316.443 337.744C315.467 337.34 314.581 336.747 313.836 335.998C304.821 327.98 297.679 318.098 291.216 307.861C289.472 305.08 287.78 302.268 286.294 299.347C281.272 289.451 278.634 278.516 278.592 267.417C278.524 266.78 278.681 266.14 279.034 265.606C279.405 265.231 279.883 264.978 280.402 264.884C284.861 263.634 291.809 263.516 295.751 266.425C300.178 269.658 299.112 279.842 298.918 284.476C298.693 286.453 298.891 288.455 299.5 290.349C300.307 291.97 301.402 293.431 302.731 294.66C311.768 304.369 314.903 317.829 320.73 329.575Z" fill="#F3BD8F"/>
<path d="M264.826 307.473C265.76 320.062 264.099 332.709 259.947 344.63C259.694 345.709 259.115 346.683 258.288 347.421C257.729 347.766 257.088 347.955 256.431 347.97C255.774 347.986 255.125 347.826 254.551 347.507C251.631 346.085 250.608 342.981 250.113 339.964C247.946 326.648 246.915 313.172 247.032 299.681C247.032 293.313 247.215 287.246 246.72 280.909C246.224 274.389 245.492 267.88 245.492 261.328C245.371 260.679 245.493 260.007 245.836 259.442C246.108 259.193 246.431 259.006 246.783 258.896C247.135 258.786 247.507 258.756 247.872 258.807C252.547 258.807 261.078 256.112 264.719 259.087C269.512 262.999 261.843 280.198 261.078 285.176C259.796 293.485 263.405 295.953 264.471 304.154C264.611 305.318 264.73 306.395 264.826 307.473Z" fill="#F5BD8D"/>
<path d="M241.291 261.404C241.181 262.666 241.496 263.929 242.185 264.992C242.902 265.733 243.819 266.25 244.824 266.479C249.951 268.074 255.358 268.408 260.712 268.742C262.349 268.839 264.159 268.883 265.419 267.848C266.2 267.089 266.781 266.149 267.11 265.111L273.056 250.552C272.611 255.69 272.478 260.851 272.657 266.005C272.571 267.11 272.897 268.209 273.573 269.087C274.438 269.755 275.521 270.077 276.61 269.992C284.862 270.303 293.124 269.703 301.245 268.204C304.39 256.597 304.476 244.323 302.914 232.404C302.3 227.76 301.385 223.029 298.918 219.042C298.315 217.952 297.458 217.024 296.419 216.337C294.864 215.591 293.14 215.267 291.421 215.399C278.948 215.27 266.281 214.979 253.883 216.746C250.016 217.296 247.991 218.503 246.644 222.285C244.704 228.246 243.351 234.381 242.605 240.605C241.616 247.492 241.176 254.447 241.291 261.404Z" fill="#2E2E3F"/>
<path d="M301.245 268.204L299.306 268.538C291.81 269.792 284.205 270.279 276.61 269.993C275.521 270.077 274.438 269.755 273.573 269.087C272.897 268.209 272.571 267.111 272.657 266.005C272.49 261.211 272.598 256.411 272.98 251.629C272.98 251.511 272.98 251.382 272.98 251.263C272.98 251.145 272.98 250.789 273.034 250.552C271.052 255.39 269.081 260.251 267.099 265.089C266.77 266.127 266.189 267.068 265.408 267.826C264.148 268.904 262.338 268.818 260.701 268.721H259.958C254.852 268.398 249.714 268.02 244.878 266.501C243.871 266.276 242.953 265.758 242.239 265.014C241.55 263.951 241.235 262.688 241.345 261.425C241.227 254.451 241.667 247.478 242.659 240.573C243.404 234.379 244.749 228.272 246.677 222.339C248.023 218.557 250.048 217.35 253.915 216.8C266.313 215.033 278.98 215.324 291.453 215.453C293.009 215.363 294.566 215.606 296.02 216.164C296.17 216.229 296.314 216.304 296.451 216.391C297.49 217.077 298.347 218.005 298.95 219.095C301.417 223.083 302.333 227.814 302.946 232.458C304.498 244.323 304.39 256.597 301.245 268.204Z" fill="url(#paint2_linear_108_2)"/>
<path d="M301.245 268.204L299.306 268.538C298.844 268.299 298.394 268.036 297.959 267.751C296.893 267.162 295.995 266.308 295.353 265.272C294.882 264.223 294.654 263.081 294.685 261.932C294.329 252.319 296.161 242.534 294.211 233.148C293.511 229.764 292.11 226.682 291.109 223.449C290.193 220.464 292.24 218.686 294.642 216.983C295.065 216.668 295.516 216.39 295.988 216.153C296.137 216.218 296.281 216.294 296.419 216.38C297.458 217.067 298.315 217.995 298.918 219.085C301.385 223.072 302.3 227.803 302.914 232.447C304.498 244.323 304.39 256.597 301.245 268.204Z" fill="url(#paint3_linear_108_2)"/>
<path d="M273.045 250.573C271.063 255.412 269.092 260.272 267.11 265.111C266.781 266.149 266.2 267.089 265.419 267.848C264.159 268.926 262.349 268.839 260.712 268.742H259.968C259.69 268.593 259.426 268.416 259.182 268.214C258.269 267.442 257.619 266.405 257.322 265.246C257.025 264.088 257.095 262.865 257.523 261.748C258.051 260.674 258.717 259.674 259.505 258.774C264.202 252.75 266.765 245.39 269.264 238.17C270.608 239.726 271.633 241.531 272.28 243.482C272.974 245.778 273.234 248.183 273.045 250.573Z" fill="url(#paint4_linear_108_2)"/>
<path d="M270.621 111.342C270.571 113.287 269.804 115.144 268.467 116.558C266.485 118.347 263.48 118.239 260.992 119.241C260.678 119.345 260.394 119.522 260.162 119.758C259.978 119.976 259.849 120.235 259.785 120.513C259.466 121.811 259.568 123.177 260.076 124.414C260.836 126.265 261.991 127.927 263.461 129.284C264.931 130.642 266.68 131.66 268.586 132.27C272.416 133.47 276.474 133.754 280.434 133.1C281.748 133.023 283.029 132.655 284.183 132.022C285.407 131.089 286.38 129.867 287.016 128.466C287.786 127.186 288.301 125.77 288.534 124.295C288.641 123.553 288.551 122.795 288.276 122.098C288 121.401 287.547 120.787 286.962 120.319C286.412 119.985 285.827 119.714 285.217 119.51C284.258 119.142 283.338 118.68 282.47 118.131C281.579 117.675 280.886 116.908 280.52 115.976C280.37 115.189 280.403 114.377 280.617 113.605C281.108 110.984 281.108 108.295 280.617 105.674C280.5 104.897 280.26 104.144 279.906 103.443C279.574 102.847 279.111 102.334 278.551 101.944C277.99 101.555 277.349 101.298 276.674 101.194C276 101.09 275.311 101.142 274.66 101.345C274.008 101.548 273.412 101.897 272.916 102.365C270.374 104.682 270.923 108.346 270.621 111.342Z" fill="#F3BD8F"/>
<path d="M258.697 97.4081C258.552 99.1948 258.701 100.993 259.139 102.732C260.41 106.859 264.773 109.521 269.092 109.693C270.509 109.804 271.93 109.533 273.207 108.907C273.938 108.489 274.611 107.978 275.21 107.387C278.226 104.628 281.005 101.331 281.921 97.3435C282.234 95.8307 282.364 94.2858 282.308 92.7419C282.347 90.4682 281.952 88.208 281.145 86.0821C280.34 84.2038 279.062 82.5658 277.437 81.3272C275.812 80.0885 273.895 79.2912 271.871 79.0128C267.702 78.4847 263.792 80.5969 260.744 83.2156C259.214 84.5303 259.441 87.1166 259.247 89.0887C258.978 91.8367 258.794 94.6278 258.697 97.4081Z" fill="#F3BD8F"/>
<path d="M259.215 74.4219C258.051 76.4156 257.265 78.7325 255.466 80.1658C254.723 80.7477 253.85 81.168 253.161 81.8038C252.274 82.7395 251.757 83.9652 251.706 85.2535C251.654 86.5418 252.072 87.8049 252.881 88.8085C253.731 89.7787 254.834 90.4938 256.066 90.8743C257.298 91.2549 258.612 91.2858 259.861 90.9637C262.363 90.265 264.502 88.6337 265.839 86.4053C266.733 85.0044 267.53 83.3017 269.07 82.7844C269.753 82.6293 270.463 82.6372 271.142 82.8075C271.822 82.9779 272.451 83.306 272.98 83.7651C274.111 84.5841 275.059 85.6618 276.212 86.3945C276.9 86.7478 277.559 87.155 278.183 87.6123C280.036 89.218 279.756 92.1168 279.325 94.5307C280.1 94.7678 280.251 93.3777 280.93 92.9358C281.608 92.494 282.395 93.1406 282.513 93.8626C282.553 94.5925 282.344 95.3143 281.921 95.9101C280.154 99.003 278.064 102.042 277.472 105.544C277.352 106.011 277.375 106.502 277.537 106.956C277.893 107.495 278.439 107.88 279.066 108.034C280.144 108.501 281.306 108.739 282.481 108.734C283.068 108.725 283.644 108.576 284.163 108.301C284.682 108.025 285.128 107.631 285.464 107.15C285.797 106.526 285.999 105.84 286.057 105.135C286.203 102.798 286.52 100.475 287.005 98.184C288.308 93.6794 292.175 89.7568 291.604 85.1122C291.186 83.0128 290.306 81.0326 289.03 79.3144C288.284 78.0089 287.372 76.8062 286.315 75.7367C285.277 74.847 284.134 74.0871 282.912 73.4736C280.389 71.9687 277.628 70.908 274.747 70.3377C271.332 69.8204 268.284 70.9304 264.945 71.092C262.317 71.2106 260.679 71.8464 259.215 74.4219Z" fill="#2E2E3F"/>
<path d="M298.282 220.022C296.352 221.365 294.142 222.253 291.82 222.619C279.433 225.367 266.593 225.345 254.217 222.555C251.631 221.962 248.755 221.014 247.635 218.6C247.133 217.274 246.945 215.85 247.086 214.44C247.38 201.12 247.675 187.797 247.969 174.47C248.303 159.329 248.637 144.135 250.856 129.155C251.51 126.06 252.737 123.113 254.475 120.47C255.918 118.498 262.457 119.554 267.918 116.019C269.415 115.049 266.162 120.06 271.052 122.129C276.126 124.284 281.824 114.187 284.904 118.239C286.639 120.502 292.154 118.821 293.899 121.073C295.299 122.884 296.161 126.709 296.71 131.321C297.873 141.117 297.582 154.415 297.787 159.254C298.703 176.184 297.281 197.78 302.871 211.757C304.153 214.796 300.803 218.029 298.282 220.022Z" fill="#CFBDB1"/>
<path d="M298.282 220.022C296.352 221.365 294.142 222.253 291.82 222.619C288.727 223.305 285.598 223.819 282.448 224.16L281.565 224.042C283.87 216.498 283.978 208.567 283.913 200.722C283.913 196.411 283.784 192.047 283.698 187.715C283.644 184.977 283.547 182.1 282.136 179.762C280.725 177.423 277.515 175.936 275.167 177.348C279.206 174.912 282.513 164.61 284.172 160.386C286.558 154.266 288.228 147.89 289.148 141.387C289.773 136.925 289.536 129.08 296.365 131.192L296.742 131.322C297.905 141.117 297.615 154.415 297.819 159.254C298.735 176.184 297.313 197.78 302.903 211.757C304.153 214.796 300.803 218.029 298.282 220.022Z" fill="url(#paint5_linear_108_2)"/>
<path d="M259.688 341.203C260.078 341.236 260.441 341.417 260.701 341.709C260.865 342.043 260.929 342.418 260.884 342.787C260.884 344.942 262.252 346.893 262.177 349.027C262.123 350.934 260.938 352.723 261.1 354.63C261.1 355.008 261.196 355.449 260.927 355.708C260.752 355.852 260.539 355.942 260.313 355.967C254.906 357.001 249.474 357.903 244.016 358.672C243.009 358.94 241.938 358.824 241.011 358.348C240.591 358.028 240.261 357.605 240.052 357.12C238.576 354.113 239.891 350.428 241.894 347.744C246.795 341.138 251.524 339.554 259.688 341.203Z" fill="#2E2E3F"/>
<path d="M327.753 340.362C327.373 342.08 326.396 343.608 324.996 344.673C321.528 347.878 317.562 350.499 313.255 352.432C312.387 352.919 311.391 353.13 310.4 353.036C309.649 352.818 308.99 352.36 308.525 351.731C308.06 351.102 307.814 350.337 307.826 349.555C307.879 347.99 308.284 346.458 309.011 345.072C311.09 340.266 312.533 333.218 318.08 331.31C322.928 329.683 328.27 335.578 327.753 340.362Z" fill="#2E2E3F"/>
<path d="M259.688 341.203C260.078 341.236 260.441 341.417 260.701 341.709C260.865 342.043 260.929 342.418 260.884 342.787C260.884 344.942 262.252 346.893 262.177 349.027C262.123 350.934 260.938 352.723 261.1 354.63C261.1 355.008 261.196 355.449 260.927 355.708C260.752 355.852 260.539 355.942 260.313 355.967C254.906 357.001 249.474 357.903 244.016 358.672C243.009 358.94 241.938 358.824 241.011 358.348C240.591 358.028 240.261 357.605 240.052 357.12C238.576 354.113 239.891 350.428 241.894 347.744C246.795 341.138 251.524 339.554 259.688 341.203Z" fill="url(#paint6_linear_108_2)"/>
<path d="M324.996 344.695C321.528 347.9 317.563 350.52 313.255 352.454C312.387 352.941 311.391 353.151 310.4 353.057" fill="url(#paint7_linear_108_2)"/>
<path d="M287.716 159.836C287.902 161.186 287.758 162.562 287.296 163.845C286.52 165.623 284.721 166.7 282.987 167.66L244.781 189.288C242.993 190.301 241.075 191.443 240.311 193.361C238.63 197.672 243.897 201.541 248.475 201.885C253.269 202.241 257.987 200.808 262.532 199.224C276.891 194.27 290.76 187.993 303.959 180.473C305.59 179.866 306.957 178.708 307.823 177.198C308.689 175.688 308.999 173.922 308.698 172.207C308.736 161.656 307.929 151.119 306.286 140.697C305.392 134.996 304.131 129.037 300.286 124.715C294.599 118.25 284.215 118.056 283.321 127.528C282.33 138.283 286.994 149.253 287.716 159.836Z" fill="#CFBDB1"/>
<path d="M287.716 159.836C287.902 161.186 287.758 162.562 287.296 163.845C286.52 165.623 284.721 166.7 282.987 167.66L244.781 189.288C242.993 190.301 241.075 191.443 240.311 193.361C238.63 197.672 243.897 201.541 248.475 201.885C253.269 202.241 257.987 200.808 262.532 199.224C276.891 194.27 290.76 187.993 303.959 180.473C305.59 179.866 306.957 178.708 307.823 177.198C308.689 175.688 308.999 173.922 308.698 172.207C308.736 161.656 307.929 151.119 306.286 140.697C305.392 134.996 304.131 129.037 300.286 124.715C294.599 118.25 284.215 118.056 283.321 127.528C282.33 138.283 286.994 149.253 287.716 159.836Z" fill="url(#paint8_linear_108_2)"/>
<path d="M235.399 192.876C232.642 192.868 229.986 193.908 227.967 195.786C226.983 196.745 226.32 197.985 226.069 199.335C225.818 200.686 225.992 202.082 226.566 203.33C226.975 204.166 227.688 204.813 228.559 205.14C229.328 205.352 230.143 205.326 230.896 205.065C233.051 204.407 234.828 202.737 236.939 201.832C237.45 201.58 238.033 201.516 238.587 201.648C238.943 201.829 239.282 202.042 239.6 202.284C240.043 202.527 240.537 202.662 241.042 202.679C241.547 202.696 242.049 202.594 242.508 202.381C243.421 201.939 244.19 201.248 244.727 200.388C245.507 199.307 245.887 197.989 245.804 196.659C245.589 194.611 244.404 193.954 242.637 193.749C240.214 193.491 237.887 192.79 235.399 192.876Z" fill="#F3BD8F"/>
<path d="M199.907 186.227C198.889 187.478 198.19 188.957 197.871 190.538C197.702 191.286 197.728 192.066 197.947 192.801C198.258 193.517 198.776 194.123 199.434 194.541C200.093 194.96 200.861 195.172 201.641 195.15C203.204 195.084 204.722 194.613 206.047 193.782C208.508 192.362 210.859 190.759 213.08 188.986C213.541 188.672 213.951 188.291 214.298 187.855C214.71 187.181 214.881 186.386 214.781 185.603C214.681 184.819 214.317 184.093 213.748 183.544C210.108 179.891 202.643 182.833 199.907 186.227Z" fill="#F3BD8F"/>
<path d="M165.374 310.706H74.5922L39.3588 214.688H192.701L165.374 310.706ZM78.3514 305.318H161.291L185.559 220.055H47.0712L78.3514 305.318Z" fill="#CFBDB1"/>
<path d="M201.2 310.706H110.407L75.1846 214.688H231.155L201.2 310.706ZM114.188 305.318H197.128L221.396 220.055H82.9508L114.188 305.318Z" fill="#CFBDB1"/>
<path d="M201.738 310.76H158.739L177.998 242.814L193.897 193.469L237.262 194.051L201.738 310.76ZM165.859 305.371H197.753L230.067 199.342L197.839 198.911L183.125 244.377L165.859 305.371Z" fill="#CFBDB1"/>
<path d="M201.652 337.593H96.3936V332.205H196.266V308.033H201.652V337.593Z" fill="#CFBDB1"/>
<path d="M166.419 337.593H80.7211V332.205H161.033V308.033H166.419V337.593Z" fill="#CFBDB1"/>
<path d="M184.288 350.977C182.48 350.977 180.712 350.441 179.208 349.435C177.704 348.43 176.532 347.001 175.84 345.329C175.147 343.658 174.966 341.818 175.319 340.043C175.672 338.268 176.543 336.638 177.822 335.359C179.101 334.079 180.73 333.208 182.504 332.855C184.278 332.502 186.117 332.683 187.788 333.375C189.459 334.068 190.887 335.24 191.892 336.745C192.897 338.25 193.433 340.019 193.433 341.828C193.433 344.255 192.47 346.582 190.755 348.298C189.04 350.013 186.714 350.977 184.288 350.977ZM184.288 338.046C183.545 338.046 182.818 338.266 182.2 338.679C181.582 339.093 181.1 339.68 180.815 340.367C180.531 341.055 180.456 341.811 180.601 342.54C180.746 343.27 181.105 343.94 181.63 344.466C182.156 344.992 182.826 345.35 183.555 345.495C184.284 345.64 185.04 345.566 185.727 345.281C186.414 344.997 187.001 344.515 187.414 343.896C187.827 343.278 188.048 342.55 188.048 341.807C188.042 340.813 187.643 339.862 186.939 339.161C186.235 338.46 185.282 338.067 184.288 338.067V338.046Z" fill="#2E2E3F"/>
<path d="M118.96 350.977C117.305 350.971 115.684 350.516 114.268 349.659C112.852 348.803 111.695 347.578 110.921 346.115C110.147 344.653 109.785 343.007 109.872 341.354C109.96 339.701 110.495 338.103 111.42 336.731C112.301 335.417 113.507 334.354 114.922 333.646C116.336 332.938 117.91 332.609 119.489 332.691C121.068 332.774 122.599 333.264 123.933 334.115C125.266 334.966 126.356 336.149 127.096 337.547C127.836 338.945 128.201 340.512 128.155 342.093C128.109 343.675 127.654 345.217 126.835 346.57C126.015 347.923 124.858 349.041 123.478 349.813C122.098 350.586 120.541 350.987 118.96 350.977ZM115.847 339.737C115.432 340.355 115.209 341.081 115.207 341.826C115.204 342.57 115.423 343.298 115.834 343.917C116.246 344.537 116.831 345.021 117.518 345.308C118.204 345.594 118.96 345.671 119.69 345.527C120.42 345.384 121.091 345.028 121.618 344.503C122.145 343.978 122.504 343.308 122.651 342.579C122.798 341.849 122.725 341.093 122.442 340.405C122.159 339.717 121.678 339.128 121.06 338.714C120.232 338.161 119.219 337.959 118.243 338.151C117.266 338.343 116.405 338.913 115.847 339.737Z" fill="#2E2E3F"/>
<path d="M221.655 233.935H51.412V237.997H221.655V233.935Z" fill="#CFBDB1"/>
<path d="M217.206 247.588H55.0528V251.651H217.206V247.588Z" fill="#CFBDB1"/>
<path d="M212.757 261.242H60.3093V265.305H212.757V261.242Z" fill="#CFBDB1"/>
<path d="M208.309 274.896H65.5657V278.958H208.309V274.896Z" fill="#CFBDB1"/>
<path d="M203.86 288.549H70.8221V292.612H203.86V288.549Z" fill="#CFBDB1"/>
<path d="M62.207 216.265L58.3921 217.657L91.1396 307.476L94.9546 306.084L62.207 216.265Z" fill="#CFBDB1"/>
<path d="M109.565 216.379L105.669 217.527L131.751 306.129L135.647 304.981L109.565 216.379Z" fill="#CFBDB1"/>
<path d="M149.382 215.676L145.323 215.812L148.353 306.229L152.411 306.093L149.382 215.676Z" fill="#CFBDB1"/>
<path d="M196.049 218.165L168.771 306.766L172.652 307.962L199.93 219.361L196.049 218.165Z" fill="#CFBDB1"/>
</g>
<defs>
<linearGradient id="paint0_linear_108_2" x1="213.285" y1="310.447" x2="210.256" y2="416.638" gradientUnits="userSpaceOnUse">
<stop offset="0.01"/>
<stop offset="0.13" stop-opacity="0.69"/>
<stop offset="1" stop-opacity="0"/>
</linearGradient>
<linearGradient id="paint1_linear_108_2" x1="248.152" y1="178.942" x2="239.055" y2="163.471" gradientUnits="userSpaceOnUse">
<stop offset="0.01"/>
<stop offset="0.13" stop-opacity="0.69"/>
<stop offset="1" stop-opacity="0"/>
</linearGradient>
<linearGradient id="paint2_linear_108_2" x1="287.5" y1="215.345" x2="261.198" y2="273.184" gradientUnits="userSpaceOnUse">
<stop offset="0.01"/>
<stop offset="0.13" stop-opacity="0.69"/>
<stop offset="1" stop-opacity="0"/>
</linearGradient>
<linearGradient id="paint3_linear_108_2" x1="290.883" y1="242.319" x2="303.916" y2="242.319" gradientUnits="userSpaceOnUse">
<stop offset="0.01"/>
<stop offset="0.13" stop-opacity="0.69"/>
<stop offset="1" stop-opacity="0"/>
</linearGradient>
<linearGradient id="paint4_linear_108_2" x1="259.559" y1="248.978" x2="285.68" y2="272.2" gradientUnits="userSpaceOnUse">
<stop offset="0.01"/>
<stop offset="0.13" stop-opacity="0.69"/>
<stop offset="1" stop-opacity="0"/>
</linearGradient>
<linearGradient id="paint5_linear_108_2" x1="344.643" y1="180.667" x2="222.397" y2="173.787" gradientUnits="userSpaceOnUse">
<stop offset="0.01"/>
<stop offset="0.13" stop-opacity="0.69"/>
<stop offset="1" stop-opacity="0"/>
</linearGradient>
<linearGradient id="paint6_linear_108_2" x1="239.417" y1="349.673" x2="262.187" y2="349.673" gradientUnits="userSpaceOnUse">
<stop offset="0.01"/>
<stop offset="0.13" stop-opacity="0.69"/>
<stop offset="1" stop-opacity="0"/>
</linearGradient>
<linearGradient id="paint7_linear_108_2" x1="310.4" y1="348.897" x2="324.996" y2="348.897" gradientUnits="userSpaceOnUse">
<stop offset="0.01"/>
<stop offset="0.13" stop-opacity="0.69"/>
<stop offset="1" stop-opacity="0"/>
</linearGradient>
<linearGradient id="paint8_linear_108_2" x1="291.087" y1="200.388" x2="271.965" y2="163.378" gradientUnits="userSpaceOnUse">
<stop offset="0.01"/>
<stop offset="0.13" stop-opacity="0.69"/>
<stop offset="1" stop-opacity="0"/>
</linearGradient>
<clipPath id="clip0_108_2">
<rect width="414" height="415" fill="white"/>
</clipPath>
</defs>
</svg>
