<svg width="29" height="26" viewBox="0 0 29 26" fill="none" xmlns="http://www.w3.org/2000/svg">
<path d="M0.644532 0.866394C0.288425 0.866394 0 1.15346 0 1.50737C0 1.86151 0.288661 2.14834 0.644532 2.14834H4.72357C6.37102 6.19948 7.98744 10.2585 9.61848 14.3176L8.10772 17.9234C7.94226 18.3115 8.27791 18.8155 8.7019 18.8148H24.8166C25.1572 18.8197 25.4704 18.5125 25.4704 18.1738C25.4704 17.8351 25.1572 17.5279 24.8166 17.5328H9.66878L10.7564 14.9286L26.4786 13.6766C26.7475 13.6545 26.9903 13.4468 27.0528 13.1859L28.9867 4.8525C29.0705 4.48047 28.7457 4.07399 28.3621 4.07136H6.87947L5.75132 1.26685C5.65623 1.03278 5.41095 0.86755 5.15715 0.866211L0.644532 0.866394ZM7.39257 5.35349H27.5561L25.9044 12.4449L10.7364 13.6468L7.39257 5.35349ZM11.9248 20.0972C10.3305 20.0972 9.02431 21.3963 9.02431 22.9817C9.02431 24.5673 10.3307 25.8662 11.9248 25.8662C13.5192 25.8662 14.8254 24.567 14.8254 22.9817C14.8254 21.3961 13.519 20.0972 11.9248 20.0972ZM21.5937 20.0972C19.9993 20.0972 18.6931 21.3963 18.6931 22.9817C18.6931 24.5673 19.9995 25.8662 21.5937 25.8662C23.1881 25.8662 24.4942 24.567 24.4942 22.9817C24.4942 21.3961 23.1878 20.0972 21.5937 20.0972ZM11.9248 21.3791C12.8225 21.3791 13.5363 22.0889 13.5363 22.9817C13.5363 23.8744 12.8225 24.5843 11.9248 24.5843C11.0271 24.5843 10.3134 23.8744 10.3134 22.9817C10.3134 22.0889 11.0271 21.3791 11.9248 21.3791ZM21.5937 21.3791C22.4914 21.3791 23.2052 22.0889 23.2052 22.9817C23.2052 23.8744 22.4914 24.5843 21.5937 24.5843C20.696 24.5843 19.9822 23.8744 19.9822 22.9817C19.9822 22.0889 20.696 21.3791 21.5937 21.3791Z" fill="black"/>
</svg>
