<svg width="29" height="36" viewBox="0 0 29 36" fill="none" xmlns="http://www.w3.org/2000/svg">
<path d="M28.5503 30.483C28.3664 30.138 28.0356 29.908 27.6313 29.908L25.021 29.9077V28.3356C25.8665 28.1438 26.4914 27.377 26.4914 26.4567V24.156C26.4914 23.0824 25.6826 22.2389 24.6533 22.2389L18.7716 22.2391V20.667C19.617 20.4753 20.2419 19.7084 20.2419 18.7882V16.4874C20.2419 16.1807 20.1683 15.9124 20.058 15.6439L28.2191 8.35875C28.3661 8.20549 28.403 7.97521 28.2558 7.82196L26.4177 5.52125C26.3441 5.44449 26.2708 5.40624 26.1603 5.36799C26.05 5.36799 25.9397 5.40624 25.8661 5.483L18.9923 12.4614L26.7491 2.56894C26.8593 2.41568 26.8593 2.14715 26.7124 2.03215L24.5066 0.115008C24.4332 0.038514 24.323 0 24.2494 0C24.1391 0 24.0655 0.0767611 23.9919 0.153255L14.1765 14.5702H10.3165C9.28717 14.5702 8.47841 15.4137 8.47841 16.4873V18.788C8.47841 19.7083 9.10332 20.4752 9.94875 20.6669L9.949 22.2388H4.067C3.03767 22.2388 2.22892 23.0823 2.22892 24.1559V26.4566C2.22892 27.3769 2.85383 28.1438 3.69925 28.3355L3.69951 29.9073H1.05267C0.684944 29.9073 0.317498 30.0991 0.133624 30.4824C-0.0502368 30.8274 -0.0502366 31.2492 0.170293 31.5942C0.94242 32.8978 2.26584 33.7031 3.73618 33.7413C3.92004 34.6231 4.65522 35.2749 5.53757 35.2749H23.1832C24.0655 35.2749 24.8008 34.6231 24.9846 33.7413C26.4549 33.7031 27.7784 32.8978 28.5504 31.5942C28.7341 31.2494 28.7341 30.8277 28.5502 30.4827L28.5503 30.483ZM12.5222 29.9077V28.3356C13.3677 28.1438 13.9925 27.377 13.9925 26.4567V24.156C13.9925 23.7342 13.8456 23.3125 13.6248 23.0057L15.0954 23.0059C14.8749 23.3127 14.7277 23.7345 14.7277 24.1563V26.457C14.7277 27.3773 15.3526 28.1442 16.198 28.3359L16.1983 29.9077L12.5222 29.9077ZM16.9335 24.9231C16.9335 24.6931 17.0805 24.5396 17.3013 24.5396H23.9184C24.1389 24.5396 24.2861 24.6928 24.2861 24.9231V29.9077H16.9337L16.9335 24.9231ZM25.7563 24.1563V26.457C25.7563 26.9556 25.4622 27.3773 25.0212 27.5306L25.0209 24.9232C25.0209 24.2714 24.5429 23.7728 23.918 23.7728L17.3009 23.7731C16.676 23.7731 16.198 24.2716 16.198 24.9234V27.5306C15.7569 27.3774 15.4628 26.9556 15.4628 26.457V24.1563C15.4628 23.5045 15.9408 23.0059 16.5657 23.0059H24.6533C25.2782 23.0059 25.7562 23.5045 25.7562 24.1563L25.7563 24.1563ZM19.5067 16.4877V18.7884C19.5067 19.287 19.2125 19.7087 18.7715 19.862V17.2546C18.7715 17.1013 18.7348 16.986 18.6979 16.8328L19.47 16.1428C19.5067 16.2578 19.5067 16.3728 19.5067 16.4878L19.5067 16.4877ZM26.087 6.32685L27.4471 8.01401L17.9994 16.4494L12.8895 21.0505C12.7056 21.2038 12.4484 21.2038 12.3012 21.0123C12.2276 20.9355 12.191 20.8205 12.191 20.7055C12.191 20.5905 12.2276 20.4755 12.3379 20.3987L26.087 6.32685ZM16.5657 18.7883V20.3219C16.5657 20.5519 16.4188 20.7054 16.198 20.7054H15.8303V19.5551C15.8303 19.5168 15.8303 19.4783 15.7936 19.44L16.5657 18.75V18.7883L16.5657 18.7883ZM14.3599 20.7054L15.0951 20.0536V20.7054H14.3599ZM12.1541 19.4401V18.7883C12.1541 18.5583 12.301 18.4048 12.5218 18.4048H13.1467L12.1541 19.4401ZM24.3589 0.958846L25.9765 2.37747L16.3817 14.5705H15.0583L24.3589 0.958846ZM9.21312 18.7883V16.4876C9.21312 15.8358 9.6911 15.3372 10.316 15.3372H16.1613L15.4262 16.104L11.0512 16.1043C10.4263 16.1043 9.94829 16.6028 9.94829 17.2546V19.8618C9.50697 19.7083 9.21312 19.2865 9.21312 18.7882V18.7883ZM10.6835 17.2544C10.6835 17.0244 10.8304 16.8709 11.0512 16.8709H14.6538L13.8816 17.6377L12.5215 17.638C11.8966 17.638 11.4186 18.1365 11.4186 18.7883V20.3219V20.3987C11.3819 20.5137 11.3819 20.5904 11.3819 20.7054C11.3819 21.0505 11.4922 21.3572 11.7127 21.5873C11.9333 21.8173 12.2274 21.9323 12.5582 21.9323C12.8156 21.9323 13.1095 21.8173 13.3303 21.6255L13.5508 21.4337H13.6244H16.1977C16.8226 21.4337 17.3006 20.9352 17.3006 20.2834V18.7498C17.3006 18.558 17.227 18.3663 17.1537 18.1748L18.036 17.3694L18.0358 22.239H10.6834L10.6835 17.2544ZM2.96351 26.4567V24.156C2.96351 23.5042 3.44149 23.0057 4.06642 23.0057H12.154C12.7789 23.0057 13.2569 23.5042 13.2569 24.156V26.4567C13.2569 26.9553 12.9628 27.377 12.5217 27.5303V24.9229C12.5217 24.2711 12.0438 23.7725 11.4188 23.7725L4.80172 23.7728C4.17681 23.7728 3.69881 24.2713 3.69881 24.9232V27.5303C3.25774 27.3768 2.96364 26.955 2.96364 26.4567L2.96351 26.4567ZM4.4341 24.9229C4.4341 24.6929 4.58104 24.5393 4.80183 24.5393H11.4189C11.6395 24.5393 11.7867 24.6926 11.7867 24.9229V29.9075H4.43431L4.4341 24.9229ZM23.1826 34.5086H5.53695C5.05897 34.5086 4.65461 34.2018 4.50763 33.7418H24.2487C24.0648 34.2021 23.6604 34.5086 23.1824 34.5086H23.1826ZM27.925 31.1728C27.2634 32.2847 26.1236 32.975 24.8737 32.975H3.88281C2.63298 32.975 1.49343 32.2849 0.83159 31.1728C0.757995 31.0578 0.757995 30.9428 0.83159 30.8278C0.868259 30.7896 0.941856 30.6746 1.08905 30.6746L4.06668 30.6743H27.6677C27.8146 30.6743 27.8882 30.7893 27.9251 30.8276C27.9618 30.9428 27.9618 31.0578 27.9251 31.1728L27.925 31.1728Z" fill="black"/>
<path d="M9.94876 25.3066H6.27259C5.64768 25.3066 5.16968 25.8052 5.16968 26.457V27.9906C5.16968 28.6424 5.64766 29.1409 6.27259 29.1409H9.94876C10.5737 29.1409 11.0517 28.6424 11.0517 27.9906V26.457C11.0517 25.8052 10.5737 25.3066 9.94876 25.3066ZM10.3162 26.457V26.8405H7.37523V26.0737H9.94848C10.1693 26.0735 10.3162 26.227 10.3162 26.457L10.3162 26.457ZM7.37549 27.6074H8.47841V28.3741H7.37549V27.6074ZM5.90489 27.9906V26.457C5.90489 26.227 6.05183 26.0735 6.27261 26.0735H6.64034V28.3742H6.27261C6.05208 28.3742 5.90489 28.2207 5.90489 27.9907V27.9906ZM9.94881 28.3742H9.21364V27.6074H10.3166V27.9909C10.3163 28.2207 10.1694 28.3742 9.94883 28.3742L9.94881 28.3742Z" fill="black"/>
<path d="M22.4478 25.3066H18.7716C18.1467 25.3066 17.6687 25.8052 17.6687 26.457V27.9906C17.6687 28.6424 18.1467 29.1409 18.7716 29.1409H22.4478C23.0727 29.1409 23.5507 28.6424 23.5507 27.9906V26.457C23.5507 25.8052 23.0727 25.3066 22.4478 25.3066ZM22.8155 26.457V26.8405H19.8745V26.0737H22.4478C22.6683 26.0735 22.8155 26.227 22.8155 26.457L22.8155 26.457ZM19.8745 27.6074H20.9774V28.3741H19.8745V27.6074ZM18.4042 27.9906V26.457C18.4042 26.227 18.5511 26.0735 18.7719 26.0735H19.1396V28.3742H18.7719C18.5511 28.3742 18.4042 28.2207 18.4042 27.9907V27.9906ZM22.4478 28.3742H21.7127V27.6074H22.8156V27.9909C22.8156 28.2207 22.6684 28.3742 22.4479 28.3742L22.4478 28.3742Z" fill="black"/>
</svg>
