<svg width="38" height="38" viewBox="0 0 38 38" fill="none" xmlns="http://www.w3.org/2000/svg">
<path d="M37.5 18.8306C37.5 18.4726 37.2613 18.2339 36.9032 18.2339H35.7097V17.7565C35.7097 12.5049 31.4129 8.20816 26.1613 8.20816C25.1468 8.20816 24.1919 8.38719 23.2371 8.68557C22.879 6.65656 21.8645 4.80658 20.4323 3.31465C18.5226 1.40499 15.9565 0.330811 13.271 0.330811C12.9129 0.330811 12.6742 0.569518 12.6742 0.927579V8.62624C12.1371 8.02947 11.4806 7.67141 10.7645 7.67141C8.79516 7.55205 7.18387 9.87945 6.64677 10.7149C4.67742 11.073 3.24516 11.9681 2.40968 13.4004C1.45484 15.131 1.69355 17.16 1.93226 18.2342H1.09677C0.73871 18.2342 0.5 18.4729 0.5 18.831C0.5 24.2019 2.76774 29.1554 6.70645 32.676C6.5871 32.7954 6.46774 32.9744 6.46774 33.1534V36.734C6.46774 37.0921 6.70645 37.3308 7.06452 37.3308H30.9355C31.2935 37.3308 31.5323 37.0921 31.5323 36.734V33.1534C31.5323 32.9744 31.4129 32.7954 31.2935 32.676C31.5919 32.4373 31.8306 32.1986 32.129 31.9002C35.5903 28.439 37.5 23.7842 37.5 18.8313V18.8306ZM34.5161 17.7565V18.2339H33.3226V17.7565C33.3226 13.8178 30.1 10.5952 26.1613 10.5952C24.8484 10.5952 23.5952 10.9533 22.521 11.6097C20.3726 12.863 19 15.25 19 17.7565V18.2339H17.8065V17.7565V17.1C17.8661 16.5032 17.9855 15.9662 18.1048 15.3694C18.1048 15.3097 18.1645 15.1904 18.1645 15.1307C18.821 13.042 20.3129 11.2517 22.3419 10.2372C22.521 10.1178 22.7 10.0581 22.9387 9.99846C23.9532 9.58073 25.0274 9.34202 26.1016 9.34202C30.7565 9.40169 34.5165 13.1613 34.5165 17.7568L34.5161 17.7565ZM25.0871 18.2339C25.0871 18.1742 25.0274 18.1145 25.0274 18.0548V17.9952V17.7565C25.0274 17.1 25.5645 16.5629 26.221 16.5629C26.8774 16.5629 27.4145 17.1 27.4145 17.7565V17.9952V18.0548C27.4145 18.1145 27.4145 18.1742 27.3548 18.1742H25.0871V18.2339ZM28.4887 18.1742C28.4887 18.0548 28.5484 17.8758 28.5484 17.7565C28.5484 16.4436 27.4742 15.3694 26.1613 15.3694C24.8484 15.3694 23.7742 16.4436 23.7742 17.7565C23.7742 17.8758 23.7742 18.0548 23.8339 18.1742V18.2339H22.6403C22.6403 18.0548 22.5806 17.9355 22.5806 17.7565C22.5806 16.9807 22.8194 16.2645 23.2968 15.6081C23.9532 14.7129 25.0274 14.1758 26.1613 14.1758C28.1306 14.1758 29.7419 15.7871 29.7419 17.7565C29.7419 17.9355 29.7419 18.0548 29.6823 18.2339L28.4887 18.1742ZM30.9355 17.7565C30.9355 15.1307 28.7871 12.9823 26.1613 12.9823C24.6694 12.9823 23.2371 13.6984 22.3419 14.892C21.7452 15.7274 21.3871 16.6823 21.3871 17.7565V18.2339H20.1935V17.7565C20.1935 15.6678 21.3274 13.6984 23.1177 12.6242C24.0129 12.0872 25.0871 11.7888 26.1613 11.7888C29.4435 11.7888 32.129 14.4742 32.129 17.7565V18.2339H30.9355V17.7565ZM13.8677 1.52435C16.0161 1.6437 18.0452 2.59853 19.5968 4.15013C20.9694 5.5227 21.8048 7.25333 22.1032 9.10331C22.0435 9.10331 22.0435 9.16299 21.9839 9.16299C21.8645 9.22266 21.8048 9.28234 21.6855 9.34202C21.5661 9.40169 21.4468 9.46137 21.3871 9.52105C21.2677 9.58073 21.2081 9.6404 21.0887 9.70008C20.9694 9.75976 20.9097 9.81943 20.7903 9.87911C20.671 9.93879 20.6113 9.99846 20.4919 10.0581C20.3726 10.1178 20.3129 10.1775 20.1935 10.2968C20.1339 10.3565 20.0145 10.4162 19.9548 10.5356C19.8355 10.5952 19.7758 10.7146 19.7161 10.7743L19 11.4904C18.9403 11.5501 18.821 11.6694 18.7613 11.7888C18.7016 11.8484 18.6419 11.9678 18.5823 12.0275C18.5226 12.1468 18.4629 12.2065 18.4032 12.3259C18.3435 12.3855 18.2839 12.5049 18.2242 12.5646C18.1645 12.6839 18.1048 12.7436 18.0452 12.863C17.9855 12.9823 17.9258 13.042 17.8661 13.1613C17.8065 13.2807 17.7468 13.4 17.6871 13.4597C17.6274 13.5791 17.5677 13.6388 17.5677 13.7581C17.5081 13.8775 17.4484 13.9968 17.4484 14.1162C17.3887 14.2355 17.3887 14.2952 17.329 14.4146C17.2694 14.5339 17.2694 14.6533 17.2097 14.7726C17.15 14.892 17.15 14.9516 17.0903 15.071C17.0306 15.1904 17.0306 15.3097 16.971 15.4291C16.971 15.5484 16.9113 15.6081 16.9113 15.7274C16.9113 15.8468 16.8516 16.0258 16.8516 16.1452C16.8516 16.2645 16.7919 16.3242 16.7919 16.4436C16.7919 16.6226 16.7323 16.7419 16.7323 16.921V17.1597V17.8758V18.3532H13.9871V1.52435H13.8677ZM3.48387 13.9972C4.14032 12.8633 5.39355 12.0875 7.18387 11.7891C7.3629 11.7294 7.48226 11.6698 7.60161 11.4907C8.01935 10.7746 9.39194 8.80527 10.7048 8.80527H10.7645C11.6 8.86494 12.3161 9.87945 12.7339 10.7746V18.2346H11.0032V11.1927C11.0032 10.8346 10.7645 10.5959 10.4065 10.5959C10.0484 10.5959 9.80968 10.8346 9.80968 11.1927V17.5184L6.88548 14.9523C6.64677 14.7136 6.28871 14.7733 6.05 15.012C5.81129 15.2507 5.87097 15.6088 6.10968 15.8475L8.79516 18.1749H3.18548C2.94677 17.4588 2.58871 15.5491 3.48387 13.9975V13.9972ZM1.69355 19.4278H36.3065C36.1871 23.8438 34.3968 27.9612 31.2339 31.0644C30.6968 31.6015 30.1597 32.0789 29.5629 32.5563H8.4371C4.31935 29.3934 1.87258 24.619 1.69355 19.4274V19.4278ZM30.3387 36.1373H7.66129V33.7502H30.3387V36.1373Z" fill="black"/>
</svg>
