<svg width="463" height="606" viewBox="0 0 463 606" fill="none" xmlns="http://www.w3.org/2000/svg">
<path d="M453.14 396.271L404.9 405.709L438.577 372.042C441.499 369.12 441.499 364.401 438.577 361.485C435.655 358.563 430.936 358.563 428.02 361.485L394.353 395.151L403.801 346.911C404.593 342.865 401.957 338.937 397.91 338.146C393.79 337.333 389.941 340 389.145 344.037L375.437 414.067L351.145 438.359L360.592 390.119C361.384 386.072 358.749 382.15 354.702 381.354C350.598 380.562 346.733 383.208 345.936 387.244L332.228 457.28L307.952 481.556L317.4 433.322C318.192 429.275 315.556 425.353 311.509 424.556C307.41 423.759 303.541 426.41 302.744 430.447L289.036 500.477L264.744 524.759L274.192 476.519C274.983 472.472 272.348 468.55 268.301 467.753C264.186 466.956 260.332 469.607 259.535 473.644L245.827 543.68L197.191 592.278C194.27 595.2 194.27 599.919 197.191 602.836C198.644 604.294 200.556 605.028 202.467 605.028C204.379 605.028 206.29 604.299 207.749 602.841L256.374 554.216L326.41 540.508C330.457 539.716 333.103 535.789 332.301 531.742C331.509 527.7 327.629 525.044 323.535 525.851L275.295 535.299L299.576 511.018L369.607 497.315C373.654 496.524 376.3 492.596 375.498 488.55C374.706 484.508 370.826 481.857 366.732 482.659L318.503 492.096L342.779 467.82L412.809 454.127C416.862 453.335 419.502 449.413 418.71 445.367C417.919 441.32 413.986 438.664 409.95 439.466L361.695 448.903L385.977 424.622L456.013 410.919C460.06 410.127 462.705 406.2 461.903 402.153C461.107 398.117 457.206 395.466 453.138 396.268L453.14 396.271Z" fill="black"/>
<path d="M175.24 520.086H80.7136L61.6597 362.646C88.5945 356.921 107.995 336.278 107.995 311.852C107.995 283.623 81.8188 260.6 49.1762 259.519L37.4452 162.609H359.954L346.347 287.486C345.904 291.583 349.425 295.218 354.21 295.603C358.91 295.993 363.239 292.972 363.688 288.869L377.435 162.604H382.293C387.108 162.604 391 159.266 391 155.148L390.994 110.011C390.994 105.898 387.102 102.555 382.287 102.555L93.8505 102.56L15.9357 3.29597C13.2519 -0.125311 7.84195 -1.02486 3.85271 1.2682C-0.136524 3.56644 -1.20519 8.19914 1.48471 11.6152L72.8725 102.56H15.0019C10.199 102.56 6.29469 105.898 6.29469 110.016V155.148C6.29469 159.261 10.1928 162.604 15.0019 162.604H19.9384L64.2033 528.319C64.6647 532.114 68.3989 535 72.8618 535L175.24 534.995C180.043 534.995 183.947 531.662 183.947 527.539C183.941 523.415 180.043 520.082 175.24 520.082L175.24 520.086ZM23.7103 117.46H373.592V147.685H369.554C369.536 147.685 369.53 147.68 369.512 147.68H27.7906C27.7845 147.68 27.7663 147.685 27.7541 147.685H23.7162V117.46H23.7103ZM90.581 311.852C90.581 328.599 77.8482 342.851 59.8457 347.63L51.011 274.685C73.1551 276.536 90.5816 292.4 90.5816 311.852H90.581Z" fill="black"/>
</svg>
