<svg width="29" height="34" viewBox="0 0 29 34" fill="none" xmlns="http://www.w3.org/2000/svg">
<path d="M11.6803 18.5732C10.9635 15.6998 10.2468 13.7026 9.54662 12.5136H10.2809C10.4142 12.5152 10.5424 12.4628 10.6365 12.3687C10.7309 12.2746 10.7829 12.1461 10.7813 12.0131V10.0556C10.7829 9.92188 10.7309 9.7929 10.6369 9.69804C10.5428 9.60279 10.4146 9.54922 10.2809 9.54922H8.68774L7.31093 4.70168H7.31053C7.25139 4.4834 7.05335 4.33179 6.82713 4.33179H6.26395C6.03772 4.33179 5.83928 4.4834 5.78015 4.70168L4.38627 9.54922H2.79315C2.6594 9.54922 2.53081 9.6028 2.43675 9.69804C2.34269 9.7929 2.2907 9.92188 2.29228 10.0556V11.996C2.29069 12.129 2.34308 12.2576 2.43714 12.3516C2.5316 12.4457 2.6598 12.4981 2.79315 12.4965H3.58969C2.87847 13.6855 2.16726 15.6997 1.42749 18.5958C0.574992 21.9387 0.307128 25.4035 0.636501 28.8373C0.634914 28.8504 0.634914 28.8639 0.636501 28.8773C0.745642 30.1022 0.935751 31.3185 1.20564 32.5188C1.25683 32.7462 1.30803 32.9514 1.35367 33.1391V33.1387C1.41598 33.3582 1.61482 33.5106 1.84303 33.5141H11.1742C11.402 33.5106 11.6008 33.3582 11.6631 33.1387C11.7088 32.951 11.76 32.7462 11.8112 32.5184V32.5188C12.0906 31.3174 12.2902 30.099 12.4085 28.8715V28.8373C12.7541 25.3995 12.5077 21.928 11.6802 18.5735L11.6803 18.5732ZM6.55972 5.65147L7.66342 9.54882H5.43336L6.55972 5.65147ZM3.32237 10.5617H9.77451V11.5063H3.29972L3.32237 10.5617ZM10.8611 32.3299L10.8099 32.5403L2.28096 32.5407L2.22976 32.3303V32.3299C2.00592 31.3576 1.83288 30.3737 1.71222 29.3827H8.3124C8.5918 29.3827 8.81842 29.156 8.81842 28.8766C8.81842 28.5968 8.5918 28.3702 8.3124 28.3702H1.60981C1.34707 25.1785 1.61616 21.9657 2.40635 18.8625C2.57701 18.191 2.74211 17.5937 2.90126 17.0531H7.3618C7.6416 17.0531 7.86822 16.8264 7.86822 16.5466C7.86822 16.2672 7.6416 16.0402 7.3618 16.0402H3.2084C3.87398 13.9804 4.41452 12.985 4.81301 12.5183H8.32346C8.72193 12.9791 9.26804 13.9748 9.92806 16.0402H9.13707C8.85766 16.0402 8.63064 16.2672 8.63064 16.5466C8.63064 16.8264 8.85766 17.0531 9.13707 17.0531H10.2468C10.4004 17.5821 10.5595 18.1909 10.7191 18.8168C11.4969 21.9379 11.7565 25.1649 11.487 28.3701H9.87135C9.59154 28.3701 9.36492 28.5967 9.36492 28.8765C9.36492 29.1559 9.59154 29.3826 9.87135 29.3826H11.3847C11.2621 30.3736 11.0874 31.3575 10.8612 32.3298L10.8611 32.3299Z" fill="black"/>
<path d="M27.4641 10.1463H25.6659V6.94311C25.6659 6.79229 25.6059 6.64743 25.4992 6.54107C25.3928 6.43431 25.2479 6.37438 25.0971 6.37438H23.6176L22.6389 1.08315L22.6393 1.08275C22.5889 0.808903 22.3484 0.611652 22.0702 0.616418H20.2949C20.0166 0.611655 19.7761 0.808903 19.7261 1.08275L18.7815 6.37439H17.2738C16.9594 6.37439 16.7046 6.62879 16.7046 6.94313V10.1463H14.9068C14.5924 10.1463 14.3376 10.4011 14.3376 10.7155V33.0476C14.3376 33.1984 14.3976 33.3433 14.5043 33.45C14.6111 33.5564 14.756 33.6163 14.9068 33.6163H27.4638C27.6146 33.6163 27.759 33.5564 27.8658 33.45C27.9726 33.3433 28.0325 33.1984 28.0325 33.0476V10.7155C28.0325 10.5647 27.9726 10.4198 27.8658 10.313C27.759 10.2063 27.6146 10.1463 27.4638 10.1463L27.4641 10.1463ZM15.4761 20.3482L26.8951 15.8304V20.8887L15.4761 25.412V20.3482ZM20.7673 1.75399H21.6266L22.4799 6.37414H19.9196L20.7673 1.75399ZM17.8427 7.51198H24.5282V10.1465L17.8427 10.1461V7.51198ZM17.2736 11.2844H26.8952V14.6071L15.4761 19.1248V11.2844H17.2736ZM15.4761 32.4786V26.6352L26.8952 22.0833V32.4783L15.4761 32.4786Z" fill="black"/>
</svg>
