<svg width="40" height="37" viewBox="0 0 40 37" fill="none" xmlns="http://www.w3.org/2000/svg">
<path d="M38.0256 1.28238H2.02602C1.85726 1.28238 1.72095 1.1458 1.72095 0.97731C1.72095 0.808553 1.85753 0.672241 2.02602 0.672241H38.0256C38.1943 0.672241 38.3307 0.808553 38.3307 0.97731C38.3307 1.1458 38.1943 1.28238 38.0256 1.28238Z" fill="black"/>
<path d="M17.2981 7.38394C17.1298 7.38394 16.99 7.24736 16.99 7.07887C16.99 6.91012 17.1233 6.7738 17.2921 6.7738H17.2981C17.4668 6.7738 17.6031 6.91039 17.6031 7.07887C17.6031 7.24736 17.4668 7.38394 17.2981 7.38394H17.2981Z" fill="black"/>
<path d="M10.568 8.60458C9.72697 8.60458 9.04272 7.92056 9.04272 7.07927C9.04272 6.23798 9.72702 5.55396 10.568 5.55396C11.4091 5.55396 12.0933 6.23798 12.0933 7.07927C12.0936 7.92061 11.4091 8.60458 10.568 8.60458ZM10.568 6.16401C10.0634 6.16401 9.65285 6.57458 9.65285 7.0792C9.65285 7.58381 10.0634 7.99438 10.568 7.99438C11.0726 7.99438 11.4832 7.58381 11.4832 7.0792C11.4835 6.57456 11.0726 6.16401 10.568 6.16401Z" fill="black"/>
<path d="M11.7879 9.82456H9.34733C8.50627 9.82456 7.82202 9.14054 7.82202 8.29925V5.85868C7.82202 5.01734 8.50631 4.33337 9.34733 4.33337H11.7879C12.629 4.33337 13.3132 5.01739 13.3132 5.85868V8.29925C13.3135 9.1406 12.6292 9.82456 11.7879 9.82456ZM9.34733 4.94343C8.8427 4.94343 8.43215 5.354 8.43215 5.85861V8.29918C8.43215 8.80381 8.84272 9.21437 9.34733 9.21437H11.7879C12.2925 9.21437 12.7031 8.80379 12.7031 8.29918L12.7034 5.85861C12.7034 5.35398 12.2928 4.94343 11.7882 4.94343H9.34733Z" fill="black"/>
<path d="M11.7879 11.6552H9.34733C8.50627 11.6552 7.82202 10.9712 7.82202 10.1299V7.68935C7.82202 7.52059 7.95861 7.38428 8.12709 7.38428C8.29585 7.38428 8.43216 7.52086 8.43216 7.68935V10.1299C8.43216 10.6345 8.84273 11.0451 9.34735 11.0451H11.7879C12.2925 11.0451 12.7031 10.6345 12.7031 10.1299V8.29947C12.7031 8.13071 12.8397 7.9944 13.0082 7.9944C13.1769 7.9944 13.3132 8.13071 13.3132 8.29947V10.1299C13.3135 10.9713 12.6292 11.6552 11.7879 11.6552H11.7879Z" fill="black"/>
<path d="M18.4998 11.6552H16.0592C15.2182 11.6552 14.5339 10.9712 14.5339 10.1299V7.68935C14.5339 7.52059 14.6702 7.38428 14.839 7.38428C15.0078 7.38428 15.1441 7.52086 15.1441 7.68935V10.1299C15.1441 10.6345 15.5546 11.0451 16.0593 11.0451H18.4998C19.0042 11.0451 19.4147 10.6345 19.4147 10.1299V8.29947C19.4147 8.13071 19.5513 7.9944 19.7198 7.9944C19.8886 7.9944 20.0249 8.13071 20.0249 8.29947V10.1299C20.0249 10.9713 19.3409 11.6552 18.4998 11.6552H18.4998Z" fill="black"/>
<path d="M25.2117 11.6552H22.7712C21.9298 11.6552 21.2458 10.9712 21.2458 10.1299V7.68935C21.2458 7.52059 21.3822 7.38428 21.5509 7.38428C21.7197 7.38428 21.856 7.52086 21.856 7.68935V10.1299C21.856 10.6345 22.2666 11.0451 22.7712 11.0451H25.2117C25.7166 11.0451 26.1269 10.6345 26.1269 10.1299V8.29947C26.1269 8.13071 26.2632 7.9944 26.432 7.9944C26.6008 7.9944 26.7371 8.13071 26.7371 8.29947V10.1299C26.7373 10.9713 26.0533 11.6552 25.2118 11.6552H25.2117Z" fill="black"/>
<path d="M31.9236 11.6552H29.4831C28.6417 11.6552 27.9578 10.9712 27.9578 10.1299V7.68935C27.9578 7.52059 28.0941 7.38428 28.2628 7.38428C28.4316 7.38428 28.5679 7.52086 28.5679 7.68935V10.1299C28.5679 10.6345 28.9785 11.0451 29.4831 11.0451H31.9237C32.4283 11.0451 32.8388 10.6345 32.8388 10.1299V8.29947C32.8388 8.13071 32.9752 7.9944 33.1439 7.9944C33.3127 7.9944 33.449 8.13071 33.449 8.29947V10.1299C33.4493 10.9713 32.765 11.6552 31.9237 11.6552H31.9236Z" fill="black"/>
<path d="M18.4998 9.82456H16.0593C15.2182 9.82456 14.534 9.14054 14.534 8.29925L14.5337 5.85868C14.5337 5.01734 15.218 4.33337 16.059 4.33337H18.4996C19.3406 4.33337 20.0249 5.01739 20.0249 5.85868V8.29925C20.0252 9.1406 19.3409 9.82456 18.4998 9.82456H18.4998ZM16.059 4.94343C15.5544 4.94343 15.1438 5.354 15.1438 5.85861V8.29918C15.1438 8.80381 15.5544 9.21437 16.059 9.21437H18.4996C19.0042 9.21437 19.4147 8.80379 19.4147 8.29918L19.415 5.85861C19.415 5.35398 19.0044 4.94343 18.4998 4.94343H16.059Z" fill="black"/>
<path d="M25.2117 9.82456H22.7712C21.9298 9.82456 21.2458 9.14054 21.2458 8.29925V5.85868C21.2458 5.01734 21.9299 4.33337 22.7712 4.33337H25.2117C26.0531 4.33337 26.7373 5.01739 26.7373 5.85868V8.29925C26.7373 9.1406 26.0533 9.82456 25.2117 9.82456ZM22.7712 4.94343C22.2665 4.94343 21.856 5.354 21.856 5.85861V8.29918C21.856 8.80381 22.2665 9.21437 22.7712 9.21437H25.2117C25.7166 9.21437 26.1269 8.80379 26.1269 8.29918L26.1272 5.85861C26.1272 5.35398 25.7166 4.94343 25.212 4.94343H22.7712Z" fill="black"/>
<path d="M31.9237 9.82456H29.4831C28.6418 9.82456 27.9578 9.14054 27.9578 8.29925L27.9575 5.85868C27.9575 5.01734 28.6415 4.33337 29.4828 4.33337H31.9234C32.7647 4.33337 33.449 5.01739 33.449 5.85868V8.29925C33.4493 9.1406 32.765 9.82456 31.9237 9.82456H31.9237ZM29.4831 4.94343C28.9785 4.94343 28.5679 5.354 28.5679 5.85861V8.29918C28.5679 8.80381 28.9785 9.21437 29.4831 9.21437H31.9237C32.4283 9.21437 32.8389 8.80379 32.8389 8.29918V5.85861C32.8389 5.35398 32.4283 4.94343 31.9237 4.94343H29.4831Z" fill="black"/>
<path d="M18.4998 8.60454H16.0592C15.8905 8.60454 15.7542 8.46795 15.7542 8.29947L15.7539 5.8589C15.7539 5.69014 15.8902 5.55383 16.059 5.55383H18.4995C18.6683 5.55383 18.8046 5.69042 18.8046 5.8589V8.29947C18.8049 8.46823 18.6683 8.60454 18.4998 8.60454H18.4998ZM16.364 7.9944H18.1945V6.16396H16.364V7.9944Z" fill="black"/>
<path d="M23.9911 8.60452C23.9131 8.60452 23.8349 8.5748 23.7755 8.5151L22.5549 7.29485C22.4358 7.17572 22.4358 6.98269 22.5549 6.86356L23.7755 5.64331C23.8946 5.52417 24.0876 5.52417 24.2068 5.64331L25.427 6.86356C25.5461 6.98269 25.5461 7.17572 25.427 7.29485L24.2068 8.5151C24.1473 8.5748 24.0693 8.60452 23.9911 8.60452H23.9911ZM23.2024 7.07921L23.9914 7.86821L24.7804 7.07921L23.9914 6.2902L23.2024 7.07921Z" fill="black"/>
<path d="M29.483 8.60462C29.405 8.60462 29.3268 8.57491 29.2673 8.5152C29.1482 8.39607 29.1482 8.20304 29.2673 8.08391L31.7082 5.64306C31.8273 5.52393 32.0203 5.52393 32.1395 5.64306C32.2586 5.7622 32.2586 5.95522 32.1395 6.07463L29.6989 8.5152C29.6389 8.5749 29.561 8.60461 29.483 8.60461L29.483 8.60462Z" fill="black"/>
<path d="M31.6187 8.90953C31.5407 8.90953 31.4625 8.87982 31.4031 8.82012C31.2839 8.70098 31.2839 8.50796 31.4031 8.38882L32.0132 7.77868C32.1323 7.65955 32.3254 7.65955 32.4445 7.77868C32.5636 7.89782 32.5636 8.09084 32.4445 8.20998L31.8344 8.82012C31.7747 8.87982 31.697 8.90953 31.6187 8.90953H31.6187Z" fill="black"/>
<path d="M29.1773 6.46898C29.0993 6.46898 29.0211 6.43927 28.9617 6.37956C28.8425 6.26043 28.8425 6.0674 28.9617 5.94827L29.5726 5.33813C29.6918 5.219 29.8848 5.219 30.0039 5.33813C30.1231 5.45727 30.1231 5.65029 30.0039 5.76943L29.3932 6.37956C29.3335 6.43927 29.2553 6.46898 29.1773 6.46898Z" fill="black"/>
<path d="M0.805313 2.50262C0.636556 2.50262 0.500244 2.36604 0.500244 2.19755C0.499972 1.35621 1.18454 0.672241 2.02555 0.672241C2.19431 0.672241 2.33062 0.808553 2.33062 0.97731C2.33062 1.14607 2.19431 1.28238 2.02555 1.28238C1.52092 1.28238 1.11037 1.69295 1.11037 2.19757C1.11037 2.36632 0.973785 2.50263 0.8053 2.50263L0.805313 2.50262Z" fill="black"/>
<path d="M39.2455 2.50263C39.0768 2.50263 38.9405 2.36605 38.9405 2.19757C38.9405 1.69293 38.5299 1.28238 38.0253 1.28238C37.8565 1.28238 37.7202 1.1458 37.7202 0.97731C37.7202 0.808552 37.8568 0.672241 38.0253 0.672241C38.8666 0.672241 39.5506 1.35626 39.5506 2.19755C39.5506 2.36631 39.4143 2.50262 39.2455 2.50262L39.2455 2.50263Z" fill="black"/>
<path d="M38.0256 23.8583H2.02602C1.85726 23.8583 1.72095 23.7217 1.72095 23.5532C1.72095 23.3845 1.85753 23.2482 2.02602 23.2482H38.0256C38.1943 23.2482 38.3307 23.3845 38.3307 23.5532C38.3307 23.7217 38.1943 23.8583 38.0256 23.8583Z" fill="black"/>
<path d="M38.0258 23.8583C37.857 23.8583 37.7207 23.7218 37.7207 23.5533C37.7207 23.3845 37.8573 23.2482 38.0258 23.2482C38.5304 23.2482 38.941 22.8376 38.941 22.333C38.941 22.1643 39.0775 22.028 39.246 22.028C39.4148 22.028 39.5511 22.1643 39.5511 22.333C39.5511 23.1741 38.8671 23.8583 38.0258 23.8583L38.0258 23.8583Z" fill="black"/>
<path d="M2.0258 23.8584C1.18473 23.8584 0.500488 23.1741 0.500488 22.3328C0.500488 22.164 0.637072 22.0277 0.805557 22.0277C0.974315 22.0277 1.11063 22.164 1.11063 22.3328C1.11063 22.8374 1.5212 23.248 2.02581 23.248C2.19457 23.248 2.33088 23.3843 2.33088 23.553C2.33088 23.7218 2.19457 23.8584 2.02581 23.8584L2.0258 23.8584Z" fill="black"/>
<path d="M0.805342 22.6377C0.636584 22.6377 0.500273 22.5014 0.500273 22.3326L0.5 2.19752C0.5 2.02877 0.636584 1.89246 0.805069 1.89246C0.973827 1.89246 1.11014 2.02904 1.11014 2.19752V22.3326C1.11041 22.5014 0.973827 22.6377 0.805341 22.6377H0.805342Z" fill="black"/>
<path d="M39.2457 22.6377C39.077 22.6377 38.9407 22.5014 38.9407 22.3326V2.19752C38.9407 2.02877 39.0773 1.89246 39.2457 1.89246C39.4145 1.89246 39.5508 2.02904 39.5508 2.19752V22.3326C39.5508 22.5014 39.4145 22.6377 39.2457 22.6377Z" fill="black"/>
<path d="M38.0256 26.299H2.02602C1.85726 26.299 1.72095 26.1624 1.72095 25.9939C1.72095 25.8252 1.85753 25.6888 2.02602 25.6888H38.0256C38.1943 25.6888 38.3307 25.8252 38.3307 25.9939C38.3307 26.1627 38.1943 26.299 38.0256 26.299Z" fill="black"/>
<path d="M38.0258 26.299C37.857 26.299 37.7207 26.1624 37.7207 25.994C37.7207 25.8252 37.8573 25.6889 38.0258 25.6889C38.5304 25.6889 38.941 25.2783 38.941 24.7737C38.941 24.6049 39.0775 24.4686 39.246 24.4686C39.4148 24.4686 39.5511 24.6049 39.5511 24.7737C39.5511 25.615 38.8671 26.299 38.0258 26.299L38.0258 26.299Z" fill="black"/>
<path d="M2.0258 26.299C1.18473 26.299 0.500488 25.615 0.500488 24.7735C0.500488 24.6047 0.637072 24.4684 0.805557 24.4684C0.974315 24.4684 1.11063 24.6047 1.11063 24.7735C1.11063 25.2781 1.5212 25.6886 2.02581 25.6886C2.19457 25.6886 2.33088 25.825 2.33088 25.9937C2.33088 26.1627 2.19457 26.299 2.02581 26.299L2.0258 26.299Z" fill="black"/>
<path d="M0.805313 25.079C0.636556 25.079 0.500244 24.9424 0.500244 24.774V22.3334C0.500244 22.1646 0.636828 22.0283 0.805313 22.0283C0.974071 22.0283 1.11038 22.1646 1.11038 22.3334V24.774C1.11038 24.9424 0.973799 25.079 0.805313 25.079Z" fill="black"/>
<path d="M39.2457 25.079C39.077 25.079 38.9407 24.9424 38.9407 24.774V22.3334C38.9407 22.1646 39.0773 22.0283 39.2457 22.0283C39.4145 22.0283 39.5508 22.1646 39.5508 22.3334V24.774C39.5508 24.9424 39.4145 25.079 39.2457 25.079Z" fill="black"/>
<path d="M11.0125 14.7037C10.9076 14.7037 10.8056 14.6494 10.7489 14.5529C10.5839 14.271 10.2808 14.096 9.95828 14.096H8.73803C8.57773 14.096 8.41961 14.1388 8.28084 14.2192C8.13471 14.3037 7.94851 14.2544 7.86372 14.1083C7.77921 13.9624 7.82882 13.7759 7.97467 13.6912C8.20641 13.5565 8.47058 13.4856 8.73827 13.4856H9.95852C10.4972 13.4856 11.0018 13.7765 11.2761 14.2443C11.3609 14.3896 11.3121 14.5766 11.1668 14.662C11.118 14.6898 11.0648 14.7037 11.0125 14.7037L11.0125 14.7037Z" fill="black"/>
<path d="M9.95791 20.1978H8.73766C8.47021 20.1978 8.20631 20.1269 7.97511 19.9928C7.82953 19.9083 7.77963 19.7218 7.86415 19.5757C7.94839 19.4298 8.13487 19.3791 8.28127 19.4647C8.4195 19.5451 8.57707 19.5877 8.73738 19.5877H9.95763C10.281 19.5877 10.5839 19.4124 10.7482 19.1299C10.8333 18.9852 11.0195 18.935 11.1656 19.0203C11.3109 19.1051 11.3603 19.2913 11.2755 19.4374C11.0026 19.9064 10.4974 20.1978 9.95788 20.1978L9.95791 20.1978Z" fill="black"/>
<path d="M14.2286 16.5365C14.1828 16.5365 14.1362 16.5264 14.0926 16.5043C10.5549 14.7353 5.77122 15.3073 5.72446 15.3138C5.55624 15.3383 5.40467 15.2162 5.38395 15.0493C5.36323 14.8819 5.48154 14.7293 5.64894 14.7085C5.85177 14.6824 10.665 14.1079 14.3653 15.9588C14.5161 16.0343 14.5771 16.2175 14.5016 16.3683C14.4476 16.4746 14.3402 16.5365 14.2282 16.5365L14.2286 16.5365Z" fill="black"/>
<path d="M7.66098 19.0301C6.51269 19.0301 5.72808 18.9358 5.64845 18.926C5.48133 18.9053 5.36273 18.7526 5.38345 18.5857C5.40417 18.4189 5.55576 18.2973 5.72396 18.3205C5.77222 18.327 10.5587 18.8968 14.0921 17.1299C14.2423 17.0544 14.426 17.1163 14.5013 17.2662C14.5765 17.417 14.5157 17.5999 14.365 17.6757C12.112 18.8019 9.44733 19.0301 7.66106 19.0301L7.66098 19.0301Z" fill="black"/>
<path d="M5.68666 18.9282C5.5179 18.9282 5.38159 18.7916 5.38159 18.6232V15.0111C5.38159 14.8424 5.5179 14.7061 5.68666 14.7061C5.85542 14.7061 5.99173 14.8426 5.99173 15.0111V18.6232C5.99173 18.7916 5.85515 18.9282 5.68666 18.9282Z" fill="black"/>
<path d="M14.2291 17.7082C14.0604 17.7082 13.9241 17.5719 13.9241 17.4032V16.2317C13.9241 16.0629 14.0604 15.9266 14.2291 15.9266C14.3979 15.9266 14.5342 16.0632 14.5342 16.2317V17.4032C14.5342 17.5717 14.3976 17.7082 14.2291 17.7082Z" fill="black"/>
<path d="M7.51659 18.9771C7.45552 18.9771 7.39391 18.9585 7.34047 18.9212C7.20279 18.8233 7.17063 18.6327 7.26795 18.4956C7.28949 18.4648 7.80993 17.7001 7.27804 17.0316C6.6221 16.2069 6.9847 15.2339 7.26795 14.8347C7.36528 14.697 7.55666 14.6654 7.69325 14.7619C7.83066 14.8595 7.8631 15.049 7.76659 15.1867C7.74314 15.2199 7.22434 15.9839 7.75569 16.6512C8.41162 17.4759 8.04903 18.4489 7.76577 18.8483C7.70634 18.9322 7.61201 18.977 7.51659 18.977L7.51659 18.9771Z" fill="black"/>
<path d="M9.95717 18.894C9.89447 18.894 9.83149 18.8749 9.77697 18.8351C9.6412 18.7356 9.61203 18.5442 9.71127 18.4085C9.7328 18.3793 10.2459 17.6495 9.72163 17.0112C9.05969 16.2056 9.42555 15.2558 9.71127 14.8654C9.81105 14.7288 10.0016 14.7004 10.1379 14.7997C10.2732 14.8992 10.3029 15.0892 10.2044 15.2253C10.1821 15.2555 9.66901 15.9856 10.1933 16.6238C10.8552 17.4294 10.4893 18.3792 10.2036 18.7694C10.1437 18.8512 10.051 18.894 9.95718 18.894L9.95717 18.894Z" fill="black"/>
<path d="M12.3987 18.4132C12.3185 18.4132 12.2383 18.3816 12.1784 18.3191C12.0617 18.1976 12.0658 18.0045 12.1874 17.8878C12.2471 17.8295 12.4036 17.6299 12.3987 17.4309C12.3951 17.3058 12.3289 17.1883 12.1964 17.0705C11.9409 16.8448 11.8005 16.5675 11.7891 16.2703C11.7697 15.7523 12.1375 15.3582 12.1797 15.3145C12.2978 15.194 12.4911 15.1905 12.611 15.3085C12.7318 15.4252 12.7351 15.6177 12.6184 15.7387C12.5541 15.8066 12.3894 16.0307 12.3989 16.2499C12.4047 16.3791 12.4706 16.4983 12.601 16.6141C12.9303 16.9061 13.0047 17.2142 13.0085 17.4216C13.0183 17.9227 12.6517 18.2886 12.6099 18.3292C12.5505 18.3851 12.4745 18.4132 12.3987 18.4132L12.3987 18.4132Z" fill="black"/>
<path d="M21.3851 14.7037C21.2804 14.7037 21.179 14.6494 21.1218 14.5529C20.9574 14.271 20.6534 14.096 20.3303 14.096H19.1103C18.95 14.096 18.7919 14.1388 18.6532 14.2192C18.5078 14.3037 18.3208 14.2544 18.236 14.1083C18.1515 13.9624 18.2011 13.7759 18.347 13.6912C18.5787 13.5565 18.8429 13.4856 19.1106 13.4856H20.3306C20.8693 13.4856 21.3744 13.7765 21.6487 14.2443C21.7332 14.3896 21.6844 14.5766 21.5389 14.662C21.4914 14.6898 21.4377 14.7037 21.3851 14.7037L21.3851 14.7037Z" fill="black"/>
<path d="M20.3305 20.1978H19.1105C18.8431 20.1978 18.5792 20.1269 18.348 19.9928C18.2021 19.9083 18.1525 19.7218 18.237 19.5757C18.3213 19.4298 18.5075 19.3791 18.6541 19.4647C18.7924 19.5451 18.9499 19.5877 19.1102 19.5877H20.3302C20.653 19.5877 20.9573 19.4124 21.1217 19.1299C21.2062 18.9852 21.3935 18.935 21.5388 19.0203C21.6841 19.1051 21.7332 19.2921 21.6486 19.4374C21.3749 19.9064 20.8698 20.1978 20.3305 20.1978L20.3305 20.1978Z" fill="black"/>
<path d="M24.6017 16.5365C24.5551 16.5365 24.5087 16.5264 24.4654 16.5044C20.9283 14.7358 16.1455 15.3078 16.098 15.3138C15.9301 15.3383 15.7782 15.2162 15.7575 15.0493C15.7368 14.8819 15.8551 14.7293 16.0225 14.7085C16.2259 14.6829 21.038 14.1079 24.7388 15.9588C24.8896 16.0343 24.9504 16.2175 24.8751 16.3683C24.8212 16.4746 24.7138 16.5365 24.602 16.5365L24.6017 16.5365Z" fill="black"/>
<path d="M18.0343 19.0301C16.886 19.0301 16.1014 18.9358 16.0217 18.926C15.8546 18.9053 15.736 18.7526 15.7567 18.5857C15.7775 18.4189 15.9293 18.2973 16.0973 18.3205C16.145 18.3265 20.9309 18.8963 24.4647 17.1299C24.6154 17.0544 24.7983 17.1163 24.8739 17.2662C24.9491 17.417 24.8883 17.5999 24.7376 17.6757C22.4846 18.8019 19.8199 19.0301 18.0339 19.0301L18.0343 19.0301Z" fill="black"/>
<path d="M16.06 18.9282C15.8912 18.9282 15.7549 18.7916 15.7549 18.6232V15.0111C15.7549 14.8424 15.8912 14.7061 16.06 14.7061C16.2287 14.7061 16.365 14.8426 16.365 15.0111V18.6232C16.365 18.7916 16.2287 18.9282 16.06 18.9282Z" fill="black"/>
<path d="M24.6017 17.7082C24.4329 17.7082 24.2966 17.5719 24.2966 17.4032V16.2317C24.2966 16.0629 24.4329 15.9266 24.6017 15.9266C24.7705 15.9266 24.9068 16.0632 24.9068 16.2317V17.4032C24.9068 17.5717 24.7702 17.7082 24.6017 17.7082Z" fill="black"/>
<path d="M17.8899 18.9771C17.8288 18.9771 17.7672 18.9585 17.7137 18.9212C17.5761 18.8233 17.5439 18.6327 17.6415 18.4956C17.663 18.4648 18.1835 17.7001 17.6516 17.0316C16.9956 16.2069 17.3582 15.2339 17.6415 14.8347C17.7385 14.697 17.9299 14.6654 18.0665 14.7619C18.2039 14.8595 18.2364 15.049 18.1398 15.1867C18.1161 15.2199 17.5976 15.9839 18.1287 16.6512C18.7846 17.4759 18.422 18.4489 18.1388 18.8483C18.0799 18.9322 17.9855 18.977 17.8898 18.977L17.8899 18.9771Z" fill="black"/>
<path d="M20.3304 18.894C20.2677 18.894 20.2048 18.8749 20.1502 18.8351C20.0145 18.7356 19.9853 18.5442 20.0848 18.4085C20.1061 18.3793 20.6191 17.6495 20.0952 17.0112C19.4332 16.2056 19.7991 15.2558 20.0848 14.8654C20.1843 14.7288 20.3749 14.7004 20.5115 14.7997C20.6467 14.8992 20.6764 15.0892 20.578 15.2253C20.5556 15.2555 20.0425 15.9856 20.5668 16.6238C21.2285 17.4294 20.8626 18.3792 20.5772 18.7694C20.5169 18.8512 20.4242 18.894 20.3304 18.894V18.894Z" fill="black"/>
<path d="M22.7712 18.4132C22.6913 18.4132 22.6109 18.3816 22.5509 18.3191C22.434 18.1976 22.4389 18.0045 22.5602 17.8878C22.6199 17.8295 22.7758 17.6299 22.7712 17.4309C22.7677 17.3058 22.7017 17.1883 22.5686 17.0705C22.3137 16.8448 22.1731 16.5675 22.1619 16.2703C22.1423 15.7523 22.5103 15.3582 22.5523 15.3145C22.6703 15.194 22.8639 15.1905 22.9836 15.3085C23.1046 15.4252 23.1074 15.6177 22.9915 15.7387C22.9272 15.8066 22.7619 16.0307 22.7715 16.2499C22.7775 16.3791 22.8437 16.4983 22.974 16.6141C23.3031 16.9061 23.3775 17.2142 23.3816 17.4216C23.3912 17.9227 23.0239 18.2886 22.9825 18.3292C22.9233 18.3851 22.8475 18.4132 22.7712 18.4132L22.7712 18.4132Z" fill="black"/>
<path d="M31.7583 14.7037C31.6536 14.7037 31.5522 14.6494 31.4949 14.5529C31.3305 14.271 31.0266 14.096 30.7035 14.096H29.4837C29.3234 14.096 29.165 14.1388 29.0255 14.2192C28.8812 14.3037 28.6942 14.2544 28.6089 14.1083C28.5244 13.9624 28.5737 13.7759 28.7204 13.6912C28.9521 13.5565 29.2163 13.4856 29.4838 13.4856H30.7035C31.2422 13.4856 31.7474 13.7765 32.0217 14.2443C32.1062 14.3896 32.0574 14.5766 31.9118 14.662C31.8647 14.6898 31.811 14.7037 31.7583 14.7037L31.7583 14.7037Z" fill="black"/>
<path d="M30.7038 20.1978H29.484C29.2166 20.1978 28.9532 20.1269 28.7217 19.9928C28.5751 19.9083 28.526 19.7218 28.6102 19.5757C28.6945 19.4298 28.8815 19.3791 29.0268 19.4647C29.1661 19.5451 29.3234 19.5877 29.4837 19.5877H30.7035C31.0263 19.5877 31.3305 19.4124 31.4949 19.1299C31.5794 18.9852 31.7667 18.935 31.912 19.0203C32.0576 19.1051 32.1064 19.2921 32.0219 19.4374C31.7482 19.9064 31.243 20.1978 30.7037 20.1978L30.7038 20.1978Z" fill="black"/>
<path d="M34.975 16.5364C34.9283 16.5364 34.882 16.5263 34.8386 16.5043C31.301 14.7352 26.518 15.3072 26.4712 15.3137C26.3039 15.3382 26.1517 15.2161 26.131 15.0492C26.1103 14.8818 26.2289 14.7292 26.3963 14.7084C26.5988 14.6823 31.4104 14.1073 35.1119 15.9587C35.2627 16.0342 35.3235 16.2174 35.2483 16.3682C35.1945 16.4745 35.0871 16.5364 34.9754 16.5364L34.975 16.5364Z" fill="black"/>
<path d="M28.4076 19.0301C27.2595 19.0301 26.4747 18.9358 26.3953 18.926C26.2279 18.9053 26.1093 18.7526 26.13 18.5857C26.1508 18.4189 26.3029 18.2973 26.4703 18.3205C26.5185 18.327 31.3045 18.8968 34.8377 17.1299C34.9884 17.0544 35.1708 17.1163 35.2469 17.2662C35.3221 17.417 35.2613 17.5999 35.1106 17.6757C32.8579 18.8019 30.1932 19.0301 28.4072 19.0301L28.4076 19.0301Z" fill="black"/>
<path d="M26.4325 18.9282C26.2638 18.9282 26.1274 18.7916 26.1274 18.6232V15.0111C26.1274 14.8424 26.2638 14.7061 26.4325 14.7061C26.6013 14.7061 26.7376 14.8426 26.7376 15.0111V18.6232C26.7379 18.7916 26.6013 18.9282 26.4325 18.9282Z" fill="black"/>
<path d="M34.975 17.7082C34.8062 17.7082 34.6699 17.5719 34.6699 17.4032V16.2317C34.6699 16.0629 34.8062 15.9266 34.975 15.9266C35.1437 15.9266 35.2801 16.0632 35.2801 16.2317V17.4032C35.2798 17.5717 35.1435 17.7082 34.975 17.7082Z" fill="black"/>
<path d="M28.2623 18.9771C28.2015 18.9771 28.1396 18.9585 28.0865 18.9212C27.9488 18.8233 27.9166 18.6327 28.0142 18.4956C28.0358 18.4648 28.5559 17.7001 28.0238 17.0316C27.3684 16.2069 27.7307 15.2339 28.0142 14.8347C28.1107 14.697 28.3021 14.6654 28.439 14.7619C28.5767 14.8595 28.6088 15.049 28.5123 15.1867C28.4886 15.2199 27.9701 15.9839 28.5017 16.6512C29.1571 17.4759 28.7948 18.4489 28.5112 18.8483C28.4523 18.9322 28.3583 18.977 28.2623 18.977V18.9771Z" fill="black"/>
<path d="M30.7036 18.894C30.6406 18.894 30.5774 18.8749 30.5231 18.8351C30.3874 18.7356 30.3582 18.5442 30.4577 18.4085C30.479 18.3793 30.9923 17.6495 30.4678 17.0112C29.8064 16.2056 30.1723 15.2558 30.4577 14.8654C30.5572 14.7288 30.7478 14.7004 30.8844 14.7997C31.0196 14.8992 31.0493 15.0892 30.9506 15.2253C30.9285 15.2555 30.4154 15.9856 30.94 16.6238C31.6014 17.4294 31.2355 18.3792 30.9501 18.7694C30.8893 18.8512 30.7971 18.894 30.7036 18.894L30.7036 18.894Z" fill="black"/>
<path d="M33.1438 18.4132C33.0639 18.4132 32.9835 18.3816 32.9235 18.3191C32.8065 18.1976 32.8114 18.0045 32.933 17.8878C32.9925 17.8295 33.1487 17.6299 33.1438 17.4309C33.1402 17.3058 33.0742 17.1883 32.9412 17.0705C32.6863 16.8448 32.5456 16.5675 32.5344 16.2703C32.5148 15.7523 32.8829 15.3582 32.9249 15.3145C33.0429 15.194 33.2359 15.1905 33.3561 15.3085C33.4772 15.4252 33.4799 15.6177 33.3641 15.7387C33.2997 15.8066 33.1345 16.0307 33.144 16.2499C33.15 16.3791 33.2163 16.4983 33.3466 16.6141C33.6757 16.9061 33.7501 17.2142 33.7542 17.4216C33.7637 17.9227 33.3965 18.2886 33.3551 18.3292C33.2956 18.3851 33.2201 18.4132 33.1438 18.4132L33.1438 18.4132Z" fill="black"/>
<path d="M6.29674 36.6722C3.77333 36.6722 1.72046 34.6193 1.72046 32.0959C1.72046 29.5722 3.77333 27.5197 6.29674 27.5197C8.82043 27.5197 10.873 29.5722 10.873 32.0959C10.8727 34.6193 8.82015 36.6722 6.29674 36.6722ZM6.29674 28.1303C4.11001 28.1303 2.33058 29.9098 2.33058 32.0965C2.33058 34.2832 4.11001 36.0624 6.29674 36.0624C8.48347 36.0624 10.2629 34.2829 10.2629 32.0965C10.2626 29.9095 8.48347 28.1303 6.29674 28.1303Z" fill="black"/>
<path d="M6.29667 35.4516C4.44634 35.4516 2.94092 33.9456 2.94092 32.0955C2.94092 30.2452 4.44634 28.7395 6.29667 28.7395C8.147 28.7395 9.6527 30.2452 9.6527 32.0955C9.65243 33.9459 8.147 35.4516 6.29667 35.4516ZM6.29667 29.3499C4.78253 29.3499 3.55104 30.5816 3.55104 32.0958C3.55104 33.61 4.78274 34.8414 6.29667 34.8414C7.81081 34.8414 9.04258 33.6098 9.04258 32.0958C9.04231 30.5814 7.8106 29.3499 6.29667 29.3499Z" fill="black"/>
<path d="M4.46596 32.4009C4.2972 32.4009 4.16089 32.2646 4.16089 32.0959C4.16089 30.9184 5.11914 29.9601 6.29639 29.9601C6.46515 29.9601 6.60146 30.0964 6.60146 30.2652C6.60146 30.4339 6.46488 30.5702 6.29639 30.5702C5.45533 30.5702 4.77108 31.2545 4.77108 32.0958C4.77108 32.2646 4.63477 32.4009 4.46601 32.4009L4.46596 32.4009Z" fill="black"/>
<path d="M38.0256 30.5703H14.8392C14.6705 30.5703 14.5342 30.434 14.5342 30.2653C14.5342 30.0965 14.6705 29.9602 14.8392 29.9602H38.0256C38.1944 29.9602 38.3307 30.0965 38.3307 30.2653C38.3307 30.4338 38.1944 30.5703 38.0256 30.5703Z" fill="black"/>
<path d="M38.0256 31.7903H14.8392C14.6705 31.7903 14.5342 31.654 14.5342 31.4852C14.5342 31.3165 14.6705 31.1802 14.8392 31.1802H38.0256C38.1944 31.1802 38.3307 31.3165 38.3307 31.4852C38.3307 31.654 38.1944 31.7903 38.0256 31.7903Z" fill="black"/>
<path d="M38.0258 31.7902C37.857 31.7902 37.7207 31.6539 37.7207 31.4852V30.2649C37.7207 30.0961 37.8573 29.9598 38.0258 29.9598C38.1945 29.9598 38.3308 30.0961 38.3308 30.2649V31.4852C38.3308 31.6536 38.1945 31.7902 38.0258 31.7902Z" fill="black"/>
<path d="M13.0085 31.1803C12.8807 31.1803 12.7618 31.0993 12.7193 30.9717C12.6661 30.812 12.7526 30.6394 12.912 30.5854L14.7425 29.9753C14.9031 29.921 15.0751 30.0088 15.1282 30.1683C15.1814 30.3281 15.095 30.5006 14.9355 30.5544L13.1051 31.1645C13.0729 31.1757 13.0404 31.1803 13.0085 31.1803V31.1803Z" fill="black"/>
<path d="M14.8394 31.7903C14.8075 31.7903 14.775 31.7857 14.7429 31.775L12.9124 31.1649C12.7527 31.1112 12.6662 30.9383 12.7197 30.7786C12.7728 30.6188 12.944 30.5313 13.1054 30.5856L14.9359 31.1957C15.0956 31.2494 15.1821 31.4222 15.1286 31.582C15.0861 31.7093 14.9672 31.7903 14.8394 31.7903V31.7903Z" fill="black"/>
<path d="M36.1951 34.2316H13.0087C12.8399 34.2316 12.7036 34.095 12.7036 33.9265C12.7036 33.7578 12.8402 33.6215 13.0087 33.6215H36.1951C36.3638 33.6215 36.5001 33.7578 36.5001 33.9265C36.4999 34.095 36.3636 34.2316 36.1951 34.2316Z" fill="black"/>
<path d="M36.1951 33.0109H13.0087C12.8399 33.0109 12.7036 32.8743 12.7036 32.7059C12.7036 32.5371 12.8402 32.4008 13.0087 32.4008L36.1951 32.4005C36.3638 32.4005 36.5001 32.5368 36.5001 32.7056C36.4999 32.8743 36.3636 33.0109 36.1951 33.0109V33.0109Z" fill="black"/>
<path d="M13.0087 34.2316C12.8399 34.2316 12.7036 34.095 12.7036 33.9266V32.7063C12.7036 32.5376 12.8402 32.4012 13.0087 32.4012C13.1774 32.4012 13.3138 32.5376 13.3138 32.7063V33.9266C13.3138 34.095 13.1772 34.2316 13.0087 34.2316Z" fill="black"/>
<path d="M36.1951 34.2316C36.0675 34.2316 35.9484 34.1506 35.9056 34.0231C35.8524 33.8633 35.9388 33.6907 36.0986 33.6367L37.929 33.0266C38.0899 32.9737 38.2614 33.0607 38.3153 33.2196C38.3685 33.3794 38.2818 33.552 38.1223 33.6059L36.2919 34.2161C36.2594 34.2267 36.2273 34.2316 36.1951 34.2316L36.1951 34.2316Z" fill="black"/>
<path d="M38.0258 33.6216C37.9936 33.6216 37.9614 33.617 37.9293 33.6061L36.0988 32.9959C35.9391 32.9422 35.8527 32.7694 35.9058 32.6096C35.9592 32.4504 36.131 32.3629 36.2918 32.4166L38.1223 33.0267C38.2821 33.0804 38.3685 33.2533 38.3153 33.413C38.2725 33.5404 38.1534 33.6216 38.0258 33.6216V33.6216Z" fill="black"/>
</svg>
