<svg width="599" height="598" viewBox="0 0 599 598" fill="none" xmlns="http://www.w3.org/2000/svg">
<path d="M181.491 248.089C218.783 248.089 249.127 217.751 249.127 180.453V67.636C249.127 30.344 218.789 0 181.491 0H68.6741C31.3821 0 1.03809 30.3387 1.03809 67.636V180.453C1.03809 217.745 31.3768 248.089 68.6741 248.089H181.491ZM15.9714 180.459V85.1987H28.935C33.0601 85.1987 36.4038 81.8549 36.4038 77.7299C36.4038 73.6048 33.0601 70.2611 28.935 70.2611H15.9714V67.636C15.9714 38.5733 39.6114 14.9333 68.6741 14.9333H133.753V26.0115C133.753 30.1365 137.096 33.4803 141.222 33.4803C145.347 33.4803 148.69 30.1365 148.69 26.0115V14.9437H181.497C210.56 14.9437 234.2 38.5837 234.2 67.6464V107.021H222.528C218.403 107.021 215.059 110.365 215.059 114.49C215.059 118.615 218.403 121.959 222.528 121.959H234.2V180.469C234.2 190.881 231.127 200.573 225.892 208.756L217.434 200.298C214.517 197.381 209.793 197.381 206.877 200.298C203.96 203.214 203.96 207.938 206.877 210.855L216.127 220.105C206.856 228.214 194.763 233.173 181.501 233.173L84.4186 233.157V217.474C84.4186 213.349 81.0749 210.006 76.9498 210.006C72.8248 210.006 69.481 213.349 69.481 217.474V233.157H68.6685C39.6112 233.157 15.9712 209.517 15.9712 180.46L15.9714 180.459Z" fill="black"/>
<path d="M214.891 85.196C219.016 85.196 222.36 81.8523 222.36 77.7272V66.3731C222.36 62.248 219.016 58.9043 214.891 58.9043C210.766 58.9043 207.422 62.248 207.422 66.3731V77.7324C207.422 81.8522 210.766 85.196 214.891 85.196V85.196Z" fill="black"/>
<path d="M178.598 202.449C175.681 199.533 170.957 199.533 168.041 202.449C165.124 205.366 165.124 210.09 168.041 213.007L174.806 219.772C176.265 221.231 178.176 221.96 180.087 221.96C181.999 221.96 183.91 221.23 185.369 219.772C188.285 216.855 188.285 212.131 185.369 209.215L178.598 202.449Z" fill="black"/>
<path d="M184.385 49.0839C185.843 50.5423 187.754 51.2714 189.666 51.2714C191.577 51.2714 193.489 50.5422 194.947 49.0839C197.864 46.1672 197.864 41.4432 194.947 38.5266L188.181 31.761C185.265 28.8443 180.541 28.8443 177.624 31.761C174.707 34.6777 174.707 39.4017 177.624 42.3183L184.385 49.0839Z" fill="black"/>
<path d="M49.2248 143.916C52.6988 157.26 59.5789 169.525 69.5888 179.531C83.1515 193.093 100.818 201 119.777 202.255V213.13C119.777 217.255 123.121 220.598 127.246 220.598C131.371 220.598 134.714 217.255 134.714 213.13V201.859C152.021 199.749 168.042 192.051 180.564 179.525C184.975 175.114 188.673 170.275 191.808 165.181L200.512 173.885C201.97 175.343 203.881 176.072 205.793 176.072C207.704 176.072 209.616 175.343 211.074 173.885C213.991 170.968 213.991 166.244 211.074 163.327L198.699 150.952C208.803 123.171 202.819 90.8016 180.568 68.5563C162.084 50.0723 136.61 42.8376 112.59 46.6816L101.074 35.166C98.1575 32.2493 93.4335 32.2493 90.5168 35.166C87.6001 38.0827 87.6001 42.8067 90.5168 45.7233L95.9856 51.1921C86.3762 55.0151 77.3656 60.7911 69.6002 68.5562C54.7776 83.3788 46.6163 103.083 46.6163 124.04C46.6163 125.702 46.7569 127.337 46.8558 128.978H35.9288C31.8037 128.978 28.46 132.321 28.46 136.446C28.46 140.571 31.8037 143.915 35.9288 143.915L49.2248 143.916ZM80.1515 79.1187C92.5421 66.7332 108.802 60.54 125.078 60.54C141.343 60.54 157.619 66.7327 170.005 79.1187C194.775 103.895 194.775 144.201 170.005 168.973C158.005 180.973 142.046 187.583 125.078 187.583C108.11 187.583 92.1515 180.979 80.1515 168.973C68.1514 156.973 61.5421 141.015 61.5421 124.047C61.5421 107.077 68.1514 91.1254 80.1515 79.12V79.1187Z" fill="black"/>
<path d="M48.1579 185.049C45.2413 182.133 40.5173 182.133 37.6006 185.049C34.6839 187.966 34.6839 192.69 37.6006 195.607L47.0694 205.075C48.5278 206.534 50.4391 207.263 52.3506 207.263C54.2621 207.263 56.1735 206.534 57.6318 205.075C60.5485 202.159 60.5485 197.435 57.6318 194.518L48.1579 185.049Z" fill="black"/>
<path d="M53.2246 56.5946C54.683 58.053 56.5943 58.7821 58.5058 58.7821C60.4172 58.7821 62.3287 58.0529 63.787 56.5946C66.7036 53.6779 66.7036 48.9539 63.787 46.0373L55.6047 37.855C52.688 34.9383 47.964 34.9383 45.0474 37.855C42.1307 40.7716 42.1307 45.4956 45.0474 48.4123L53.2246 56.5946Z" fill="black"/>
<path d="M417.824 597.209H530.642C567.934 597.209 598.278 566.871 598.278 529.573V416.756C598.278 379.464 567.939 349.12 530.642 349.12H417.824C380.532 349.12 350.188 379.459 350.188 416.756V529.573C350.188 566.871 380.532 597.209 417.824 597.209V597.209ZM365.127 434.316H378.096C382.221 434.316 385.565 430.972 385.565 426.847C385.565 422.722 382.221 419.379 378.096 419.379H365.127V416.753C365.127 387.691 388.767 364.051 417.83 364.051H482.908V375.118C482.908 379.244 486.252 382.587 490.377 382.587C494.502 382.587 497.846 379.244 497.846 375.118V364.051H530.653C559.715 364.051 583.355 387.691 583.355 416.753V456.123H571.684C567.558 456.123 564.215 459.466 564.215 463.592C564.215 467.717 567.558 471.06 571.684 471.06H583.355V529.571C583.355 539.983 580.282 549.675 575.048 557.858L566.59 549.399C563.673 546.483 558.949 546.483 556.032 549.399C553.116 552.316 553.116 557.04 556.032 559.957L565.277 569.201C555.996 577.316 543.897 582.274 530.641 582.274H433.573V566.592C433.573 562.467 430.229 559.123 426.104 559.123C421.979 559.123 418.636 562.467 418.636 566.592L418.641 582.274H417.823C388.76 582.274 365.12 558.634 365.12 529.572V434.317L365.127 434.316Z" fill="black"/>
<path d="M564.038 434.316C568.163 434.316 571.507 430.972 571.507 426.847V415.488C571.507 411.363 568.163 408.019 564.038 408.019C559.913 408.019 556.569 411.363 556.569 415.488V426.847C556.575 430.972 559.913 434.316 564.038 434.316Z" fill="black"/>
<path d="M527.758 551.569C524.841 548.653 520.117 548.653 517.201 551.569C514.284 554.486 514.284 559.21 517.201 562.127L523.966 568.892C525.425 570.351 527.336 571.08 529.247 571.08C531.159 571.08 533.07 570.351 534.529 568.892C537.445 565.976 537.445 561.252 534.529 558.335L527.758 551.569Z" fill="black"/>
<path d="M533.532 398.209C534.99 399.662 536.901 400.392 538.813 400.392C540.724 400.392 542.636 399.662 544.094 398.204C547.005 395.287 547.005 390.558 544.089 387.642L537.323 380.881C534.406 377.97 529.677 377.97 526.761 380.886C523.849 383.803 523.849 388.532 526.766 391.449L533.532 398.209Z" fill="black"/>
<path d="M398.425 493.036C401.821 506.088 408.545 518.448 418.747 528.651C432.31 542.213 449.977 550.12 468.935 551.375V562.25C468.935 566.375 472.279 569.718 476.404 569.718C480.529 569.718 483.873 566.375 483.873 562.25V550.979C501.18 548.87 517.201 541.172 529.722 528.646C534.092 524.276 537.806 519.442 540.983 514.312L549.665 523.01C551.123 524.468 553.035 525.198 554.946 525.198C556.858 525.198 558.769 524.468 560.228 523.01C563.144 520.093 563.144 515.369 560.228 512.453L547.884 500.109C550.998 491.583 552.707 482.516 552.707 473.172C552.707 452.213 544.545 432.505 529.723 417.688C514.9 402.865 495.196 394.704 474.239 394.704C469.994 394.704 465.827 395.126 461.713 395.782L450.228 384.297C447.312 381.381 442.588 381.381 439.671 384.297C436.754 387.214 436.754 391.938 439.671 394.855L445.119 400.303C435.369 404.198 426.4 410.032 418.749 417.683C402.197 434.235 394.681 456.396 396.041 478.104H385.083C380.958 478.104 377.614 481.448 377.614 485.573C377.614 489.698 380.958 493.042 385.083 493.042L398.425 493.036ZM429.305 428.239C441.305 416.239 457.263 409.629 474.231 409.629C491.199 409.629 507.158 416.234 519.158 428.239C531.158 440.239 537.767 456.197 537.767 473.165C537.767 490.133 531.163 506.092 519.158 518.092C507.158 530.092 491.199 536.701 474.231 536.701C457.263 536.701 441.305 530.097 429.305 518.092C404.539 493.321 404.539 453.009 429.305 428.237V428.239Z" fill="black"/>
<path d="M397.305 534.156C394.388 531.239 389.664 531.239 386.748 534.156C383.831 537.073 383.831 541.797 386.748 544.713L396.216 554.182C397.675 555.641 399.586 556.37 401.498 556.37C403.409 556.37 405.32 555.64 406.779 554.182C409.695 551.266 409.695 546.542 406.779 543.625L397.305 534.156Z" fill="black"/>
<path d="M402.358 405.716C403.816 407.174 405.728 407.903 407.639 407.903C409.551 407.903 411.462 407.174 412.92 405.716C415.837 402.799 415.837 398.075 412.92 395.159L404.738 386.976C401.821 384.06 397.097 384.06 394.181 386.976C391.264 389.893 391.264 394.617 394.181 397.534L402.358 405.716Z" fill="black"/>
<path d="M479.745 76.0493C479.745 34.1173 445.63 0.00268555 403.698 0.00268555C361.771 0.00268555 327.657 34.1173 327.657 76.0493C327.657 117.981 361.771 152.096 403.703 152.096C445.63 152.091 479.745 117.981 479.745 76.0493ZM342.585 76.0493C342.585 42.352 369.997 14.94 403.694 14.94C437.391 14.94 464.803 42.352 464.803 76.0493C464.803 109.747 437.391 137.159 403.694 137.159C369.997 137.159 342.585 109.747 342.585 76.0493Z" fill="black"/>
<path d="M434.838 76.0494C434.838 58.8774 420.869 44.9094 403.698 44.9094C386.526 44.9094 372.558 58.8788 372.558 76.0494C372.558 93.2214 386.527 107.189 403.698 107.189C420.87 107.189 434.838 93.2201 434.838 76.0494V76.0494ZM387.489 76.0494C387.489 67.112 394.76 59.8414 403.697 59.8414C412.634 59.8414 419.905 67.1122 419.905 76.0494C419.905 84.9869 412.634 92.2574 403.697 92.2574C394.759 92.2574 387.489 84.9866 387.489 76.0494Z" fill="black"/>
<path d="M522.225 124.929C480.293 124.929 446.178 159.044 446.178 200.976C446.178 242.908 480.293 277.023 522.225 277.023C564.157 277.023 598.272 242.908 598.272 200.976C598.272 159.044 564.157 124.929 522.225 124.929V124.929ZM522.225 262.089C488.528 262.089 461.116 234.677 461.116 200.98C461.116 167.283 488.528 139.871 522.225 139.871C555.922 139.871 583.334 167.283 583.334 200.98C583.334 234.673 555.922 262.089 522.225 262.089Z" fill="black"/>
<path d="M522.225 169.823C505.053 169.823 491.085 183.792 491.085 200.963C491.085 218.133 505.054 232.103 522.225 232.103C539.396 232.103 553.365 218.133 553.365 200.963C553.365 183.792 539.396 169.823 522.225 169.823ZM522.225 217.172C513.288 217.172 506.017 209.901 506.017 200.964C506.017 192.027 513.288 184.756 522.225 184.756C531.162 184.756 538.433 192.027 538.433 200.964C538.433 209.901 531.162 217.172 522.225 217.172Z" fill="black"/>
<path d="M280.211 248.263C280.211 290.195 314.326 324.309 356.258 324.309C398.19 324.309 432.305 290.195 432.305 248.263C432.305 206.331 398.19 172.216 356.258 172.216C314.326 172.216 280.211 206.331 280.211 248.263V248.263ZM356.258 187.153C389.955 187.153 417.367 214.565 417.367 248.263C417.367 281.96 389.955 309.372 356.258 309.372C322.561 309.372 295.149 281.96 295.149 248.263C295.144 214.565 322.561 187.153 356.258 187.153V187.153Z" fill="black"/>
<path d="M356.265 279.409C373.437 279.409 387.405 265.44 387.405 248.269C387.405 231.097 373.435 217.129 356.265 217.129C339.093 217.129 325.125 231.099 325.125 248.269C325.125 265.441 339.094 279.409 356.265 279.409ZM356.265 232.06C365.202 232.06 372.472 239.331 372.472 248.268C372.472 257.205 365.202 264.476 356.265 264.476C347.327 264.476 340.057 257.205 340.057 248.268C340.057 239.331 347.327 232.06 356.265 232.06Z" fill="black"/>
<path d="M76.5716 596.823C118.274 596.823 152.202 562.896 152.202 521.192C152.202 479.489 118.276 445.561 76.5716 445.561C34.8689 445.561 0.940918 479.488 0.940918 521.192C0.940918 562.889 34.8676 596.823 76.5716 596.823V596.823ZM76.5716 460.489C110.041 460.489 137.269 487.719 137.269 521.187C137.269 554.656 110.04 581.884 76.5716 581.884C43.1023 581.884 15.8742 554.655 15.8742 521.187C15.8742 487.717 43.1036 460.489 76.5716 460.489Z" fill="black"/>
<path d="M76.5713 552.196C93.6646 552.196 107.566 538.289 107.566 521.201C107.566 504.108 93.6593 490.207 76.5713 490.207C59.478 490.207 45.5713 504.113 45.5713 521.201C45.5713 538.289 59.478 552.196 76.5713 552.196ZM76.5713 505.133C85.4254 505.133 92.634 512.341 92.634 521.196C92.634 530.05 85.4257 537.259 76.5713 537.259C67.712 537.259 60.5033 530.05 60.5033 521.196C60.5033 512.341 67.7116 505.133 76.5713 505.133Z" fill="black"/>
<path d="M245.012 536.129C286.714 536.129 320.642 502.203 320.642 460.499C320.642 418.795 286.716 384.868 245.012 384.868C203.314 384.868 169.381 418.795 169.381 460.499C169.381 502.203 203.313 536.129 245.012 536.129ZM245.012 399.796C278.481 399.796 305.709 427.025 305.709 460.493C305.709 493.961 278.48 521.191 245.012 521.191C211.542 521.191 184.314 493.961 184.314 460.493C184.319 427.024 211.544 399.796 245.012 399.796Z" fill="black"/>
<path d="M245.011 491.503C262.105 491.503 276.006 477.596 276.006 460.508C276.006 443.415 262.099 429.513 245.011 429.513C227.918 429.513 214.017 443.42 214.017 460.508C214.017 477.596 227.923 491.503 245.011 491.503ZM245.011 444.44C253.865 444.44 261.074 451.648 261.074 460.503C261.074 469.357 253.866 476.565 245.011 476.565C236.157 476.565 228.949 469.357 228.949 460.503C228.949 451.648 236.157 444.44 245.011 444.44Z" fill="black"/>
<path d="M109.825 422.463C151.527 422.463 185.455 388.536 185.455 346.832C185.455 305.128 151.529 271.201 109.825 271.201C68.1205 271.201 34.1938 305.128 34.1938 346.832C34.1991 388.535 68.1258 422.463 109.825 422.463V422.463ZM109.825 286.129C143.294 286.129 170.522 313.359 170.522 346.827C170.522 380.296 143.293 407.524 109.825 407.524C76.3552 407.524 49.1272 380.295 49.1272 346.827C49.1324 313.363 76.3565 286.129 109.825 286.129Z" fill="black"/>
<path d="M109.825 377.823C126.918 377.823 140.819 363.916 140.819 346.828C140.819 329.735 126.913 315.828 109.825 315.828C92.7314 315.828 78.8301 329.735 78.8301 346.828C78.8301 363.916 92.7367 377.823 109.825 377.823ZM109.825 330.76C118.679 330.76 125.887 337.968 125.887 346.828C125.887 355.682 118.679 362.891 109.825 362.891C100.97 362.891 93.7621 355.683 93.7621 346.828C93.7621 337.964 100.97 330.76 109.825 330.76Z" fill="black"/>
</svg>
