<svg width="573" height="641" viewBox="0 0 573 641" fill="none" xmlns="http://www.w3.org/2000/svg">
<path d="M572.084 223.905C571.511 220.681 569.485 217.9 566.574 216.364L482.126 171.807L535.637 63.5465C542.163 50.3642 538.991 34.3745 527.913 24.6772C520.058 17.7865 509.741 15.1356 499.497 17.3698C489.278 19.6042 481.013 26.3906 476.773 35.9578L428.991 143.77L379.355 117.593C375.819 115.697 371.532 116.009 368.23 118.322L291.147 172.868L229.011 118.972C225.787 116.139 221.105 115.592 217.261 117.493L181.392 135.504L87.9228 12.8265C79.0061 1.10248 63.2508 -3.16285 49.6521 2.45155C40.0063 6.43075 33.0121 14.5401 30.4908 24.6809C27.97 34.8216 30.3345 45.2489 37.0168 53.3062L127.673 162.489L16.7088 218.186C13.7452 219.665 11.6411 222.478 11.0161 225.754C10.4172 229.03 11.3807 232.41 13.6151 234.879L68.9124 295.686L3.24038 359.331C0.92785 361.565 -0.244005 364.737 0.0425281 367.935C0.328981 371.159 2.06851 374.045 4.75078 375.841L123.027 454.669L140.537 563.784C141.084 567.216 143.267 570.154 146.386 571.664L285.706 639.44C287.217 640.17 288.8 640.534 290.357 640.534C291.967 640.534 293.581 640.17 295.092 639.414L436.319 569.529C439.49 567.966 441.673 564.93 442.141 561.42L458.568 439.389L560.016 382.577C562.719 381.067 564.615 378.468 565.24 375.452C565.865 372.436 565.162 369.29 563.292 366.822L510.828 298.134L569.531 232.904C571.724 230.456 572.656 227.128 572.083 223.904L572.084 223.905ZM496.224 44.5988C497.703 41.2966 500.568 38.9581 504.078 38.1769C507.537 37.3957 511.151 38.3071 513.881 40.6977C517.703 44.0518 518.818 49.5622 516.558 54.1137L458.588 171.411C458.588 171.416 458.583 171.416 458.583 171.416C458.583 171.421 458.583 171.427 458.578 171.427L417.438 254.667C417.427 254.688 417.407 254.698 417.396 254.714C417.381 254.74 417.386 254.771 417.37 254.797L403.001 283.876C400.329 283.407 398.011 282.553 396.365 281.1C395.256 280.136 393.985 279.235 392.595 278.407L443.417 163.74C443.469 163.652 443.558 163.6 443.605 163.511C443.704 163.324 443.688 163.12 443.777 162.933L496.224 44.5988ZM290.491 391.319L106.651 296.059L198.203 247.455L206.39 257.314C199.614 261.101 192.188 267.736 184.312 279.21C180.984 284.075 182.234 290.7 187.067 294.027C188.911 295.277 191.02 295.902 193.098 295.902C196.478 295.902 199.833 294.267 201.885 291.277C209.791 279.684 217.822 273.132 222.395 274.559C238.207 279.397 254.135 270.361 264.354 262.428C264.427 262.376 264.521 262.371 264.593 262.314C264.661 262.262 264.687 262.184 264.755 262.131C268.687 259.048 271.812 256.152 273.588 254.361C277.724 250.199 277.698 243.465 273.51 239.309C269.776 235.574 263.989 235.418 259.822 238.47L246.942 221.569L290.431 198.465L382.718 248.162L370.64 275.417C363.707 276.735 355.5 279.854 345.708 285.823C340.692 288.891 339.104 295.443 342.145 300.459C345.213 305.527 351.843 307.063 356.781 304.022C368.74 296.714 378.828 294.115 382.365 297.183C389.673 303.553 399.005 305.605 407.975 305.605C408.443 305.605 408.881 305.516 409.344 305.506C409.37 305.506 409.402 305.527 409.428 305.527C409.469 305.527 409.506 305.496 409.553 305.496C421.48 305.178 432.599 301.522 437.323 299.704C442.808 297.6 445.563 291.438 443.433 285.949C441.354 280.439 435.141 277.684 429.678 279.84C429.324 279.975 428.912 280.053 428.548 280.189L431.417 274.381L474.079 297.365L290.491 391.319ZM375.194 139.492L420.344 163.284L391.386 228.617L310.651 185.159L375.194 139.492ZM220.46 139.726L271.783 184.257L233.871 204.388L194.527 152.748L220.46 139.726ZM51.1536 29.8305C52.013 26.3201 54.4296 23.5387 57.7839 22.1586C62.4921 20.1586 67.8984 21.6638 70.9661 25.7212L242.753 251.188C238.69 253.313 234.873 254.245 231.466 254.146L53.3864 39.7062C51.1 36.925 50.2667 33.3103 51.152 29.8259L51.1536 29.8305ZM38.8047 230.924L141.638 179.309L184.31 230.7L86.05 282.861L38.8047 230.924ZM85.6327 309.137L270.353 404.861L183.025 469.044L139.285 439.899C139.071 439.732 138.852 439.607 138.623 439.456L27.5552 365.44L85.6327 309.137ZM147.159 470.751L177.405 490.907C179.196 492.104 181.254 492.698 183.306 492.698C185.514 492.698 187.754 491.995 189.623 490.62L279.801 424.355L279.712 612.861L160.682 554.949L147.159 470.751ZM421.786 552.939L301.021 612.709L301.114 423.469L379.354 476.975C382.683 479.261 387.026 479.443 390.563 477.469L435.317 452.407L421.786 552.939ZM538.906 369.992L385.933 455.659L311.271 404.628L493.925 311.138L538.906 369.992ZM494.687 284.242L440.875 255.253L472.687 190.893L544.547 228.82L494.687 284.242Z" fill="black"/>
<path d="M323.364 300.186C328.64 297.587 330.802 291.191 328.229 285.915C325.604 280.613 319.156 278.504 313.958 281.051C302.833 286.535 287.723 290.149 280.911 285.238C272.229 278.92 256.526 275.436 230.865 294.337C226.13 297.821 225.12 304.478 228.604 309.233C230.683 312.066 233.907 313.577 237.183 313.577C239.391 313.577 241.604 312.9 243.5 311.499C254.755 303.181 264.531 299.723 268.38 302.452C287.12 316.149 315.23 304.165 323.364 300.186V300.186Z" fill="black"/>
<path d="M362.258 312.412C353.003 320.73 339.455 328.297 331.58 325.464C321.518 321.745 305.476 322.657 285.903 347.849C282.315 352.501 283.148 359.183 287.799 362.797C289.747 364.308 292.039 365.032 294.325 365.032C297.497 365.032 300.643 363.605 302.747 360.896C311.299 349.87 319.851 343.656 324.195 345.427C346.112 353.589 369.747 334.328 376.501 328.271C380.871 324.344 381.236 317.61 377.309 313.219C373.33 308.823 366.621 308.511 362.257 312.412L362.258 312.412Z" fill="black"/>
<path d="M245.071 326.545C232.306 327.587 217.358 323.66 213.326 316.353C208.128 306.993 195.492 297.165 164.112 303.405C158.368 304.577 154.623 310.191 155.769 315.962C156.915 321.681 162.165 325.4 168.326 324.306C181.977 321.551 192.373 322.462 194.69 326.644C205.378 345.988 233.534 347.858 244.007 347.858H245.435C251.309 347.754 255.992 342.894 255.914 337.014C255.836 331.149 251.648 327.248 245.07 326.545L245.071 326.545Z" fill="black"/>
<path d="M307.551 243.359C316.234 264.963 346.343 269.645 355.39 270.552C355.755 270.604 356.119 270.63 356.458 270.63C361.864 270.63 366.494 266.521 367.041 261.036C367.64 255.187 363.4 249.963 357.525 249.39C345.176 248.114 330.463 243.203 327.317 235.374C323.312 225.494 311.796 213.926 280.052 216.604C274.203 217.046 269.781 222.14 270.25 228.015C270.693 233.864 275.318 238.416 281.661 237.817C295.62 236.937 305.781 238.963 307.552 243.359L307.551 243.359Z" fill="black"/>
</svg>
