<svg width="28" height="29" viewBox="0 0 28 29" fill="none" xmlns="http://www.w3.org/2000/svg">
<g clip-path="url(#clip0_163_148)">
<path d="M27.9726 8.73208C27.907 7.24433 27.6664 6.22152 27.3218 5.33523C26.9662 4.39447 26.4193 3.5522 25.7026 2.85202C25.0024 2.14095 24.1546 1.58841 23.2248 1.23843C22.3333 0.893784 21.3159 0.653198 19.8281 0.587603C18.3293 0.516452 17.8534 0.5 14.0519 0.5C10.2504 0.5 9.77457 0.516452 8.28126 0.582047C6.79352 0.647642 5.7707 0.888443 4.88464 1.23287C3.94366 1.58841 3.10139 2.13539 2.40121 2.85202C1.69014 3.5522 1.13782 4.40002 0.787619 5.32989C0.442978 6.22152 0.202392 7.23877 0.136797 8.72652C0.0656465 10.2254 0.0491943 10.7012 0.0491943 14.5027C0.0491943 18.3043 0.0656465 18.7801 0.131242 20.2734C0.196837 21.7611 0.437637 22.784 0.782278 23.6702C1.13782 24.611 1.69014 25.4533 2.40121 26.1534C3.10139 26.8645 3.94921 27.4171 4.87908 27.767C5.7707 28.1117 6.78796 28.3523 8.27592 28.4179C9.76901 28.4837 10.2451 28.4999 14.0466 28.4999C17.8481 28.4999 18.3239 28.4837 19.8172 28.4179C21.305 28.3523 22.3278 28.1117 23.2139 27.767C25.0956 27.0395 26.5833 25.5518 27.3109 23.6702C27.6553 22.7786 27.8961 21.7611 27.9617 20.2734C28.0273 18.7801 28.0437 18.3043 28.0437 14.5027C28.0437 10.7012 28.0382 10.2254 27.9726 8.73208ZM25.4511 20.164C25.3909 21.5315 25.1612 22.2699 24.9698 22.7622C24.4993 23.982 23.5311 24.9501 22.3113 25.4206C21.8191 25.612 21.0753 25.8417 19.7132 25.9017C18.2363 25.9676 17.7934 25.9838 14.0575 25.9838C10.3215 25.9838 9.87306 25.9676 8.40156 25.9017C7.0341 25.8417 6.29568 25.612 5.8034 25.4206C5.19637 25.1962 4.64384 24.8407 4.19536 24.3758C3.73042 23.9217 3.37488 23.3747 3.15054 22.7677C2.95909 22.2754 2.7294 21.5315 2.66936 20.1696C2.60355 18.6927 2.58732 18.2496 2.58732 14.5136C2.58732 10.7777 2.60355 10.3292 2.66936 8.85792C2.7294 7.49047 2.95909 6.75204 3.15054 6.25976C3.37488 5.65253 3.73042 5.1002 4.20091 4.65151C4.65473 4.18657 5.20172 3.83103 5.80895 3.6069C6.30123 3.41546 7.04521 3.18577 8.40711 3.12551C9.88396 3.05992 10.3271 3.04347 14.0628 3.04347C17.8043 3.04347 18.2472 3.05992 19.7187 3.12551C21.0862 3.18577 21.8246 3.41546 22.3169 3.6069C22.9239 3.83103 23.4764 4.18657 23.9249 4.65151C24.3899 5.10554 24.7454 5.65253 24.9698 6.25976C25.1612 6.75204 25.3909 7.49581 25.4511 8.85792C25.5167 10.3348 25.5332 10.7777 25.5332 14.5136C25.5332 18.2496 25.5167 18.6871 25.4511 20.164Z" fill="#B3A094"/>
<path d="M14.0519 7.30981C10.081 7.30981 6.85913 10.5315 6.85913 14.5026C6.85913 18.4738 10.081 21.6954 14.0519 21.6954C18.0231 21.6954 21.2447 18.4738 21.2447 14.5026C21.2447 10.5315 18.0231 7.30981 14.0519 7.30981ZM14.0519 19.1684C11.4758 19.1684 9.38614 17.079 9.38614 14.5026C9.38614 11.9263 11.4758 9.83683 14.0519 9.83683C16.6283 9.83683 18.7177 11.9263 18.7177 14.5026C18.7177 17.079 16.6283 19.1684 14.0519 19.1684Z" fill="#B3A094"/>
<path d="M23.2086 7.02563C23.2086 7.95293 22.4567 8.70482 21.5292 8.70482C20.6019 8.70482 19.85 7.95293 19.85 7.02563C19.85 6.09811 20.6019 5.34644 21.5292 5.34644C22.4567 5.34644 23.2086 6.09811 23.2086 7.02563Z" fill="#B3A094"/>
</g>
<defs>
<clipPath id="clip0_163_148">
<rect width="28" height="28" fill="white" transform="translate(0 0.5)"/>
</clipPath>
</defs>
</svg>
