<svg width="28" height="29" viewBox="0 0 28 29" fill="none" xmlns="http://www.w3.org/2000/svg">
<path d="M19.5804 17.5128C20.2267 16.8479 21.2771 16.838 21.9365 17.4961L27.5125 23.0573C28.1566 23.7042 28.1804 24.7574 27.4763 25.4865L25.3877 27.1861C24.2599 28.1268 22.0054 28.5469 19.3717 27.9695C15.8143 27.1895 11.8001 24.7365 7.44913 20.296C-0.0283957 12.6648 -1.2964 6.24463 1.09661 2.91012L2.40266 1.26675L2.85676 0.734456C3.50987 0.0728442 4.56147 0.062819 5.21262 0.724026L10.7801 6.27969C11.4344 6.92201 11.4612 7.98604 10.7501 8.71062L10.1776 9.17091L8.7522 10.4065C8.33541 10.9068 8.67115 11.7216 9.82621 13.1527L14.5336 17.8426C16.7229 19.6208 17.5155 20.0329 17.9895 19.7188L19.5804 17.5128ZM18.7749 20.5945C17.6322 21.5269 16.5806 21.0145 13.7594 18.7193L8.96626 13.9435C7.41196 12.0252 6.90591 10.7966 7.92506 9.58463L9.43307 8.2677L9.97137 7.84008C10.1727 7.63306 10.1647 7.31565 9.96453 7.11922L4.39002 1.55651C4.19431 1.35775 3.88396 1.3609 3.71266 1.53211L3.30016 2.01719L2.02381 3.62278C1.36856 4.53588 1.02635 6.29144 1.45661 8.47008C2.08591 11.6569 4.23766 15.3466 8.27813 19.4701C12.4805 23.7589 16.3016 26.0937 19.6197 26.8212C21.9242 27.3265 23.8136 26.9743 24.6507 26.2761L26.6915 24.6211C26.8952 24.4082 26.888 24.0892 26.6919 23.8922L21.1169 18.332C20.9169 18.1324 20.6071 18.1354 20.468 18.269L18.8803 20.4823L18.7749 20.5945Z" fill="black"/>
</svg>
