<svg width="28" height="29" viewBox="0 0 28 29" fill="none" xmlns="http://www.w3.org/2000/svg">
<g clip-path="url(#clip0_163_154)">
<path d="M28 5.81825C26.9587 6.275 25.8492 6.57775 24.6925 6.72475C25.8825 6.01425 26.7908 4.89775 27.2178 3.552C26.1083 4.2135 24.8832 4.68075 23.5777 4.9415C22.5243 3.81975 21.0227 3.125 19.3848 3.125C16.2067 3.125 13.6482 5.7045 13.6482 8.86675C13.6482 9.32175 13.6868 9.75925 13.7812 10.1757C9.009 9.943 4.78625 7.65575 1.9495 4.1715C1.45425 5.03075 1.16375 6.01425 1.16375 7.073C1.16375 9.061 2.1875 10.8232 3.7135 11.8435C2.79125 11.826 1.8865 11.5583 1.12 11.1365C1.12 11.154 1.12 11.1768 1.12 11.1995C1.12 13.989 3.10975 16.306 5.719 16.8398C5.25175 16.9675 4.7425 17.0287 4.214 17.0287C3.8465 17.0287 3.4755 17.0077 3.12725 16.9307C3.871 19.204 5.9815 20.8752 8.491 20.9295C6.538 22.4573 4.05825 23.3778 1.37375 23.3778C0.903 23.3778 0.4515 23.3568 0 23.299C2.54275 24.9387 5.55625 25.875 8.806 25.875C19.369 25.875 25.144 17.125 25.144 9.5405C25.144 9.28675 25.1353 9.04175 25.123 8.7985C26.2622 7.99 27.2195 6.98025 28 5.81825Z" fill="#B3A094"/>
</g>
<defs>
<clipPath id="clip0_163_154">
<rect width="28" height="28" fill="white" transform="translate(0 0.5)"/>
</clipPath>
</defs>
</svg>
