<svg width="28" height="29" viewBox="0 0 28 29" fill="none" xmlns="http://www.w3.org/2000/svg">
<g clip-path="url(#clip0_163_152)">
<path d="M23.2342 15.7C22.7815 15.1283 22.911 14.874 23.2342 14.363C23.24 14.3572 26.9768 9.19348 27.3618 7.44232L27.3642 7.44115C27.5555 6.80298 27.3642 6.33398 26.439 6.33398H23.3777C22.5983 6.33398 22.239 6.73648 22.0465 7.18682C22.0465 7.18682 20.4878 10.9178 18.2828 13.3363C17.5712 14.0352 17.2422 14.2592 16.8537 14.2592C16.6623 14.2592 16.3648 14.0352 16.3648 13.397V7.44115C16.3648 6.67582 16.1467 6.33398 15.5015 6.33398H10.6878C10.199 6.33398 9.9085 6.69098 9.9085 7.02348C9.9085 7.74915 11.011 7.91598 11.1253 9.95765V14.3875C11.1253 15.3582 10.9492 15.5367 10.5583 15.5367C9.51767 15.5367 6.99183 11.7905 5.495 7.50298C5.19283 6.67115 4.89767 6.33515 4.1125 6.33515H1.05C0.176167 6.33515 0 6.73765 0 7.18798C0 7.98365 1.04067 11.9398 4.83933 17.1665C7.371 20.7342 10.9363 22.6673 14.1797 22.6673C16.1292 22.6673 16.3672 22.238 16.3672 21.4995C16.3672 18.0905 16.191 17.7685 17.1675 17.7685C17.6202 17.7685 18.3995 17.9925 20.2195 19.7133C22.2997 21.7538 22.6415 22.6673 23.8058 22.6673H26.8672C27.7398 22.6673 28.182 22.238 27.9277 21.391C27.3455 19.6095 23.4115 15.945 23.2342 15.7Z" fill="#B3A094"/>
</g>
<defs>
<clipPath id="clip0_163_152">
<rect width="28" height="28" fill="white" transform="translate(0 0.5)"/>
</clipPath>
</defs>
</svg>
