<?xml version="1.0" encoding="utf-8"?><svg viewBox="0 0 626 641" xmlns="http://www.w3.org/2000/svg" xmlns:xlink="http://www.w3.org/1999/xlink"><style>:root>svg{display:none}:root>svg:target{display:block}</style><svg viewBox="0 0 27 17" id="back" xmlns="http://www.w3.org/2000/svg"><path d="M27 8.403a.72.72 0 01-.721.717H2.363l6.187 6.156a.713.713 0 010 1.014.724.724 0 01-1.02 0L.212 9.007a.714.714 0 010-1.014L7.531.71a.724.724 0 011.02 0 .714.714 0 010 1.014L2.559 7.686h23.72c.398 0 .721.321.721.717z"/></svg><svg viewBox="0 0 29 26" id="cart" xmlns="http://www.w3.org/2000/svg"><path d="M.645.866A.643.643 0 000 1.507c0 .355.289.641.645.641h4.079c1.647 4.051 3.263 8.11 4.894 12.17l-1.51 3.605c-.166.389.17.893.594.892h16.115a.668.668 0 00.653-.641.668.668 0 00-.653-.641H9.669l1.087-2.604 15.723-1.252a.662.662 0 00.574-.491l1.934-8.334c.084-.372-.241-.778-.625-.78H6.88L5.751 1.266a.66.66 0 00-.594-.4H.645zm6.748 4.487h20.163l-1.652 7.092-15.168 1.202-3.343-8.294zm4.532 14.744c-1.595 0-2.9 1.3-2.9 2.885 0 1.585 1.306 2.884 2.9 2.884 1.594 0 2.9-1.299 2.9-2.884 0-1.586-1.306-2.885-2.9-2.885zm9.669 0c-1.595 0-2.9 1.3-2.9 2.885 0 1.585 1.306 2.884 2.9 2.884 1.594 0 2.9-1.299 2.9-2.884 0-1.586-1.306-2.885-2.9-2.885zm-9.67 1.282c.899 0 1.612.71 1.612 1.603 0 .892-.713 1.602-1.611 1.602s-1.612-.71-1.612-1.602c0-.893.714-1.603 1.612-1.603zm9.67 0c.897 0 1.611.71 1.611 1.603 0 .892-.714 1.602-1.611 1.602-.898 0-1.612-.71-1.612-1.602 0-.893.714-1.603 1.612-1.603z"/></svg><svg viewBox="0 0 414 415" id="cart--empty" xmlns="http://www.w3.org/2000/svg"><g clip-path="url(#cclip0_108_2)"><path opacity=".18" d="M403.681 199.622a174293.91 174293.91 0 01-20.175 92.613c-2.628 12.059-5.278 24.193-10.007 35.562a100.189 100.189 0 01-13.432 23.04c-16.598 21.424-41.556 36.446-68.452 40.11-17.148 2.338-34.673.366-51.789 2.92-21.607 3.233-41.556 13.492-62.894 18.159-30.462 6.67-62.712 1.541-91.558-10.356-22.716-9.365-61.59-26.198-76.746-50.811a41.604 41.604 0 01-5.935-15.508c-7.54-48.601 1.799-108.238 17.88-154.232C51.811 91.675 133.233 21.693 226.309 4.171c35.298-6.639 72.632-6.035 106.152 6.864 33.521 12.9 62.744 39.043 74.711 72.924 13.044 36.866 4.836 77.45-3.49 115.663z"/><path d="M360.067 350.859c-16.598 21.423-41.556 36.446-68.452 40.11-17.148 2.338-34.673.366-51.789 2.92-21.608 3.233-41.556 13.492-62.894 18.158-30.462 6.671-62.712 1.541-91.558-10.356-22.717-9.386-61.59-26.219-76.746-50.832h351.439z"/><path d="M204.722 357.098c-34.684-8.039-70.855-4.741-106.293-1.411-3.231.301-6.581.646-9.338 2.349-2.758 1.703-4.686 5.226-3.512 8.255 1.077 2.661 3.942 4.019 6.657 4.924 17.234 5.83 35.933 4.44 54.105 3.611 58.876-2.673 118.485 1.293 176.21-10.874 5.881-1.239 12.171-2.91 15.952-7.543-10.825-5.507-23.88-3.998-35.546-.658-11.665 3.341-22.954 8.417-35.018 9.753-6.775.743-9.048-6.369-14.66-8.945-4.308-1.982-7.119-1.487-11.536-.15-13.69 4.116-22.857 3.976-37.021.689z"/><path d="M162.325 350.977a9.15 9.15 0 11.53-18.286 9.149 9.149 0 01-.53 18.286zm-3.112-11.24a3.76 3.76 0 105.224-1.023 3.774 3.774 0 00-2.824-.569 3.772 3.772 0 00-2.4 1.592zM95.316 350.977a9.133 9.133 0 01-9.087-9.623 9.138 9.138 0 011.547-4.623 9.146 9.146 0 018.07-4.04 9.148 9.148 0 013.989 17.122 9.128 9.128 0 01-4.519 1.164zm-3.102-11.24a3.765 3.765 0 001.671 5.571 3.756 3.756 0 004.1-.805 3.764 3.764 0 00-.557-5.789 3.754 3.754 0 00-5.214 1.023z"/><path d="M237.079 161.032a11.622 11.622 0 01-1.411 3.007 12.003 12.003 0 01-4.459 3.308c-6.829 3.502-17.235 7.274-23.03 12.339a6.63 6.63 0 00-1.712 2.048c-.83 1.799 0 3.879.765 5.69a6.101 6.101 0 001.766 2.651c1.476 1.077 3.522.614 5.278.097a199.163 199.163 0 0019.841-7.081 85.718 85.718 0 0010.545-5.118 10.033 10.033 0 003.458-2.932 10.17 10.17 0 001.26-3.588 162.347 162.347 0 002.467-19.764l1.292-15.561c.259-2.996 9.372-13.482 6.625-15.54-5.386-4.03-13.217 6.94-14.445 9.192-3.468 6.348-6.893 27.416-8.24 31.252z"/><path d="M237.079 161.032a11.622 11.622 0 01-1.411 3.007 12.003 12.003 0 01-4.459 3.308c-6.829 3.502-17.235 7.274-23.03 12.339a6.63 6.63 0 00-1.712 2.048c-.83 1.799 0 3.879.765 5.69a6.101 6.101 0 001.766 2.651c1.476 1.077 3.522.614 5.278.097a199.163 199.163 0 0019.841-7.081 85.718 85.718 0 0010.545-5.118 10.033 10.033 0 003.458-2.932 10.17 10.17 0 001.26-3.588 162.347 162.347 0 002.467-19.764l1.292-15.561c.259-2.996 9.372-13.482 6.625-15.54-5.386-4.03-13.217 6.94-14.445 9.192-3.468 6.348-6.893 27.416-8.24 31.252z"/><path d="M320.73 329.575a8.566 8.566 0 011.304 4.645 4.422 4.422 0 01-5.591 3.524 7.982 7.982 0 01-2.607-1.746c-9.015-8.018-16.157-17.9-22.62-28.137-1.744-2.781-3.436-5.593-4.922-8.514a71.154 71.154 0 01-7.702-31.93 2.754 2.754 0 01.442-1.811 2.57 2.57 0 011.368-.722c4.459-1.25 11.407-1.368 15.349 1.541 4.427 3.233 3.361 13.417 3.167 18.051a14.01 14.01 0 00.582 5.873 14.943 14.943 0 003.231 4.311c9.037 9.709 12.172 23.169 17.999 34.915z"/><path d="M264.826 307.473a92.225 92.225 0 01-4.879 37.157 5.388 5.388 0 01-1.659 2.791 3.696 3.696 0 01-3.737.086c-2.92-1.422-3.943-4.526-4.438-7.543a237.943 237.943 0 01-3.081-40.283c0-6.368.183-12.435-.312-18.772-.496-6.52-1.228-13.029-1.228-19.581a2.687 2.687 0 01.344-1.886 2.494 2.494 0 012.036-.635c4.675 0 13.206-2.695 16.847.28 4.793 3.912-2.876 21.111-3.641 26.089-1.282 8.309 2.327 10.777 3.393 18.978.14 1.164.259 2.241.355 3.319z"/><path d="M241.291 261.404a5.69 5.69 0 00.894 3.588 5.317 5.317 0 002.639 1.487c5.127 1.595 10.534 1.929 15.888 2.263 1.637.097 3.447.141 4.707-.894a6.595 6.595 0 001.691-2.737l5.946-14.559a127.722 127.722 0 00-.399 15.453 4.483 4.483 0 00.916 3.082c.865.668 1.948.99 3.037.905a112.4 112.4 0 0024.635-1.788c3.145-11.607 3.231-23.881 1.669-35.8-.614-4.644-1.529-9.375-3.996-13.362a7.725 7.725 0 00-2.499-2.705 9.818 9.818 0 00-4.998-.938c-12.473-.129-25.14-.42-37.538 1.347-3.867.55-5.892 1.757-7.239 5.539a96.18 96.18 0 00-4.039 18.32 131.081 131.081 0 00-1.314 20.799z"/><path d="M301.245 268.204l-1.939.334a112.012 112.012 0 01-22.696 1.455 4.414 4.414 0 01-3.037-.906 4.482 4.482 0 01-.916-3.082c-.167-4.794-.059-9.594.323-14.376v-.366c0-.118 0-.474.054-.711-1.982 4.838-3.953 9.699-5.935 14.537a6.589 6.589 0 01-1.691 2.737c-1.26 1.078-3.07.992-4.707.895h-.743c-5.106-.323-10.244-.701-15.08-2.22a5.243 5.243 0 01-2.639-1.487 5.69 5.69 0 01-.894-3.589 131.047 131.047 0 011.314-20.852 96.152 96.152 0 014.018-18.234c1.346-3.782 3.371-4.989 7.238-5.539 12.398-1.767 25.065-1.476 37.538-1.347 1.556-.09 3.113.153 4.567.711.15.065.294.14.431.227a7.714 7.714 0 012.499 2.704c2.467 3.988 3.383 8.719 3.996 13.363 1.552 11.865 1.444 24.139-1.701 35.746z"/><path d="M301.245 268.204l-1.939.334a15.22 15.22 0 01-1.347-.787 7.115 7.115 0 01-2.606-2.479 7.651 7.651 0 01-.668-3.34c-.356-9.613 1.476-19.398-.474-28.784-.7-3.384-2.101-6.466-3.102-9.699-.916-2.985 1.131-4.763 3.533-6.466a9.067 9.067 0 011.346-.83c.149.065.293.141.431.227a7.725 7.725 0 012.499 2.705c2.467 3.987 3.382 8.718 3.996 13.362 1.584 11.876 1.476 24.15-1.669 35.757z"/><path d="M273.045 250.573c-1.982 4.839-3.953 9.699-5.935 14.538a6.595 6.595 0 01-1.691 2.737c-1.26 1.078-3.07.991-4.707.894h-.744a4.76 4.76 0 01-.786-.528 5.771 5.771 0 01-1.659-6.466 13.668 13.668 0 011.982-2.974c4.697-6.024 7.26-13.384 9.759-20.604a15.675 15.675 0 013.016 5.312c.694 2.296.954 4.701.765 7.091z"/><path d="M270.621 111.342a7.886 7.886 0 01-2.154 5.216c-1.982 1.789-4.987 1.681-7.475 2.683a2.08 2.08 0 00-.83.517 1.795 1.795 0 00-.377.755 6.307 6.307 0 00.291 3.901 13.718 13.718 0 008.51 7.856 25.648 25.648 0 0011.848.83 8.876 8.876 0 003.749-1.078 9.31 9.31 0 002.833-3.556 11.602 11.602 0 001.518-4.171 4.313 4.313 0 00-1.572-3.976 8.64 8.64 0 00-1.745-.809 15.583 15.583 0 01-2.747-1.379 4.106 4.106 0 01-1.95-2.155 5.22 5.22 0 01.097-2.371c.491-2.621.491-5.31 0-7.931a7.39 7.39 0 00-.711-2.231 4.487 4.487 0 00-1.355-1.499 4.474 4.474 0 00-5.635.421c-2.542 2.317-1.993 5.981-2.295 8.977z"/><path d="M258.697 97.408a16.373 16.373 0 00.442 5.324c1.271 4.127 5.634 6.789 9.953 6.961a7.94 7.94 0 004.115-.786 9.726 9.726 0 002.003-1.52c3.016-2.759 5.795-6.056 6.711-10.043.313-1.513.443-3.058.387-4.602a17.9 17.9 0 00-1.163-6.66 11.848 11.848 0 00-9.274-7.07c-4.169-.527-8.079 1.585-11.127 4.204-1.53 1.314-1.303 3.9-1.497 5.873a133.39 133.39 0 00-.55 8.32z"/><path d="M259.215 74.422c-1.164 1.994-1.95 4.31-3.749 5.744-.743.582-1.616 1.002-2.305 1.638a5.323 5.323 0 00-.28 7.005 6.969 6.969 0 006.98 2.155 10.158 10.158 0 005.978-4.559c.894-1.4 1.691-3.103 3.231-3.62a4.46 4.46 0 013.91.98c1.131.82 2.079 1.897 3.232 2.63.688.353 1.347.76 1.971 1.217 1.853 1.606 1.573 4.505 1.142 6.919.775.237.926-1.153 1.605-1.595.678-.442 1.465.205 1.583.927.04.73-.169 1.451-.592 2.047-1.767 3.093-3.857 6.132-4.449 9.634-.12.467-.097.958.065 1.412.356.539.902.924 1.529 1.078a8.497 8.497 0 003.415.7 3.714 3.714 0 002.983-1.584c.333-.624.535-1.31.593-2.015.146-2.337.463-4.66.948-6.951 1.303-4.505 5.17-8.427 4.599-13.072a14.463 14.463 0 00-2.574-5.798 17.296 17.296 0 00-2.715-3.577 16.838 16.838 0 00-3.403-2.263 25.667 25.667 0 00-8.165-3.136c-3.415-.518-6.463.592-9.802.754-2.628.119-4.266.754-5.73 3.33z"/><path d="M298.282 220.022a15.555 15.555 0 01-6.462 2.597 86.147 86.147 0 01-37.603-.064c-2.586-.593-5.462-1.541-6.582-3.955a9.172 9.172 0 01-.549-4.16l.883-39.97c.334-15.141.668-30.335 2.887-45.315a25.346 25.346 0 013.619-8.685c1.443-1.972 7.982-.916 13.443-4.451 1.497-.97-1.756 4.041 3.134 6.11 5.074 2.155 10.772-7.942 13.852-3.89 1.735 2.263 7.25.582 8.995 2.834 1.4 1.811 2.262 5.636 2.811 10.248 1.163 9.796.872 23.094 1.077 27.933.916 16.93-.506 38.526 5.084 52.503 1.282 3.039-2.068 6.272-4.589 8.265z"/><path d="M298.282 220.022a15.555 15.555 0 01-6.462 2.597 86.058 86.058 0 01-9.372 1.541l-.883-.118c2.305-7.544 2.413-15.475 2.348-23.32 0-4.311-.129-8.675-.215-13.007-.054-2.738-.151-5.615-1.562-7.953-1.411-2.339-4.621-3.826-6.969-2.414 4.039-2.436 7.346-12.738 9.005-16.962a85.14 85.14 0 004.976-18.999c.625-4.462.388-12.307 7.217-10.195l.377.13c1.163 9.795.873 23.093 1.077 27.932.916 16.93-.506 38.526 5.084 52.503 1.25 3.039-2.1 6.272-4.621 8.265z"/><path d="M259.688 341.203c.39.033.753.214 1.013.506.164.334.228.709.183 1.078 0 2.155 1.368 4.106 1.293 6.24-.054 1.907-1.239 3.696-1.077 5.603 0 .378.096.819-.173 1.078a1.168 1.168 0 01-.614.259 337.258 337.258 0 01-16.297 2.705 4.21 4.21 0 01-3.005-.324c-.42-.32-.75-.743-.959-1.228-1.476-3.007-.161-6.692 1.842-9.376 4.901-6.606 9.63-8.19 17.794-6.541zM327.753 340.362a7.434 7.434 0 01-2.757 4.311 43.61 43.61 0 01-11.741 7.759 4.891 4.891 0 01-2.855.604 3.568 3.568 0 01-2.574-3.481 10.408 10.408 0 011.185-4.483c2.079-4.806 3.522-11.854 9.069-13.762 4.848-1.627 10.19 4.268 9.673 9.052z"/><path d="M259.688 341.203c.39.033.753.214 1.013.506.164.334.228.709.183 1.078 0 2.155 1.368 4.106 1.293 6.24-.054 1.907-1.239 3.696-1.077 5.603 0 .378.096.819-.173 1.078a1.168 1.168 0 01-.614.259 337.258 337.258 0 01-16.297 2.705 4.21 4.21 0 01-3.005-.324c-.42-.32-.75-.743-.959-1.228-1.476-3.007-.161-6.692 1.842-9.376 4.901-6.606 9.63-8.19 17.794-6.541z"/><path d="M324.996 344.695a43.619 43.619 0 01-11.741 7.759 4.89 4.89 0 01-2.855.603"/><path d="M287.716 159.836a8.436 8.436 0 01-.42 4.009c-.776 1.778-2.575 2.855-4.309 3.815l-38.206 21.628c-1.788 1.013-3.706 2.155-4.47 4.073-1.681 4.311 3.586 8.18 8.164 8.524 4.794.356 9.512-1.077 14.057-2.661a245.294 245.294 0 0041.427-18.751 7.448 7.448 0 004.739-8.266 197.772 197.772 0 00-2.412-31.51c-.894-5.701-2.155-11.66-6-15.982-5.687-6.465-16.071-6.659-16.965 2.813-.991 10.755 3.673 21.725 4.395 32.308z"/><path d="M287.716 159.836a8.436 8.436 0 01-.42 4.009c-.776 1.778-2.575 2.855-4.309 3.815l-38.206 21.628c-1.788 1.013-3.706 2.155-4.47 4.073-1.681 4.311 3.586 8.18 8.164 8.524 4.794.356 9.512-1.077 14.057-2.661a245.294 245.294 0 0041.427-18.751 7.448 7.448 0 004.739-8.266 197.772 197.772 0 00-2.412-31.51c-.894-5.701-2.155-11.66-6-15.982-5.687-6.465-16.071-6.659-16.965 2.813-.991 10.755 3.673 21.725 4.395 32.308z"/><path d="M235.399 192.876a10.864 10.864 0 00-7.432 2.91 6.655 6.655 0 00-1.401 7.544 3.644 3.644 0 001.993 1.81 3.94 3.94 0 002.337-.075c2.155-.658 3.932-2.328 6.043-3.233a2.445 2.445 0 011.648-.184 6.65 6.65 0 011.013.636 3.223 3.223 0 002.908.097 5.38 5.38 0 002.219-1.993 5.76 5.76 0 001.077-3.729c-.215-2.048-1.4-2.705-3.167-2.91-2.423-.258-4.75-.959-7.238-.873zM199.907 186.227a9.947 9.947 0 00-2.036 4.311 4.475 4.475 0 00.076 2.263 3.904 3.904 0 003.694 2.349 9.006 9.006 0 004.406-1.368 56.668 56.668 0 007.033-4.796 5.547 5.547 0 001.218-1.131 3.476 3.476 0 00-.55-4.311c-3.64-3.653-11.105-.711-13.841 2.683z"/><path d="M165.374 310.706H74.592L39.36 214.688H192.7l-27.327 96.018zm-87.023-5.388h82.94l24.268-85.263H47.071l31.28 85.263z"/><path d="M201.2 310.706h-90.793l-35.222-96.018h155.97L201.2 310.706zm-87.012-5.388h82.94l24.268-85.263H82.951l31.237 85.263z"/><path d="M201.738 310.76h-42.999l19.259-67.946 15.899-49.345 43.365.582-35.524 116.709zm-35.879-5.389h31.894l32.314-106.029-32.228-.431-14.714 45.466-17.266 60.994z"/><path d="M201.652 337.593H96.394v-5.388h99.872v-24.172h5.386v29.56z"/><path d="M166.419 337.593H80.721v-5.388h80.312v-24.172h5.386v29.56z"/><path d="M184.288 350.977a9.143 9.143 0 01-8.448-5.648 9.144 9.144 0 011.982-9.97 9.14 9.14 0 019.966-1.984 9.148 9.148 0 015.645 8.453 9.146 9.146 0 01-9.145 9.149zm0-12.931a3.758 3.758 0 00-3.687 4.494 3.766 3.766 0 002.954 2.955 3.756 3.756 0 003.859-1.599 3.763 3.763 0 00.634-2.089 3.766 3.766 0 00-1.109-2.646 3.756 3.756 0 00-2.651-1.094v-.021zM118.96 350.977a9.13 9.13 0 01-9.088-9.623 9.14 9.14 0 011.548-4.623 9.14 9.14 0 0112.513-2.616 9.152 9.152 0 01-4.973 16.862zm-3.113-11.24a3.764 3.764 0 001.671 5.571 3.756 3.756 0 004.1-.805 3.767 3.767 0 00.824-4.098 3.755 3.755 0 00-4.199-2.254 3.772 3.772 0 00-2.396 1.586z"/><path d="M221.655 233.935H51.412v4.062h170.243v-4.062zM217.206 247.588H55.053v4.063h162.153v-4.063zM212.757 261.242H60.309v4.063h152.448v-4.063zM208.309 274.896H65.566v4.062h142.743v-4.062zM203.86 288.549H70.822v4.063H203.86v-4.063z"/><path d="M62.207 216.265l-3.815 1.392 32.748 89.819 3.815-1.392-32.748-89.819zM109.565 216.379l-3.896 1.148 26.082 88.602 3.896-1.148-26.082-88.602zM149.382 215.676l-4.059.136 3.03 90.417 4.058-.136-3.029-90.417zM196.049 218.165l-27.278 88.601 3.881 1.196 27.278-88.601-3.881-1.196z"/></g><defs><linearGradient id="cpaint0_linear_108_2" x1="213.285" y1="310.447" x2="210.256" y2="416.638" gradientUnits="userSpaceOnUse"><stop offset=".01"/><stop offset=".13" stop-opacity=".69"/><stop offset="1" stop-opacity="0"/></linearGradient><linearGradient id="cpaint1_linear_108_2" x1="248.152" y1="178.942" x2="239.055" y2="163.471" gradientUnits="userSpaceOnUse"><stop offset=".01"/><stop offset=".13" stop-opacity=".69"/><stop offset="1" stop-opacity="0"/></linearGradient><linearGradient id="cpaint2_linear_108_2" x1="287.5" y1="215.345" x2="261.198" y2="273.184" gradientUnits="userSpaceOnUse"><stop offset=".01"/><stop offset=".13" stop-opacity=".69"/><stop offset="1" stop-opacity="0"/></linearGradient><linearGradient id="cpaint3_linear_108_2" x1="290.883" y1="242.319" x2="303.916" y2="242.319" gradientUnits="userSpaceOnUse"><stop offset=".01"/><stop offset=".13" stop-opacity=".69"/><stop offset="1" stop-opacity="0"/></linearGradient><linearGradient id="cpaint4_linear_108_2" x1="259.559" y1="248.978" x2="285.68" y2="272.2" gradientUnits="userSpaceOnUse"><stop offset=".01"/><stop offset=".13" stop-opacity=".69"/><stop offset="1" stop-opacity="0"/></linearGradient><linearGradient id="cpaint5_linear_108_2" x1="344.643" y1="180.667" x2="222.397" y2="173.787" gradientUnits="userSpaceOnUse"><stop offset=".01"/><stop offset=".13" stop-opacity=".69"/><stop offset="1" stop-opacity="0"/></linearGradient><linearGradient id="cpaint6_linear_108_2" x1="239.417" y1="349.673" x2="262.187" y2="349.673" gradientUnits="userSpaceOnUse"><stop offset=".01"/><stop offset=".13" stop-opacity=".69"/><stop offset="1" stop-opacity="0"/></linearGradient><linearGradient id="cpaint7_linear_108_2" x1="310.4" y1="348.897" x2="324.996" y2="348.897" gradientUnits="userSpaceOnUse"><stop offset=".01"/><stop offset=".13" stop-opacity=".69"/><stop offset="1" stop-opacity="0"/></linearGradient><linearGradient id="cpaint8_linear_108_2" x1="291.087" y1="200.388" x2="271.965" y2="163.378" gradientUnits="userSpaceOnUse"><stop offset=".01"/><stop offset=".13" stop-opacity=".69"/><stop offset="1" stop-opacity="0"/></linearGradient><clipPath id="cclip0_108_2"><path d="M0 0h414v415H0z"/></clipPath></defs></svg><svg viewBox="0 0 29 36" id="category1" xmlns="http://www.w3.org/2000/svg"><path d="M28.55 30.483c-.184-.345-.514-.575-.919-.575h-2.61v-1.572a1.91 1.91 0 001.47-1.88v-2.3c0-1.074-.808-1.917-1.838-1.917h-5.881v-1.572a1.91 1.91 0 001.47-1.879v-2.3c0-.307-.074-.576-.184-.844l8.161-7.285c.147-.154.184-.384.037-.537l-1.838-2.3a.585.585 0 00-.258-.154c-.11 0-.22.038-.294.115l-6.874 6.978L26.75 2.57c.11-.153.11-.422-.037-.537L24.507.115A.39.39 0 0024.249 0c-.11 0-.183.077-.257.153L14.176 14.57h-3.86c-1.029 0-1.838.844-1.838 1.917v2.301c0 .92.625 1.687 1.47 1.879l.001 1.572H4.067c-1.03 0-1.838.843-1.838 1.917v2.3c0 .92.625 1.688 1.47 1.88v1.571H1.054c-.368 0-.736.192-.92.575-.183.345-.183.767.037 1.112.772 1.304 2.096 2.11 3.566 2.147.184.882.92 1.534 1.802 1.534h17.645c.883 0 1.618-.652 1.802-1.534 1.47-.038 2.793-.843 3.565-2.147a1.19 1.19 0 000-1.111zm-16.028-.575v-1.572a1.91 1.91 0 001.47-1.88v-2.3c0-.422-.146-.843-.367-1.15h1.47c-.22.307-.367.729-.367 1.15v2.301c0 .92.625 1.687 1.47 1.879v1.572h-3.676zm4.411-4.985c0-.23.148-.383.368-.383h6.617c.22 0 .368.153.368.383v4.985h-7.352v-4.985zm8.823-.767v2.301c0 .499-.294.92-.735 1.074v-2.608c0-.652-.478-1.15-1.103-1.15h-6.617c-.625 0-1.103.499-1.103 1.15v2.608c-.441-.154-.735-.575-.735-1.074v-2.3c0-.652.478-1.151 1.103-1.151h8.087c.625 0 1.103.498 1.103 1.15zm-6.25-7.668v2.3c0 .499-.294.92-.735 1.074v-2.607c0-.154-.036-.269-.073-.422l.772-.69c.037.115.037.23.037.345zm6.581-10.161l1.36 1.687L18 16.449l-5.11 4.601c-.183.154-.44.154-.588-.038a.446.446 0 01-.11-.306c0-.116.037-.23.147-.307L26.087 6.327zm-9.521 12.461v1.534c0 .23-.147.383-.368.383h-.368v-1.15c0-.038 0-.077-.036-.115l.772-.69v.038zm-2.206 1.917l.735-.651v.651h-.735zm-2.206-1.265v-.652c0-.23.147-.383.368-.383h.625l-.993 1.035zM24.36.96l1.617 1.418-9.594 12.193h-1.324L24.358.96zM9.213 18.789v-2.301c0-.652.478-1.15 1.103-1.15h5.845l-.735.766h-4.375c-.625 0-1.103.499-1.103 1.15v2.608c-.441-.154-.735-.575-.735-1.074zm1.47-1.535c0-.23.147-.383.368-.383h3.603l-.772.767h-1.36c-.625 0-1.103.498-1.103 1.15V20.4c-.037.115-.037.191-.037.306 0 .346.11.652.33.882.221.23.515.345.846.345.258 0 .552-.115.772-.306l.22-.192H16.199c.625 0 1.103-.499 1.103-1.15V18.75c0-.192-.074-.384-.147-.575l.882-.806v4.87h-7.353v-4.985zm-7.72 9.203v-2.301c0-.652.478-1.15 1.103-1.15h8.088c.625 0 1.103.498 1.103 1.15v2.3c0 .5-.294.921-.735 1.074v-2.607c0-.652-.478-1.15-1.103-1.15H4.802c-.625 0-1.103.498-1.103 1.15v2.607c-.441-.153-.735-.575-.735-1.073zm1.471-1.534c0-.23.147-.384.368-.384h6.617c.22 0 .368.154.368.384v4.985H4.434v-4.985zm18.749 9.586H5.537c-.478 0-.882-.307-1.03-.767H24.25c-.184.46-.589.767-1.067.767zm4.742-3.336c-.662 1.112-1.801 1.802-3.051 1.802H3.883c-1.25 0-2.39-.69-3.051-1.802a.297.297 0 010-.345c.036-.038.11-.153.257-.153H27.667c.148 0 .221.114.258.153a.555.555 0 010 .345z"/><path d="M9.949 25.307H6.273c-.625 0-1.103.498-1.103 1.15v1.534c0 .651.478 1.15 1.103 1.15h3.676c.625 0 1.103-.499 1.103-1.15v-1.534c0-.652-.478-1.15-1.103-1.15zm.367 1.15v.383h-2.94v-.766h2.572c.221 0 .368.153.368.383zm-2.94 1.15h1.102v.767H7.375v-.767zm-1.471.384v-1.534c0-.23.147-.384.368-.384h.367v2.301h-.367c-.22 0-.368-.153-.368-.383zm4.044.383h-.735v-.767h1.103v.384c0 .23-.148.383-.368.383zM22.448 25.307h-3.676c-.625 0-1.103.498-1.103 1.15v1.534c0 .651.478 1.15 1.103 1.15h3.676c.625 0 1.103-.499 1.103-1.15v-1.534c0-.652-.478-1.15-1.103-1.15zm.367 1.15v.383h-2.94v-.766h2.573c.22 0 .367.153.367.383zm-2.94 1.15h1.102v.767h-1.102v-.767zm-1.47.384v-1.534c0-.23.146-.384.367-.384h.368v2.301h-.368c-.22 0-.368-.153-.368-.383zm4.043.383h-.735v-.767h1.103v.384c0 .23-.148.383-.368.383z"/></svg><svg viewBox="0 0 599 598" id="category2" xmlns="http://www.w3.org/2000/svg"><path d="M181.491 248.089c37.292 0 67.636-30.338 67.636-67.636V67.636C249.127 30.344 218.789 0 181.491 0H68.674C31.382 0 1.038 30.339 1.038 67.636v112.817c0 37.292 30.339 67.636 67.636 67.636h112.817zm-165.52-67.63v-95.26h12.964a7.469 7.469 0 100-14.938H15.971v-2.625c0-29.063 23.64-52.703 52.703-52.703h65.079v11.079a7.468 7.468 0 1014.937 0V14.944h32.807c29.063 0 52.703 23.64 52.703 52.702v39.375h-11.672a7.469 7.469 0 000 14.938H234.2v58.51c0 10.412-3.073 20.104-8.308 28.287l-8.458-8.458a7.462 7.462 0 00-10.557 0 7.462 7.462 0 000 10.557l9.25 9.25c-9.271 8.109-21.364 13.068-34.626 13.068l-97.082-.016v-15.683a7.468 7.468 0 00-7.47-7.468 7.468 7.468 0 00-7.468 7.468v15.683h-.813c-29.057 0-52.697-23.64-52.697-52.697v-.001z"/><path d="M214.891 85.196a7.469 7.469 0 007.469-7.469V66.373a7.469 7.469 0 10-14.938 0v11.36a7.468 7.468 0 007.469 7.463zM178.598 202.449a7.464 7.464 0 00-10.557 0 7.463 7.463 0 000 10.558l6.765 6.765a7.445 7.445 0 005.281 2.188 7.45 7.45 0 005.282-2.188 7.464 7.464 0 000-10.557l-6.771-6.766zM184.385 49.084a7.443 7.443 0 005.281 2.187c1.911 0 3.823-.729 5.281-2.187a7.462 7.462 0 000-10.557l-6.766-6.766a7.462 7.462 0 00-10.557 0 7.462 7.462 0 000 10.557l6.761 6.766zM49.225 143.916c3.474 13.344 10.354 25.609 20.364 35.615 13.563 13.562 31.229 21.469 50.188 22.724v10.875a7.468 7.468 0 007.469 7.468 7.467 7.467 0 007.468-7.468v-11.271c17.307-2.11 33.328-9.808 45.85-22.334 4.411-4.411 8.109-9.25 11.244-14.344l8.704 8.704a7.444 7.444 0 005.281 2.187 7.446 7.446 0 005.281-2.187 7.463 7.463 0 000-10.558l-12.375-12.375c10.104-27.781 4.12-60.15-18.131-82.396-18.484-18.484-43.958-25.718-67.978-21.874l-11.516-11.516a7.463 7.463 0 00-10.557 0 7.463 7.463 0 000 10.557l5.469 5.47A78.012 78.012 0 0069.6 68.555C54.778 83.38 46.616 103.083 46.616 124.04c0 1.662.14 3.297.24 4.938H35.929a7.469 7.469 0 100 14.937l13.296.001zM80.15 79.119c12.391-12.386 28.651-18.579 44.927-18.579 16.265 0 32.541 6.193 44.927 18.579 24.77 24.776 24.77 65.082 0 89.854-12 12-27.959 18.61-44.927 18.61s-32.927-6.604-44.927-18.61c-12-12-18.609-27.958-18.609-44.926 0-16.97 6.61-32.922 18.61-44.927v-.001zM48.158 185.049a7.464 7.464 0 00-10.557 0 7.463 7.463 0 000 10.558l9.468 9.468a7.443 7.443 0 005.282 2.188 7.443 7.443 0 005.28-2.188 7.462 7.462 0 000-10.557l-9.473-9.469zM53.225 56.595a7.445 7.445 0 005.28 2.187c1.912 0 3.824-.73 5.282-2.187a7.463 7.463 0 000-10.558l-8.182-8.182a7.463 7.463 0 00-10.558 0 7.463 7.463 0 000 10.557l8.178 8.183zM417.824 597.209h112.818c37.292 0 67.636-30.338 67.636-67.636V416.756c0-37.292-30.339-67.636-67.636-67.636H417.824c-37.292 0-67.636 30.339-67.636 67.636v112.817c0 37.298 30.344 67.636 67.636 67.636zm-52.697-162.893h12.969a7.469 7.469 0 000-14.937h-12.969v-2.626c0-29.062 23.64-52.702 52.703-52.702h65.078v11.067a7.468 7.468 0 007.469 7.469 7.468 7.468 0 007.469-7.469v-11.067h32.807c29.062 0 52.702 23.64 52.702 52.702v39.37h-11.671a7.468 7.468 0 00-7.469 7.469 7.468 7.468 0 007.469 7.468h11.671v58.511c0 10.412-3.073 20.104-8.307 28.287l-8.458-8.459a7.465 7.465 0 00-10.558 0 7.465 7.465 0 000 10.558l9.245 9.244c-9.281 8.115-21.38 13.073-34.636 13.073h-97.068v-15.682a7.469 7.469 0 00-14.937 0l.005 15.682h-.818c-29.063 0-52.703-23.64-52.703-52.702v-95.255l.007-.001z"/><path d="M564.038 434.316a7.469 7.469 0 007.469-7.469v-11.359a7.469 7.469 0 00-14.938 0v11.359c.006 4.125 3.344 7.469 7.469 7.469zM527.758 551.569a7.464 7.464 0 00-10.557 0 7.463 7.463 0 000 10.558l6.765 6.765a7.445 7.445 0 005.281 2.188 7.445 7.445 0 005.282-2.188 7.464 7.464 0 000-10.557l-6.771-6.766zM533.532 398.209a7.461 7.461 0 005.281 2.183c1.911 0 3.823-.73 5.281-2.188a7.474 7.474 0 00-.005-10.562l-6.766-6.761a7.474 7.474 0 00-10.562.005 7.474 7.474 0 00.005 10.563l6.766 6.76zM398.425 493.036c3.396 13.052 10.12 25.412 20.322 35.615 13.563 13.562 31.23 21.469 50.188 22.724v10.875a7.468 7.468 0 007.469 7.468 7.468 7.468 0 007.469-7.468v-11.271c17.307-2.109 33.328-9.807 45.849-22.333 4.37-4.37 8.084-9.204 11.261-14.334l8.682 8.698a7.447 7.447 0 005.281 2.188 7.45 7.45 0 005.282-2.188 7.464 7.464 0 000-10.557l-12.344-12.344c3.114-8.526 4.823-17.593 4.823-26.937 0-20.959-8.162-40.667-22.984-55.484-14.823-14.823-34.527-22.984-55.484-22.984-4.245 0-8.412.422-12.526 1.078l-11.485-11.485a7.464 7.464 0 00-10.557 0 7.463 7.463 0 000 10.558l5.448 5.448a78.28 78.28 0 00-26.37 17.38c-16.552 16.552-24.068 38.713-22.708 60.421h-10.958a7.469 7.469 0 000 14.938l13.342-.006zm30.88-64.797c12-12 27.958-18.61 44.926-18.61 16.968 0 32.927 6.605 44.927 18.61 12 12 18.609 27.958 18.609 44.926 0 16.968-6.604 32.927-18.609 44.927-12 12-27.959 18.609-44.927 18.609s-32.926-6.604-44.926-18.609c-24.766-24.771-24.766-65.083 0-89.855v.002zM397.305 534.156a7.462 7.462 0 00-10.557 0 7.462 7.462 0 000 10.557l9.468 9.469a7.445 7.445 0 005.282 2.188c1.911 0 3.822-.73 5.281-2.188a7.464 7.464 0 000-10.557l-9.474-9.469zM402.358 405.716a7.446 7.446 0 005.281 2.187 7.444 7.444 0 005.281-2.187 7.462 7.462 0 000-10.557l-8.182-8.183a7.464 7.464 0 00-10.557 0 7.463 7.463 0 000 10.558l8.177 8.182zM479.745 76.05c0-41.933-34.115-76.047-76.047-76.047-41.927 0-76.041 34.114-76.041 76.046 0 41.932 34.114 76.047 76.046 76.047 41.927-.005 76.042-34.115 76.042-76.047zm-137.16 0c0-33.698 27.412-61.11 61.109-61.11s61.109 27.412 61.109 61.11c0 33.697-27.412 61.109-61.109 61.109s-61.109-27.412-61.109-61.11z"/><path d="M434.838 76.05c0-17.173-13.969-31.14-31.14-31.14-17.172 0-31.14 13.969-31.14 31.14s13.969 31.139 31.14 31.139c17.172 0 31.14-13.969 31.14-31.14zm-47.349 0c0-8.938 7.271-16.209 16.208-16.209 8.937 0 16.208 7.271 16.208 16.208 0 8.938-7.271 16.208-16.208 16.208-8.938 0-16.208-7.27-16.208-16.208zM522.225 124.929c-41.932 0-76.047 34.115-76.047 76.047 0 41.932 34.115 76.047 76.047 76.047 41.932 0 76.047-34.115 76.047-76.047 0-41.932-34.115-76.047-76.047-76.047zm0 137.16c-33.697 0-61.109-27.412-61.109-61.109s27.412-61.109 61.109-61.109 61.109 27.412 61.109 61.109c0 33.693-27.412 61.109-61.109 61.109z"/><path d="M522.225 169.823c-17.172 0-31.14 13.969-31.14 31.14 0 17.17 13.969 31.14 31.14 31.14s31.14-13.97 31.14-31.14c0-17.171-13.969-31.14-31.14-31.14zm0 47.349c-8.937 0-16.208-7.271-16.208-16.208 0-8.937 7.271-16.208 16.208-16.208 8.937 0 16.208 7.271 16.208 16.208 0 8.937-7.271 16.208-16.208 16.208zM280.211 248.263c0 41.932 34.115 76.046 76.047 76.046 41.932 0 76.047-34.114 76.047-76.046 0-41.932-34.115-76.047-76.047-76.047-41.932 0-76.047 34.115-76.047 76.047zm76.047-61.11c33.697 0 61.109 27.412 61.109 61.11 0 33.697-27.412 61.109-61.109 61.109s-61.109-27.412-61.109-61.109c-.005-33.698 27.412-61.11 61.109-61.11z"/><path d="M356.265 279.409c17.172 0 31.14-13.969 31.14-31.14 0-17.172-13.97-31.14-31.14-31.14-17.172 0-31.14 13.97-31.14 31.14 0 17.172 13.969 31.14 31.14 31.14zm0-47.349c8.937 0 16.207 7.271 16.207 16.208 0 8.937-7.27 16.208-16.207 16.208-8.938 0-16.208-7.271-16.208-16.208 0-8.937 7.27-16.208 16.208-16.208zM76.572 596.823c41.702 0 75.63-33.927 75.63-75.631 0-41.703-33.926-75.631-75.63-75.631-41.703 0-75.631 33.927-75.631 75.631 0 41.697 33.927 75.631 75.63 75.631zm0-136.334c33.469 0 60.697 27.23 60.697 60.698 0 33.469-27.229 60.697-60.697 60.697-33.47 0-60.698-27.229-60.698-60.697 0-33.47 27.23-60.698 60.698-60.698z"/><path d="M76.571 552.196c17.094 0 30.995-13.907 30.995-30.995 0-17.093-13.907-30.994-30.995-30.994-17.093 0-31 13.906-31 30.994s13.907 30.995 31 30.995zm0-47.063c8.854 0 16.063 7.208 16.063 16.063 0 8.854-7.208 16.063-16.063 16.063-8.859 0-16.068-7.209-16.068-16.063 0-8.855 7.209-16.063 16.068-16.063zM245.012 536.129c41.702 0 75.63-33.926 75.63-75.63 0-41.704-33.926-75.631-75.63-75.631-41.698 0-75.631 33.927-75.631 75.631s33.932 75.63 75.631 75.63zm0-136.333c33.469 0 60.697 27.229 60.697 60.697s-27.229 60.698-60.697 60.698c-33.47 0-60.698-27.23-60.698-60.698.005-33.469 27.23-60.697 60.698-60.697z"/><path d="M245.011 491.503c17.094 0 30.995-13.907 30.995-30.995 0-17.093-13.907-30.995-30.995-30.995-17.093 0-30.994 13.907-30.994 30.995s13.906 30.995 30.994 30.995zm0-47.063c8.854 0 16.063 7.208 16.063 16.063 0 8.854-7.208 16.062-16.063 16.062-8.854 0-16.062-7.208-16.062-16.062 0-8.855 7.208-16.063 16.062-16.063zM109.825 422.463c41.702 0 75.63-33.927 75.63-75.631s-33.926-75.631-75.63-75.631c-41.704 0-75.631 33.927-75.631 75.631.005 41.703 33.932 75.631 75.631 75.631zm0-136.334c33.469 0 60.697 27.23 60.697 60.698 0 33.469-27.229 60.697-60.697 60.697-33.47 0-60.698-27.229-60.698-60.697.005-33.464 27.23-60.698 60.698-60.698z"/><path d="M109.825 377.823c17.093 0 30.994-13.907 30.994-30.995 0-17.093-13.906-31-30.994-31-17.094 0-30.995 13.907-30.995 31 0 17.088 13.907 30.995 30.995 30.995zm0-47.063c8.854 0 16.062 7.208 16.062 16.068 0 8.854-7.208 16.063-16.062 16.063-8.855 0-16.063-7.208-16.063-16.063 0-8.864 7.208-16.068 16.063-16.068z"/></svg><svg viewBox="0 0 40 37" id="category3" xmlns="http://www.w3.org/2000/svg"><path d="M38.026 1.282h-36a.305.305 0 110-.61h36a.305.305 0 110 .61zM17.298 7.384a.308.308 0 01-.308-.305c0-.169.133-.305.302-.305h.006a.305.305 0 110 .61zM10.568 8.605a1.527 1.527 0 01-1.525-1.526c0-.841.684-1.525 1.525-1.525.841 0 1.525.684 1.525 1.525 0 .842-.684 1.526-1.525 1.526zm0-2.441a.916.916 0 000 1.83.916.916 0 000-1.83z"/><path d="M11.788 9.825h-2.44a1.527 1.527 0 01-1.526-1.526V5.86c0-.842.684-1.526 1.525-1.526h2.44c.842 0 1.526.684 1.526 1.526v2.44c0 .842-.684 1.526-1.525 1.526zm-2.44-4.882a.916.916 0 00-.916.916v2.44c0 .505.41.915.915.915h2.44c.505 0 .916-.41.916-.915V5.86a.916.916 0 00-.915-.916h-2.44z"/><path d="M11.788 11.655h-2.44a1.527 1.527 0 01-1.526-1.525V7.69a.305.305 0 11.61 0v2.44c0 .504.41.915.915.915h2.44c.505 0 .916-.41.916-.915V8.3a.305.305 0 11.61 0v1.83c0 .841-.684 1.525-1.525 1.525zM18.5 11.655h-2.44a1.527 1.527 0 01-1.526-1.525V7.69a.305.305 0 11.61 0v2.44c0 .504.41.915.915.915h2.44c.505 0 .916-.41.916-.915V8.3a.305.305 0 11.61 0v1.83c0 .841-.684 1.525-1.525 1.525zM25.212 11.655h-2.44a1.527 1.527 0 01-1.526-1.525V7.69a.305.305 0 11.61 0v2.44c0 .504.41.915.915.915h2.44c.506 0 .916-.41.916-.915V8.3a.305.305 0 11.61 0v1.83c0 .841-.684 1.525-1.525 1.525zM31.924 11.655h-2.44a1.527 1.527 0 01-1.526-1.525V7.69a.305.305 0 11.61 0v2.44c0 .504.41.915.915.915h2.44c.505 0 .916-.41.916-.915V8.3a.305.305 0 11.61 0v1.83c0 .841-.684 1.525-1.525 1.525z"/><path d="M18.5 9.825h-2.44a1.527 1.527 0 01-1.526-1.526V5.86c0-.842.684-1.526 1.525-1.526h2.44c.842 0 1.526.684 1.526 1.526v2.44c0 .842-.684 1.526-1.525 1.526zm-2.441-4.882a.916.916 0 00-.915.916v2.44c0 .505.41.915.915.915h2.44c.505 0 .916-.41.916-.915V5.86a.916.916 0 00-.915-.916h-2.441zM25.212 9.825h-2.44a1.527 1.527 0 01-1.526-1.526V5.86c0-.842.684-1.526 1.525-1.526h2.44c.842 0 1.526.684 1.526 1.526v2.44c0 .842-.684 1.526-1.525 1.526zm-2.44-4.882a.916.916 0 00-.916.916v2.44c0 .505.41.915.915.915h2.44c.506 0 .916-.41.916-.915V5.86a.916.916 0 00-.915-.916h-2.44zM31.924 9.825h-2.44a1.527 1.527 0 01-1.526-1.526V5.86c0-.842.684-1.526 1.525-1.526h2.44c.842 0 1.526.684 1.526 1.526v2.44c0 .842-.684 1.526-1.525 1.526zm-2.44-4.882a.916.916 0 00-.916.916v2.44c0 .505.41.915.915.915h2.44c.505 0 .916-.41.916-.915V5.86a.916.916 0 00-.915-.916h-2.44z"/><path d="M18.5 8.605h-2.44a.305.305 0 01-.306-.306V5.86c0-.169.136-.305.305-.305h2.44c.17 0 .306.136.306.305v2.44a.304.304 0 01-.305.306zm-2.136-.61h1.83V6.163h-1.83v1.83zM23.991 8.605a.303.303 0 01-.215-.09l-1.221-1.22a.305.305 0 010-.431l1.22-1.22c.12-.12.313-.12.432 0l1.22 1.22c.12.119.12.312 0 .43l-1.22 1.221a.303.303 0 01-.216.09zm-.789-1.526l.79.79.788-.79-.789-.789-.789.79zM29.483 8.605a.305.305 0 01-.216-.52l2.441-2.442a.305.305 0 11.431.432l-2.44 2.44a.305.305 0 01-.216.09zM31.619 8.91a.305.305 0 01-.216-.52l.61-.611a.305.305 0 11.431.431l-.61.61a.303.303 0 01-.215.09zM29.177 6.469a.305.305 0 01-.216-.52l.612-.61a.305.305 0 11.43.43l-.61.61a.304.304 0 01-.216.09zM.805 2.503A.305.305 0 01.5 2.198c0-.842.685-1.526 1.526-1.526a.305.305 0 110 .61.916.916 0 00-.916.916.305.305 0 01-.305.305zM39.245 2.503a.305.305 0 01-.304-.305.916.916 0 00-.916-.916.305.305 0 110-.61c.842 0 1.526.684 1.526 1.526a.305.305 0 01-.306.305zM38.026 23.858h-36a.305.305 0 110-.61h36a.305.305 0 110 .61z"/><path d="M38.026 23.858a.305.305 0 110-.61c.504 0 .915-.41.915-.915a.305.305 0 11.61 0c0 .841-.684 1.525-1.525 1.525zM2.026 23.858A1.527 1.527 0 01.5 22.333a.305.305 0 11.61 0c0 .504.411.915.916.915a.305.305 0 110 .61z"/><path d="M.805 22.638a.305.305 0 01-.305-.305V2.198a.305.305 0 11.61 0v20.135a.304.304 0 01-.305.305zM39.246 22.638a.305.305 0 01-.305-.305V2.198a.305.305 0 11.61 0v20.135a.305.305 0 01-.305.305zM38.026 26.299h-36a.305.305 0 110-.61h36a.305.305 0 110 .61z"/><path d="M38.026 26.299a.305.305 0 110-.61c.504 0 .915-.41.915-.915a.305.305 0 11.61 0c0 .841-.684 1.525-1.525 1.525zM2.026 26.299A1.527 1.527 0 01.5 24.773a.305.305 0 11.61 0c0 .505.411.916.916.916a.305.305 0 110 .61z"/><path d="M.805 25.079a.305.305 0 01-.305-.305v-2.44a.305.305 0 11.61 0v2.44a.305.305 0 01-.305.305zM39.246 25.079a.305.305 0 01-.305-.305v-2.44a.305.305 0 11.61 0v2.44a.305.305 0 01-.305.305zM11.012 14.704a.306.306 0 01-.263-.151.921.921 0 00-.79-.457H8.737a.913.913 0 00-.457.123.305.305 0 11-.306-.528c.231-.135.496-.205.763-.205h1.22c.54 0 1.044.29 1.318.758a.306.306 0 01-.264.46zM9.958 20.198h-1.22c-.268 0-.532-.071-.763-.205a.305.305 0 01.306-.528c.138.08.296.123.456.123h1.22a.919.919 0 00.791-.458.306.306 0 01.527.307c-.272.47-.778.76-1.317.76zM14.229 16.537a.3.3 0 01-.136-.033c-3.538-1.769-8.322-1.197-8.369-1.19a.305.305 0 01-.076-.605c.204-.027 5.017-.601 8.717 1.25a.305.305 0 01-.137.578zM7.661 19.03c-1.148 0-1.933-.094-2.013-.104a.305.305 0 01.076-.605c.048.006 4.835.576 8.368-1.191a.306.306 0 01.273.546c-2.253 1.126-4.918 1.354-6.704 1.354z"/><path d="M5.687 18.928a.305.305 0 01-.305-.305v-3.612a.305.305 0 11.61 0v3.612a.305.305 0 01-.305.305zM14.23 17.708a.305.305 0 01-.306-.305v-1.171a.305.305 0 11.61 0v1.171a.305.305 0 01-.305.305zM7.517 18.977a.305.305 0 01-.249-.482c.021-.03.542-.795.01-1.463-.656-.825-.293-1.798-.01-2.197a.306.306 0 01.499.352c-.024.033-.543.797-.011 1.464.656.825.293 1.798.01 2.197a.305.305 0 01-.25.129zM9.957 18.894a.304.304 0 01-.246-.485c.022-.03.535-.76.01-1.398-.661-.805-.295-1.755-.01-2.146a.305.305 0 01.493.36c-.022.03-.535.76-.01 1.399.661.805.295 1.755.01 2.145a.304.304 0 01-.247.125zM12.399 18.413a.304.304 0 01-.212-.525c.06-.059.217-.258.212-.457-.004-.125-.07-.243-.203-.36-.255-.226-.396-.504-.407-.8-.02-.519.348-.913.39-.957a.305.305 0 01.44.425c-.065.068-.23.292-.22.51.006.13.072.25.202.365.33.292.404.6.407.808.01.5-.356.867-.398.907a.308.308 0 01-.211.084zM21.385 14.704a.306.306 0 01-.263-.151.921.921 0 00-.792-.457h-1.22a.913.913 0 00-.457.123.305.305 0 11-.306-.528c.232-.135.496-.205.764-.205h1.22c.538 0 1.043.29 1.318.758a.306.306 0 01-.264.46zM20.33 20.198h-1.22c-.267 0-.53-.071-.762-.205a.305.305 0 11.306-.528c.138.08.296.123.456.123h1.22a.921.921 0 00.792-.458.305.305 0 01.527.307c-.274.47-.78.76-1.319.76zM24.602 16.537a.299.299 0 01-.137-.033c-3.537-1.768-8.32-1.196-8.367-1.19a.305.305 0 01-.075-.605c.203-.026 5.015-.601 8.716 1.25a.305.305 0 01-.137.578zM18.034 19.03c-1.148 0-1.933-.094-2.012-.104a.305.305 0 01.075-.605c.048.005 4.834.575 8.368-1.191a.306.306 0 01.273.546c-2.253 1.126-4.918 1.354-6.704 1.354z"/><path d="M16.06 18.928a.305.305 0 01-.305-.305v-3.612a.305.305 0 11.61 0v3.612a.305.305 0 01-.305.305zM24.602 17.708a.305.305 0 01-.305-.305v-1.171a.305.305 0 11.61 0v1.171a.305.305 0 01-.305.305zM17.89 18.977a.305.305 0 01-.248-.482c.021-.03.541-.795.01-1.463-.656-.825-.294-1.798-.01-2.197a.305.305 0 01.498.352c-.024.033-.542.797-.011 1.464.656.825.293 1.798.01 2.197a.304.304 0 01-.25.129zM20.33 18.894a.304.304 0 01-.245-.485c.021-.03.534-.76.01-1.398-.662-.805-.296-1.755-.01-2.146a.305.305 0 01.493.36c-.022.03-.535.76-.011 1.399.662.805.296 1.755.01 2.145a.306.306 0 01-.247.125zM22.771 18.413a.305.305 0 01-.21-.525c.059-.059.215-.258.21-.457-.003-.125-.07-.243-.202-.36-.255-.226-.396-.504-.407-.8-.02-.519.348-.913.39-.957a.305.305 0 01.44.425c-.065.068-.23.292-.22.51.006.13.072.25.202.365.33.292.404.6.408.808.01.5-.358.867-.4.907a.307.307 0 01-.21.084zM31.758 14.704a.306.306 0 01-.263-.151.921.921 0 00-.792-.457h-1.22a.92.92 0 00-.457.123.305.305 0 11-.306-.528c.232-.135.496-.205.764-.205h1.22c.538 0 1.043.29 1.318.758a.306.306 0 01-.264.46zM30.704 20.198h-1.22c-.267 0-.53-.071-.762-.205a.305.305 0 11.305-.528c.14.08.296.123.457.123h1.22a.921.921 0 00.79-.458.305.305 0 01.528.307c-.274.47-.779.76-1.318.76zM34.975 16.536a.3.3 0 01-.136-.032c-3.538-1.769-8.321-1.197-8.368-1.19a.305.305 0 01-.075-.605c.203-.027 5.014-.602 8.716 1.25a.305.305 0 01-.137.577zM28.408 19.03c-1.149 0-1.933-.094-2.013-.104a.305.305 0 01.075-.605c.049.006 4.835.576 8.368-1.191a.306.306 0 01.273.546c-2.253 1.126-4.918 1.354-6.704 1.354z"/><path d="M26.433 18.928a.305.305 0 01-.306-.305v-3.612a.305.305 0 11.61 0v3.612a.305.305 0 01-.304.305zM34.975 17.708a.305.305 0 01-.305-.305v-1.171a.305.305 0 11.61 0v1.171a.305.305 0 01-.305.305zM28.262 18.977a.305.305 0 01-.248-.482c.022-.03.542-.795.01-1.463-.656-.825-.293-1.798-.01-2.197a.305.305 0 01.498.352c-.023.033-.542.797-.01 1.464.655.825.293 1.798.01 2.197a.303.303 0 01-.25.129zM30.704 18.894a.304.304 0 01-.246-.485c.021-.03.534-.76.01-1.398-.662-.805-.296-1.755-.01-2.146a.305.305 0 01.493.36c-.023.03-.536.76-.011 1.399.661.805.295 1.755.01 2.145a.306.306 0 01-.246.125zM33.144 18.413a.305.305 0 01-.211-.525c.06-.059.216-.258.21-.457-.003-.125-.069-.243-.202-.36-.255-.226-.395-.504-.407-.8-.02-.519.349-.913.39-.957a.305.305 0 01.44.425c-.064.068-.23.292-.22.51.006.13.072.25.203.365.329.292.403.6.407.808.01.5-.357.867-.399.907a.307.307 0 01-.211.084zM6.297 36.672a4.581 4.581 0 01-4.577-4.576 4.581 4.581 0 014.577-4.576 4.581 4.581 0 014.576 4.576 4.582 4.582 0 01-4.576 4.576zm0-8.542a3.971 3.971 0 00-3.966 3.966 3.97 3.97 0 003.966 3.966 3.97 3.97 0 003.966-3.965 3.971 3.971 0 00-3.966-3.967z"/><path d="M6.297 35.452a3.36 3.36 0 01-3.356-3.356 3.36 3.36 0 013.356-3.356 3.36 3.36 0 013.356 3.356 3.36 3.36 0 01-3.356 3.356zm0-6.102a2.749 2.749 0 00-2.746 2.746 2.749 2.749 0 002.746 2.745 2.749 2.749 0 002.746-2.745 2.75 2.75 0 00-2.746-2.746z"/><path d="M4.466 32.4a.305.305 0 01-.305-.304c0-1.178.958-2.136 2.135-2.136a.305.305 0 110 .61c-.84 0-1.525.684-1.525 1.526a.305.305 0 01-.305.305zM38.026 30.57H14.839a.305.305 0 110-.61h23.187a.305.305 0 110 .61zM38.026 31.79H14.839a.305.305 0 110-.61h23.187a.305.305 0 110 .61z"/><path d="M38.026 31.79a.305.305 0 01-.305-.305v-1.22a.305.305 0 11.61 0v1.22a.305.305 0 01-.305.305zM13.008 31.18a.305.305 0 01-.096-.595l1.83-.61a.306.306 0 01.193.58l-1.83.61a.292.292 0 01-.097.015z"/><path d="M14.84 31.79a.304.304 0 01-.097-.015l-1.83-.61a.306.306 0 01.192-.58l1.83.61a.306.306 0 01-.096.595zM36.195 34.232H13.01a.305.305 0 110-.61h23.186a.305.305 0 110 .61zM36.195 33.01H13.01a.305.305 0 110-.61h23.186a.305.305 0 110 .61z"/><path d="M13.009 34.232a.305.305 0 01-.305-.305v-1.22a.305.305 0 11.61 0v1.22a.305.305 0 01-.305.305zM36.195 34.232a.306.306 0 01-.096-.595l1.83-.61a.306.306 0 01.386.193.306.306 0 01-.193.386l-1.83.61a.31.31 0 01-.097.016z"/><path d="M38.026 33.622a.297.297 0 01-.097-.016l-1.83-.61a.306.306 0 01.193-.58l1.83.61a.306.306 0 01-.096.596z"/></svg><svg viewBox="0 0 38 38" id="category4" xmlns="http://www.w3.org/2000/svg"><path d="M37.5 18.83c0-.357-.239-.596-.597-.596H35.71v-.478c0-5.251-4.297-9.548-9.549-9.548-1.014 0-1.97.18-2.924.478-.358-2.03-1.372-3.88-2.805-5.371A10.12 10.12 0 0013.271.33c-.358 0-.597.239-.597.597v7.698c-.537-.597-1.193-.955-1.91-.955-1.969-.119-3.58 2.208-4.117 3.044-1.97.358-3.402 1.253-4.237 2.685-.955 1.731-.716 3.76-.478 4.834h-.835c-.358 0-.597.239-.597.597 0 5.37 2.268 10.324 6.206 13.845-.119.12-.238.298-.238.477v3.581c0 .358.238.597.597.597h23.87c.359 0 .597-.239.597-.597v-3.58c0-.18-.12-.359-.238-.478.298-.239.537-.477.835-.776C35.59 28.44 37.5 23.784 37.5 18.831zm-2.984-1.073v.477h-1.193v-.478c0-3.938-3.223-7.16-7.162-7.16a6.966 6.966 0 00-3.64 1.014C20.373 12.863 19 15.25 19 17.756v.478h-1.194V17.1c.06-.597.18-1.134.299-1.73 0-.06.06-.18.06-.24a8.25 8.25 0 014.177-4.893c.179-.12.358-.179.597-.239 1.014-.417 2.088-.656 3.163-.656 4.654.06 8.415 3.82 8.415 8.415zm-9.429.477c0-.06-.06-.12-.06-.18v-.298c0-.656.537-1.193 1.194-1.193.656 0 1.194.537 1.194 1.194v.298c0 .06 0 .12-.06.12h-2.268v.059zm3.402-.06c0-.12.06-.298.06-.418a2.394 2.394 0 00-2.388-2.387 2.394 2.394 0 00-2.387 2.387c0 .12 0 .299.06.418v.06H22.64c0-.18-.06-.299-.06-.478 0-.775.24-1.491.717-2.148a3.561 3.561 0 012.864-1.432c1.97 0 3.58 1.611 3.58 3.58 0 .18 0 .299-.059.478l-1.193-.06zm2.447-.418a4.788 4.788 0 00-4.775-4.774 4.805 4.805 0 00-3.82 1.91c-.596.835-.954 1.79-.954 2.864v.478h-1.194v-.478c0-2.088 1.134-4.058 2.925-5.132a5.98 5.98 0 013.043-.835c3.282 0 5.968 2.685 5.968 5.967v.478h-1.193v-.478zM13.867 1.524c2.148.12 4.177 1.075 5.729 2.626 1.372 1.373 2.208 3.103 2.506 4.953-.06 0-.06.06-.12.06-.119.06-.178.12-.297.179-.12.06-.24.12-.299.18-.12.059-.179.118-.298.178-.12.06-.18.12-.299.18-.119.059-.179.118-.298.178-.12.06-.18.12-.299.239-.06.06-.178.12-.238.239-.12.06-.18.179-.239.238L19 11.49c-.06.06-.179.18-.239.299-.06.06-.12.179-.179.239-.06.119-.12.178-.179.298-.06.06-.12.179-.179.239-.06.119-.12.179-.179.298-.06.12-.12.179-.179.298-.06.12-.12.239-.179.299-.06.12-.12.179-.12.298-.059.12-.119.239-.119.358-.06.12-.06.18-.119.299-.06.119-.06.238-.12.358-.059.119-.059.179-.119.298-.06.12-.06.239-.119.358 0 .12-.06.18-.06.298 0 .12-.06.299-.06.418 0 .12-.06.18-.06.299 0 .179-.059.298-.059.477v1.432h-2.745V1.524h-.12zM3.484 13.997c.656-1.134 1.91-1.91 3.7-2.208.179-.06.298-.12.418-.298.417-.716 1.79-2.686 3.103-2.686h.06c.835.06 1.551 1.074 1.969 1.97v7.46h-1.73v-7.042c0-.358-.24-.597-.598-.597s-.596.239-.596.597v6.325l-2.925-2.566c-.238-.238-.596-.179-.835.06s-.179.597.06.835l2.685 2.328h-5.61c-.238-.716-.596-2.626.299-4.178zm-1.79 5.43h34.612a16.827 16.827 0 01-5.072 11.637 19.86 19.86 0 01-1.671 1.492H8.437a17.22 17.22 0 01-6.743-13.129zm28.645 16.71H7.66V33.75H30.34v2.387z"/></svg><svg viewBox="0 0 573 641" id="category5" xmlns="http://www.w3.org/2000/svg"><path d="M572.084 223.905a10.624 10.624 0 00-5.51-7.541l-84.448-44.557 53.511-108.26c6.526-13.183 3.354-29.172-7.724-38.87-7.855-6.89-18.172-9.541-28.416-7.307-10.219 2.234-18.484 9.02-22.724 18.588L428.991 143.77l-49.636-26.177c-3.536-1.896-7.823-1.584-11.125.729l-77.083 54.546-62.136-53.896c-3.224-2.833-7.906-3.38-11.75-1.479l-35.869 18.011-93.47-122.677C79.007 1.101 63.252-3.164 49.653 2.451 40.006 6.43 33.012 14.54 30.491 24.68c-2.521 10.14-.157 20.568 6.526 28.625l90.656 109.183-110.964 55.697c-2.964 1.479-5.068 4.292-5.693 7.568a10.738 10.738 0 002.6 9.125l55.296 60.807L3.24 359.331a10.651 10.651 0 00-3.197 8.604c.286 3.224 2.026 6.11 4.708 7.906l118.276 78.828 17.51 109.115a10.6 10.6 0 005.849 7.88l139.32 67.776c1.511.73 3.094 1.094 4.651 1.094 1.61 0 3.224-.364 4.735-1.12l141.227-69.885a10.596 10.596 0 005.822-8.109l16.427-122.031 101.448-56.812a10.62 10.62 0 005.224-7.125 10.693 10.693 0 00-1.948-8.63l-52.464-68.688 58.703-65.23a10.693 10.693 0 002.552-9l.001.001zm-75.86-179.306c1.479-3.302 4.344-5.64 7.854-6.422 3.459-.781 7.073.13 9.803 2.52 3.822 3.355 4.937 8.865 2.677 13.417l-57.97 117.297c0 .005-.005.005-.005.005 0 .005 0 .011-.005.011l-41.14 83.24c-.011.021-.031.031-.042.047-.015.026-.01.057-.026.083l-14.369 29.079c-2.672-.469-4.99-1.323-6.636-2.776-1.109-.964-2.38-1.865-3.77-2.693l50.822-114.667c.052-.088.141-.14.188-.229.099-.187.083-.391.172-.578l52.447-118.334zm-205.733 346.72l-183.84-95.26 91.552-48.604 8.187 9.859c-6.776 3.787-14.202 10.422-22.078 21.896-3.328 4.865-2.078 11.49 2.755 14.817a10.76 10.76 0 006.031 1.875c3.38 0 6.735-1.635 8.787-4.625 7.906-11.593 15.937-18.145 20.51-16.718 15.812 4.838 31.74-4.198 41.959-12.131.073-.052.167-.057.239-.114.068-.052.094-.13.162-.183 3.932-3.083 7.057-5.979 8.833-7.77 4.136-4.162 4.11-10.896-.078-15.052-3.734-3.735-9.521-3.891-13.688-.839l-12.88-16.901 43.489-23.104 92.287 49.697-12.078 27.255c-6.933 1.318-15.14 4.437-24.932 10.406-5.016 3.068-6.604 9.62-3.563 14.636 3.068 5.068 9.698 6.604 14.636 3.563 11.959-7.308 22.047-9.907 25.584-6.839 7.308 6.37 16.64 8.422 25.61 8.422.468 0 .906-.089 1.369-.099.026 0 .058.021.084.021.041 0 .078-.031.125-.031 11.927-.318 23.046-3.974 27.77-5.792 5.485-2.104 8.24-8.266 6.11-13.755-2.079-5.51-8.292-8.265-13.755-6.109-.354.135-.766.213-1.13.349l2.869-5.808 42.662 22.984-183.588 93.954zm84.703-251.827l45.15 23.792-28.958 65.333-80.735-43.458 64.543-45.667zm-154.734.234l51.323 44.531-37.912 20.131-39.344-51.64 25.933-13.022zM51.154 29.831c.859-3.51 3.276-6.292 6.63-7.672 4.708-2 10.114-.495 13.182 3.562l171.787 225.467c-4.063 2.125-7.88 3.057-11.287 2.958L53.386 39.706c-2.286-2.781-3.12-6.396-2.234-9.88l.002.005zm-12.35 201.093l102.834-51.615L184.31 230.7l-98.26 52.161-47.245-51.937zm46.829 78.213l184.72 95.724-87.328 64.183-43.74-29.145c-.214-.167-.433-.292-.662-.443L27.555 365.44l58.078-56.303zm61.526 161.614l30.246 20.156a10.608 10.608 0 005.901 1.791c2.208 0 4.448-.703 6.317-2.078l90.178-66.265-.089 188.506-119.03-57.912-13.523-84.198zm274.627 82.188l-120.765 59.77.093-189.24 78.24 53.506c3.329 2.286 7.672 2.468 11.209.494l44.754-25.062-13.531 100.532zm117.12-182.947l-152.973 85.667-74.662-51.031 182.654-93.49 44.981 58.854zm-44.219-85.75l-53.812-28.989 31.812-64.36 71.86 37.927-49.86 55.422z"/><path d="M323.364 300.186c5.276-2.599 7.438-8.995 4.865-14.271-2.625-5.302-9.073-7.411-14.271-4.864-11.125 5.484-26.235 9.098-33.047 4.187-8.682-6.318-24.385-9.802-50.046 9.099-4.735 3.484-5.745 10.141-2.261 14.896a10.619 10.619 0 008.579 4.344c2.208 0 4.421-.677 6.317-2.078 11.255-8.318 21.031-11.776 24.88-9.047 18.74 13.697 46.85 1.713 54.984-2.266zM362.258 312.412c-9.255 8.318-22.803 15.885-30.678 13.052-10.062-3.719-26.104-2.807-45.677 22.385-3.588 4.652-2.755 11.334 1.896 14.948a10.591 10.591 0 006.526 2.235c3.172 0 6.318-1.427 8.422-4.136 8.552-11.026 17.104-17.24 21.448-15.469 21.917 8.162 45.552-11.099 52.306-17.156 4.37-3.927 4.735-10.661.808-15.052a10.676 10.676 0 00-15.052-.807h.001zM245.071 326.545c-12.765 1.042-27.713-2.885-31.745-10.192-5.198-9.36-17.834-19.188-49.214-12.948-5.744 1.172-9.489 6.786-8.343 12.557 1.146 5.719 6.396 9.438 12.557 8.344 13.651-2.755 24.047-1.844 26.364 2.338 10.688 19.344 38.844 21.214 49.317 21.214h1.428c5.874-.104 10.557-4.964 10.479-10.844-.078-5.865-4.266-9.766-10.844-10.469h.001zM307.551 243.359c8.683 21.604 38.792 26.286 47.839 27.193.365.052.729.078 1.068.078 5.406 0 10.036-4.109 10.583-9.594.599-5.849-3.641-11.073-9.516-11.646-12.349-1.276-27.062-6.187-30.208-14.016-4.005-9.88-15.521-21.448-47.265-18.77-5.849.442-10.271 5.536-9.802 11.411.443 5.849 5.068 10.401 11.411 9.802 13.959-.88 24.12 1.146 25.891 5.542h-.001z"/></svg><svg viewBox="0 0 29 34" id="category6" xmlns="http://www.w3.org/2000/svg"><path d="M11.68 18.573c-.716-2.873-1.433-4.87-2.133-6.06h.734a.495.495 0 00.5-.5v-1.957a.5.5 0 00-.5-.507H8.688L7.31 4.702a.5.5 0 00-.484-.37h-.563a.501.501 0 00-.484.37L4.386 9.549H2.793a.501.501 0 00-.5.507v1.94a.495.495 0 00.5.5h.797c-.712 1.19-1.423 3.204-2.163 6.1a29.894 29.894 0 00-.79 10.241.169.169 0 000 .04c.109 1.225.299 2.442.569 3.642.05.227.102.432.148.62.062.22.26.372.489.375h9.331a.516.516 0 00.49-.375c.045-.188.096-.393.147-.62.28-1.202.48-2.42.598-3.647v-.035c.345-3.438.099-6.909-.729-10.264zM6.56 5.651L7.663 9.55h-2.23L6.56 5.65zm-3.238 4.91h6.453v.945H3.3l.022-.944zm7.54 21.769l-.052.21H2.28l-.051-.21a28.483 28.483 0 01-.518-2.947h6.6a.506.506 0 000-1.013H1.61a28.915 28.915 0 01.796-9.508c.171-.671.336-1.268.495-1.809h4.46a.506.506 0 100-1.013H3.209c.666-2.06 1.207-3.055 1.605-3.522h3.51c.399.461.945 1.457 1.605 3.522h-.79a.507.507 0 000 1.013h1.109c.153.53.313 1.138.472 1.764a29.339 29.339 0 01.768 9.553H9.871a.506.506 0 100 1.013h1.514a28.39 28.39 0 01-.524 2.947zM27.464 10.146h-1.798V6.943a.568.568 0 00-.569-.569h-1.48l-.978-5.29v-.001a.569.569 0 00-.569-.467h-1.775a.568.568 0 00-.569.467l-.944 5.291h-1.508a.569.569 0 00-.57.57v3.202h-1.797a.57.57 0 00-.57.57v22.332a.57.57 0 00.57.568h12.557a.57.57 0 00.569-.568V10.715a.57.57 0 00-.57-.569h.001zM15.476 20.348l11.42-4.518v5.059l-11.42 4.523v-5.064zm5.291-18.594h.86l.853 4.62h-2.56l.847-4.62zm-2.924 5.758h6.685v2.635h-6.685V7.511zm-.57 3.772h9.622v3.323l-11.419 4.518v-7.84h1.798zM15.477 32.48v-5.844l11.42-4.552v10.395h-11.42z"/></svg><svg viewBox="0 0 463 606" id="category7" xmlns="http://www.w3.org/2000/svg"><path d="M453.14 396.271l-48.24 9.438 33.677-33.667a7.453 7.453 0 000-10.557 7.453 7.453 0 00-10.557 0l-33.667 33.666 9.448-48.24c.792-4.046-1.844-7.974-5.891-8.765-4.12-.813-7.969 1.854-8.765 5.891l-13.708 70.03-24.292 24.292 9.447-48.24a7.47 7.47 0 00-5.89-8.765 7.45 7.45 0 00-8.766 5.89l-13.708 70.036-24.276 24.276 9.448-48.234a7.472 7.472 0 00-5.891-8.766 7.448 7.448 0 00-8.765 5.891l-13.708 70.03-24.292 24.282 9.448-48.24a7.472 7.472 0 00-5.891-8.766 7.441 7.441 0 00-8.766 5.891l-13.708 70.036-48.636 48.598a7.456 7.456 0 000 10.558 7.431 7.431 0 005.276 2.192 7.448 7.448 0 005.282-2.187l48.625-48.625 70.036-13.708c4.047-.792 6.693-4.719 5.891-8.766a7.438 7.438 0 00-8.766-5.891l-48.24 9.448 24.281-24.281 70.031-13.703c4.047-.791 6.693-4.719 5.891-8.765a7.442 7.442 0 00-8.766-5.891l-48.229 9.437 24.276-24.276 70.03-13.693a7.466 7.466 0 005.901-8.76c-.791-4.047-4.724-6.703-8.76-5.901l-48.255 9.437 24.282-24.281 70.036-13.703c4.047-.792 6.692-4.719 5.89-8.766-.796-4.036-4.697-6.687-8.765-5.885l.002.003zM175.24 520.086H80.714L61.66 362.646c26.934-5.725 46.335-26.368 46.335-50.794 0-28.229-26.176-51.252-58.819-52.333l-11.73-96.91h322.508l-13.607 124.877c-.443 4.097 3.078 7.732 7.863 8.117 4.7.39 9.029-2.631 9.478-6.734l13.747-126.265h4.858c4.815 0 8.707-3.338 8.707-7.456l-.006-45.137c0-4.113-3.892-7.456-8.707-7.456l-288.436.005L15.936 3.296C13.252-.125 7.842-1.024 3.853 1.268-.137 3.566-1.205 8.2 1.485 11.615l71.387 90.945h-57.87c-4.803 0-8.707 3.338-8.707 7.456v45.132c0 4.113 3.898 7.456 8.707 7.456h4.936l44.265 365.715c.462 3.795 4.196 6.681 8.659 6.681l102.378-.005c4.803 0 8.707-3.333 8.707-7.456-.006-4.124-3.904-7.457-8.707-7.457v.004zM23.71 117.46h349.882v30.225h-4.038c-.018 0-.024-.005-.042-.005H27.791c-.006 0-.025.005-.037.005h-4.038V117.46h-.006zm66.871 194.392c0 16.747-12.733 30.999-30.735 35.778l-8.835-72.945c22.144 1.851 39.57 17.715 39.57 37.167z"/></svg><svg viewBox="0 0 188 180" id="check" xmlns="http://www.w3.org/2000/svg"><path fill-rule="evenodd" clip-rule="evenodd" d="M30.529 86.74l36.124 41.69L172.208 3.362c7.903-8.45 20.321.563 14.111 10.14L82.459 171.808c-7.903 10.14-18.626 11.267-27.658 1.127L2.306 110.401C-7.854 95.753 18.111 74.911 30.53 86.74z"/></svg><svg viewBox="0 0 24 24" id="close" xmlns="http://www.w3.org/2000/svg"><g clip-path="url(#lclip0_107_434)"><path d="M19 6.41L17.59 5 12 10.59 6.41 5 5 6.41 10.59 12 5 17.59 6.41 19 12 13.41 17.59 19 19 17.59 13.41 12 19 6.41z"/></g><defs><clipPath id="lclip0_107_434"><path d="M0 0h24v24H0z"/></clipPath></defs></svg><svg viewBox="0 0 28 29" id="instagram" xmlns="http://www.w3.org/2000/svg"><g clip-path="url(#mclip0_163_148)"><path d="M27.973 8.732c-.066-1.488-.307-2.51-.651-3.397a6.833 6.833 0 00-1.62-2.483 6.891 6.891 0 00-2.477-1.614c-.892-.344-1.91-.585-3.397-.65C18.33.516 17.853.5 14.052.5c-3.802 0-4.277.016-5.77.082-1.488.066-2.511.306-3.397.65A6.832 6.832 0 002.4 2.853 6.894 6.894 0 00.788 5.33C.443 6.222.202 7.239.137 8.727.066 10.225.049 10.7.049 14.503c0 3.801.017 4.277.082 5.77.066 1.488.307 2.511.651 3.397.356.941.908 1.783 1.62 2.483a6.89 6.89 0 002.477 1.614c.892.345 1.909.585 3.397.65 1.493.067 1.97.083 5.77.083 3.802 0 4.278-.016 5.771-.082 1.488-.066 2.51-.306 3.397-.651a7.162 7.162 0 004.097-4.097c.344-.891.585-1.909.65-3.397.066-1.493.083-1.969.083-5.77 0-3.802-.006-4.278-.071-5.77zM25.45 20.164c-.06 1.367-.29 2.106-.481 2.598a4.645 4.645 0 01-2.659 2.659c-.492.191-1.236.42-2.598.48-1.477.067-1.92.083-5.656.083-3.736 0-4.184-.016-5.655-.082-1.368-.06-2.106-.29-2.599-.481a4.31 4.31 0 01-1.608-1.045 4.354 4.354 0 01-1.044-1.608c-.192-.493-.422-1.236-.482-2.598-.065-1.477-.082-1.92-.082-5.656 0-3.736.017-4.185.082-5.656.06-1.368.29-2.106.482-2.598.224-.607.58-1.16 1.05-1.608.454-.465 1-.821 1.608-1.045.492-.192 1.236-.421 2.598-.481 1.477-.066 1.92-.083 5.656-.083 3.741 0 4.184.017 5.656.083 1.367.06 2.106.29 2.598.48.607.225 1.16.58 1.608 1.046.465.454.82 1 1.045 1.608.191.492.42 1.236.481 2.598.066 1.477.082 1.92.082 5.656 0 3.736-.016 4.173-.082 5.65z"/><path d="M14.052 7.31a7.195 7.195 0 00-7.193 7.193 7.195 7.195 0 007.193 7.192 7.194 7.194 0 007.193-7.192 7.194 7.194 0 00-7.193-7.193zm0 11.858a4.667 4.667 0 11.001-9.333 4.667 4.667 0 01-.001 9.333zM23.209 7.026a1.68 1.68 0 11-3.36 0 1.68 1.68 0 013.36 0z"/></g><defs><clipPath id="mclip0_163_148"><path transform="translate(0 .5)" d="M0 0h28v28H0z"/></clipPath></defs></svg><svg viewBox="0 0 28 29" id="phone" xmlns="http://www.w3.org/2000/svg"><path d="M19.58 17.513a1.647 1.647 0 012.357-.017l5.575 5.561c.645.647.668 1.7-.036 2.43l-2.088 1.7c-1.128.94-3.383 1.36-6.016.782-3.558-.78-7.572-3.233-11.923-7.673C-.028 12.665-1.296 6.245 1.097 2.91l1.306-1.643.454-.533a1.647 1.647 0 012.356-.01L10.78 6.28c.654.642.681 1.706-.03 2.43l-.572.46-1.426 1.236c-.417.5-.08 1.316 1.074 2.747l4.708 4.69c2.189 1.778 2.981 2.19 3.455 1.876l1.591-2.206zm-.805 3.081c-1.143.933-2.194.42-5.016-1.875l-4.793-4.776c-1.554-1.918-2.06-3.146-1.04-4.358l1.507-1.317.538-.428a.507.507 0 00-.006-.72L4.39 1.556c-.196-.2-.506-.196-.677-.025l-.413.485-1.276 1.606c-.655.913-.998 2.668-.567 4.847.629 3.187 2.78 6.877 6.821 11 4.202 4.289 8.024 6.624 11.342 7.351 2.304.505 4.194.153 5.03-.545l2.042-1.655a.518.518 0 000-.729l-5.575-5.56c-.2-.2-.51-.197-.649-.063l-1.588 2.213-.105.113z"/></svg><svg viewBox="0 0 14 14" id="plus" xmlns="http://www.w3.org/2000/svg"><path d="M7 0a.913.913 0 00-.913.913v5.174H.913a.913.913 0 100 1.826h5.174v5.174a.913.913 0 001.826 0V7.913h5.174a.913.913 0 000-1.826H7.913V.913A.913.913 0 007 0z"/></svg><svg viewBox="0 0 28 29" id="twitter" xmlns="http://www.w3.org/2000/svg"><g clip-path="url(#pclip0_163_154)"><path d="M28 5.818c-1.041.457-2.15.76-3.308.907a5.708 5.708 0 002.526-3.173 11.472 11.472 0 01-3.64 1.39 5.739 5.739 0 00-9.93 3.925c0 .455.039.892.133 1.309C9.01 9.943 4.786 7.656 1.95 4.17a5.78 5.78 0 00-.785 2.902 5.749 5.749 0 002.55 4.77 5.668 5.668 0 01-2.594-.707v.064c0 2.789 1.99 5.106 4.599 5.64a5.731 5.731 0 01-1.505.189c-.368 0-.739-.021-1.087-.098.744 2.273 2.854 3.944 5.364 3.998a11.534 11.534 0 01-7.117 2.449c-.471 0-.923-.021-1.374-.079a16.16 16.16 0 008.806 2.576c10.563 0 16.338-8.75 16.338-16.334 0-.254-.009-.5-.021-.742A11.452 11.452 0 0028 5.819z"/></g><defs><clipPath id="pclip0_163_154"><path transform="translate(0 .5)" d="M0 0h28v28H0z"/></clipPath></defs></svg><svg viewBox="0 0 626 378" id="up" xmlns="http://www.w3.org/2000/svg"><path d="M0 312.667L312.667 0l312.666 312.667L560 378 312.667 130.667 65.333 378 0 312.667z"/></svg><svg viewBox="0 0 28 29" id="vk" xmlns="http://www.w3.org/2000/svg"><g clip-path="url(#rclip0_163_152)"><path d="M23.234 15.7c-.453-.572-.323-.826 0-1.337.006-.006 3.743-5.17 4.128-6.92l.002-.002c.191-.638 0-1.107-.925-1.107h-3.061c-.78 0-1.139.402-1.331.853 0 0-1.56 3.73-3.764 6.15-.712.698-1.04.922-1.43.922-.19 0-.488-.224-.488-.862V7.441c0-.765-.218-1.107-.863-1.107h-4.814c-.489 0-.78.357-.78.69 0 .725 1.103.892 1.217 2.934v4.43c0 .97-.176 1.149-.567 1.149-1.04 0-3.566-3.747-5.063-8.034-.302-.832-.597-1.168-1.383-1.168H1.05c-.874 0-1.05.403-1.05.853 0 .796 1.04 4.752 4.84 9.979 2.531 3.567 6.096 5.5 9.34 5.5 1.95 0 2.187-.429 2.187-1.168 0-3.409-.176-3.73.8-3.73.453 0 1.232.224 3.052 1.944 2.08 2.04 2.422 2.954 3.587 2.954h3.061c.873 0 1.315-.429 1.06-1.276-.581-1.781-4.515-5.446-4.693-5.691z"/></g><defs><clipPath id="rclip0_163_152"><path transform="translate(0 .5)" d="M0 0h28v28H0z"/></clipPath></defs></svg></svg>